<svg width="1268" height="1268" viewBox="0 0 1268 1268" fill="none" xmlns="http://www.w3.org/2000/svg">
<circle cx="640" cy="629" r="196" fill="url(#paint0_angular_201_409)"/>
<path d="M531.338 963.375C712.035 1022.94 906.808 924.747 966.375 744.05C1025.94 563.353 927.748 368.581 747.05 309.014C566.353 249.446 371.581 347.641 312.014 528.338" stroke="url(#paint1_linear_201_409)" stroke-width="13"/>
<path d="M1261 634C1261 980.283 980.283 1261 634 1261C287.717 1261 7 980.283 7 634C7 287.717 287.717 7 634 7" stroke="url(#paint2_linear_201_409)" stroke-width="13"/>
<path d="M1079.78 459.354C984.404 217.049 710.659 97.9401 468.354 193.317C226.049 288.694 106.94 562.44 202.317 804.745C286.504 1018.62 509.661 1136.51 727.5 1095.64" stroke="url(#paint3_linear_201_409)" stroke-width="13"/>
<g filter="url(#filter0_b_201_409)">
<path d="M685.877 765.908C663.498 765.908 641.072 765.816 618.692 766C613.683 766 609.869 764.483 606.33 760.898C590.246 744.579 573.978 728.491 557.848 712.218C554.723 709.092 551.323 707.484 547.141 709.322C543.556 710.885 542.361 714.011 542.407 717.872C542.499 729.134 542.453 740.442 542.407 751.704C542.407 761.909 538.455 765.862 528.345 765.908C509.596 765.908 490.846 765.908 472.097 765.908C462.952 765.908 459 762.001 459 752.945C459 733.869 459 714.792 459 695.716C459 686.752 463.09 682.707 472.051 682.661C483.31 682.615 494.615 682.615 505.874 682.661C510.147 682.661 513.87 681.834 515.662 677.467C517.454 673.1 515.432 669.882 512.399 666.894C497.924 652.507 483.54 638.027 469.11 623.593C461.574 616.054 461.528 610.63 468.926 603.229C513.87 558.273 558.767 513.363 603.711 468.407C609.593 462.523 613.361 462.523 619.289 468.453C665.887 515.018 712.393 561.629 759.037 608.194C762.438 611.596 764 615.273 764 620.099C763.908 664.918 764 709.69 764 754.508C764 763.656 761.656 765.908 752.511 765.954C730.269 765.954 708.027 765.954 685.831 765.954L685.877 765.908Z" fill="url(#paint4_radial_201_409)"/>
<path d="M546.539 707.948C548.946 706.89 551.218 706.8 553.347 707.48C555.428 708.144 557.26 709.508 558.909 711.158L558.913 711.162C565.958 718.269 573.039 725.351 580.122 732.435C589.235 741.549 598.352 750.666 607.398 759.844C610.642 763.131 614.065 764.499 618.687 764.5C635.479 764.362 652.299 764.379 669.098 764.397C674.694 764.402 680.288 764.408 685.877 764.408H689.498L689.452 764.454H689.473H689.603H689.733H689.864H689.994H690.124H690.254H690.384H690.514H690.644H690.774H690.904H691.034H691.164H691.295H691.425H691.555H691.685H691.815H691.945H692.075H692.205H692.335H692.465H692.596H692.726H692.856H692.986H693.116H693.246H693.376H693.506H693.636H693.767H693.897H694.027H694.157H694.287H694.417H694.547H694.677H694.808H694.938H695.068H695.198H695.328H695.458H695.588H695.718H695.849H695.979H696.109H696.239H696.369H696.499H696.629H696.759H696.89H697.02H697.15H697.28H697.41H697.54H697.67H697.801H697.931H698.061H698.191H698.321H698.451H698.581H698.712H698.842H698.972H699.102H699.232H699.362H699.493H699.623H699.753H699.883H700.013H700.143H700.273H700.404H700.534H700.664H700.794H700.924H701.054H701.185H701.315H701.445H701.575H701.705H701.835H701.966H702.096H702.226H702.356H702.486H702.616H702.747H702.877H703.007H703.137H703.267H703.398H703.528H703.658H703.788H703.918H704.048H704.179H704.309H704.439H704.569H704.699H704.83H704.96H705.09H705.22H705.35H705.48H705.611H705.741H705.871H706.001H706.131H706.262H706.392H706.522H706.652H706.782H706.913H707.043H707.173H707.303H707.433H707.564H707.694H707.824H707.954H708.084H708.215H708.345H708.475H708.605H708.735H708.866H708.996H709.126H709.256H709.387H709.517H709.647H709.777H709.907H710.038H710.168H710.298H710.428H710.558H710.689H710.819H710.949H711.079H711.21H711.34H711.47H711.6H711.73H711.861H711.991H712.121H712.251H712.382H712.512H712.642H712.772H712.902H713.033H713.163H713.293H713.423H713.554H713.684H713.814H713.944H714.075H714.205H714.335H714.465H714.595H714.726H714.856H714.986H715.116H715.247H715.377H715.507H715.637H715.768H715.898H716.028H716.158H716.289H716.419H716.549H716.679H716.81H716.94H717.07H717.2H717.331H717.461H717.591H717.721H717.852H717.982H718.112H718.242H718.373H718.503H718.633H718.763H718.894H719.024H719.154H719.284H719.415H719.545H719.675H719.805H719.936H720.066H720.196H720.326H720.457H720.587H720.717H720.848H720.978H721.108H721.238H721.369H721.499H721.629H721.759H721.89H722.02H722.15H722.28H722.411H722.541H722.671H722.802H722.932H723.062H723.192H723.323H723.453H723.583H723.713H723.844H723.974H724.104H724.235H724.365H724.495H724.625H724.756H724.886H725.016H725.146H725.277H725.407H725.537H725.668H725.798H725.928H726.058H726.189H726.319H726.449H726.58H726.71H726.84H726.97H727.101H727.231H727.361H727.492H727.622H727.752H727.882H728.013H728.143H728.273H728.404H728.534H728.664H728.794H728.925H729.055H729.185H729.316H729.446H729.576H729.706H729.837H729.967H730.097H730.228H730.358H730.488H730.619H730.749H730.879H731.009H731.14H731.27H731.4H731.531H731.661H731.791H731.922H732.052H732.182H732.312H732.443H732.573H732.703H732.834H732.964H733.094H733.225H733.355H733.485H733.615H733.746H733.876H734.006H734.137H734.267H734.397H734.528H734.658H734.788H734.918H735.049H735.179H735.309H735.44H735.57H735.7H735.831H735.961H736.091H736.222H736.352H736.482H736.612H736.743H736.873H737.003H737.134H737.264H737.394H737.525H737.655H737.785H737.916H738.046H738.176H738.306H738.437H738.567H738.697H738.828H738.958H739.088H739.219H739.349H739.479H739.61H739.74H739.87H740.001H740.131H740.261H740.392H740.522H740.652H740.782H740.913H741.043H741.173H741.304H741.434H741.564H741.695H741.825H741.955H742.086H742.216H742.346H742.477H742.607H742.737H742.868H742.998H743.128H743.258H743.389H743.519H743.649H743.78H743.91H744.04H744.171H744.301H744.431H744.562H744.692H744.822H744.953H745.083H745.213H745.344H745.474H745.604H745.735H745.865H745.995H746.126H746.256H746.386H746.517H746.647H746.777H746.907H747.038H747.168H747.298H747.429H747.559H747.689H747.82H747.95H748.08H748.211H748.341H748.471H748.602H748.732H748.862H748.993H749.123H749.253H749.384H749.514H749.644H749.775H749.905H750.035H750.166H750.296H750.426H750.557H750.687H750.817H750.948H751.078H751.208H751.338H751.469H751.599H751.729H751.86H751.99H752.12H752.251H752.381L752.504 764.454C752.506 764.454 752.508 764.454 752.51 764.454C757.091 764.431 759.375 763.821 760.63 762.578C761.878 761.342 762.5 759.086 762.5 754.508C762.5 739.569 762.49 724.634 762.48 709.7C762.459 679.835 762.439 649.975 762.5 620.096C762.499 615.678 761.101 612.38 757.976 609.254C731.321 582.645 704.71 556.018 678.101 529.395C658.148 509.43 638.196 489.467 618.229 469.514L618.228 469.514C615.312 466.596 613.262 465.504 611.479 465.5C609.7 465.496 607.664 466.575 604.772 469.468L469.987 604.29C466.371 607.907 464.894 610.74 464.917 613.346C464.941 615.962 466.479 618.84 470.171 622.533C474.983 627.346 479.789 632.163 484.594 636.98C494.202 646.611 503.807 656.239 513.455 665.829C515.023 667.374 516.466 669.105 517.241 671.127C518.041 673.215 518.088 675.507 517.05 678.036C516.009 680.571 514.355 682.16 512.309 683.072C510.33 683.954 508.077 684.161 505.874 684.161H505.868C494.613 684.115 483.313 684.115 472.059 684.161C467.77 684.183 464.971 685.164 463.225 686.906C461.48 688.647 460.5 691.431 460.5 695.716V695.828V695.939V696.051V696.163V696.275V696.387V696.498V696.61V696.722V696.834V696.945V697.057V697.169V697.281V697.393V697.504V697.616V697.728V697.84V697.951V698.063V698.175V698.287V698.399V698.51V698.622V698.734V698.846V698.957V699.069V699.181V699.293V699.405V699.516V699.628V699.74V699.852V699.963V700.075V700.187V700.299V700.41V700.522V700.634V700.746V700.858V700.969V701.081V701.193V701.305V701.416V701.528V701.64V701.752V701.864V701.975V702.087V702.199V702.311V702.422V702.534V702.646V702.758V702.87V702.981V703.093V703.205V703.317V703.428V703.54V703.652V703.764V703.876V703.987V704.099V704.211V704.323V704.434V704.546V704.658V704.77V704.882V704.993V705.105V705.217V705.329V705.44V705.552V705.664V705.776V705.888V705.999V706.111V706.223V706.335V706.446V706.558V706.67V706.782V706.894V707.005V707.117V707.229V707.341V707.452V707.564V707.676V707.788V707.9V708.011V708.123V708.235V708.347V708.458V708.57V708.682V708.794V708.905V709.017V709.129V709.241V709.353V709.464V709.576V709.688V709.8V709.911V710.023V710.135V710.247V710.359V710.47V710.582V710.694V710.806V710.917V711.029V711.141V711.253V711.365V711.476V711.588V711.7V711.812V711.923V712.035V712.147V712.259V712.371V712.482V712.594V712.706V712.818V712.929V713.041V713.153V713.265V713.377V713.488V713.6V713.712V713.824V713.935V714.047V714.159V714.271V714.383V714.494V714.606V714.718V714.83V714.941V715.053V715.165V715.277V715.389V715.5V715.612V715.724V715.836V715.947V716.059V716.171V716.283V716.395V716.506V716.618V716.73V716.842V716.953V717.065V717.177V717.289V717.4V717.512V717.624V717.736V717.848V717.959V718.071V718.183V718.295V718.406V718.518V718.63V718.742V718.854V718.965V719.077V719.189V719.301V719.412V719.524V719.636V719.748V719.86V719.971V720.083V720.195V720.307V720.418V720.53V720.642V720.754V720.866V720.977V721.089V721.201V721.313V721.424V721.536V721.648V721.76V721.872V721.983V722.095V722.207V722.319V722.43V722.542V722.654V722.766V722.878V722.989V723.101V723.213V723.325V723.436V723.548V723.66V723.772V723.883V723.995V724.107V724.219V724.331V724.442V724.554V724.666V724.778V724.889V725.001V725.113V725.225V725.337V725.448V725.56V725.672V725.784V725.895V726.007V726.119V726.231V726.343V726.454V726.566V726.678V726.79V726.901V727.013V727.125V727.237V727.349V727.46V727.572V727.684V727.796V727.907V728.019V728.131V728.243V728.355V728.466V728.578V728.69V728.802V728.913V729.025V729.137V729.249V729.361V729.472V729.584V729.696V729.808V729.919V730.031V730.143V730.255V730.367V730.478V730.59V730.702V730.814V730.925V731.037V731.149V731.261V731.372V731.484V731.596V731.708V731.82V731.931V732.043V732.155V732.267V732.378V732.49V732.602V732.714V732.826V732.937V733.049V733.161V733.273V733.384V733.496V733.608V733.72V733.832V733.943V734.055V734.167V734.279V734.39V734.502V734.614V734.726V734.838V734.949V735.061V735.173V735.285V735.396V735.508V735.62V735.732V735.844V735.955V736.067V736.179V736.291V736.402V736.514V736.626V736.738V736.85V736.961V737.073V737.185V737.297V737.408V737.52V737.632V737.744V737.855V737.967V738.079V738.191V738.303V738.414V738.526V738.638V738.75V738.862V738.973V739.085V739.197V739.309V739.42V739.532V739.644V739.756V739.867V739.979V740.091V740.203V740.315V740.426V740.538V740.65V740.762V740.873V740.985V741.097V741.209V741.321V741.432V741.544V741.656V741.768V741.879V741.991V742.103V742.215V742.327V742.438V742.55V742.662V742.774V742.885V742.997V743.109V743.221V743.333V743.444V743.556V743.668V743.78V743.891V744.003V744.115V744.227V744.339V744.45V744.562V744.674V744.786V744.897V745.009V745.121V745.233V745.345V745.456V745.568V745.68V745.792V745.903V746.015V746.127V746.239V746.35V746.462V746.574V746.686V746.798V746.909V747.021V747.133V747.245V747.356V747.468V747.58V747.692V747.804V747.915V748.027V748.139V748.251V748.362V748.474V748.586V748.698V748.81V748.921V749.033V749.145V749.257V749.368V749.48V749.592V749.704V749.816V749.927V750.039V750.151V750.263V750.374V750.486V750.598V750.71V750.822V750.933V751.045V751.157V751.269V751.38V751.492V751.604V751.716V751.828V751.939V752.051V752.163V752.275V752.386V752.498V752.61V752.722V752.833V752.945C460.5 757.293 461.454 760.054 463.174 761.756C464.898 763.462 467.697 764.408 472.097 764.408H472.207H472.317H472.427H472.536H472.646H472.756H472.866H472.976H473.086H473.196H473.306H473.415H473.525H473.635H473.745H473.855H473.965H474.075H474.184H474.294H474.404H474.514H474.624H474.734H474.844H474.953H475.063H475.173H475.283H475.393H475.503H475.613H475.722H475.832H475.942H476.052H476.162H476.272H476.382H476.491H476.601H476.711H476.821H476.931H477.041H477.151H477.26H477.37H477.48H477.59H477.7H477.81H477.92H478.029H478.139H478.249H478.359H478.469H478.579H478.689H478.799H478.908H479.018H479.128H479.238H479.348H479.458H479.568H479.677H479.787H479.897H480.007H480.117H480.227H480.337H480.446H480.556H480.666H480.776H480.886H480.996H481.106H481.215H481.325H481.435H481.545H481.655H481.765H481.875H481.984H482.094H482.204H482.314H482.424H482.534H482.644H482.753H482.863H482.973H483.083H483.193H483.303H483.413H483.522H483.632H483.742H483.852H483.962H484.072H484.182H484.292H484.401H484.511H484.621H484.731H484.841H484.951H485.061H485.17H485.28H485.39H485.5H485.61H485.72H485.83H485.939H486.049H486.159H486.269H486.379H486.489H486.599H486.708H486.818H486.928H487.038H487.148H487.258H487.368H487.477H487.587H487.697H487.807H487.917H488.027H488.137H488.246H488.356H488.466H488.576H488.686H488.796H488.906H489.015H489.125H489.235H489.345H489.455H489.565H489.675H489.785H489.894H490.004H490.114H490.224H490.334H490.444H490.554H490.663H490.773H490.883H490.993H491.103H491.213H491.323H491.432H491.542H491.652H491.762H491.872H491.982H492.092H492.201H492.311H492.421H492.531H492.641H492.751H492.861H492.97H493.08H493.19H493.3H493.41H493.52H493.63H493.739H493.849H493.959H494.069H494.179H494.289H494.399H494.508H494.618H494.728H494.838H494.948H495.058H495.168H495.278H495.387H495.497H495.607H495.717H495.827H495.937H496.047H496.156H496.266H496.376H496.486H496.596H496.706H496.816H496.925H497.035H497.145H497.255H497.365H497.475H497.585H497.694H497.804H497.914H498.024H498.134H498.244H498.354H498.463H498.573H498.683H498.793H498.903H499.013H499.123H499.232H499.342H499.452H499.562H499.672H499.782H499.892H500.001H500.111H500.221H500.331H500.441H500.551H500.661H500.771H500.88H500.99H501.1H501.21H501.32H501.43H501.54H501.649H501.759H501.869H501.979H502.089H502.199H502.309H502.418H502.528H502.638H502.748H502.858H502.968H503.078H503.187H503.297H503.407H503.517H503.627H503.737H503.847H503.956H504.066H504.176H504.286H504.396H504.506H504.616H504.725H504.835H504.945H505.055H505.165H505.275H505.385H505.494H505.604H505.714H505.824H505.934H506.044H506.154H506.264H506.373H506.483H506.593H506.703H506.813H506.923H507.033H507.142H507.252H507.362H507.472H507.582H507.692H507.802H507.911H508.021H508.131H508.241H508.351H508.461H508.571H508.68H508.79H508.9H509.01H509.12H509.23H509.34H509.449H509.559H509.669H509.779H509.889H509.999H510.109H510.218H510.328H510.438H510.548H510.658H510.768H510.878H510.987H511.097H511.207H511.317H511.427H511.537H511.647H511.757H511.866H511.976H512.086H512.196H512.306H512.416H512.526H512.635H512.745H512.855H512.965H513.075H513.185H513.295H513.404H513.514H513.624H513.734H513.844H513.954H514.064H514.173H514.283H514.393H514.503H514.613H514.723H514.833H514.942H515.052H515.162H515.272H515.382H515.492H515.602H515.711H515.821H515.931H516.041H516.151H516.261H516.371H516.48H516.59H516.7H516.81H516.92H517.03H517.14H517.25H517.359H517.469H517.579H517.689H517.799H517.909H518.019H518.128H518.238H518.348H518.458H518.568H518.678H518.788H518.897H519.007H519.117H519.227H519.337H519.447H519.557H519.666H519.776H519.886H519.996H520.106H520.216H520.326H520.435H520.545H520.655H520.765H520.875H520.985H521.095H521.204H521.314H521.424H521.534H521.644H521.754H521.864H521.973H522.083H522.193H522.303H522.413H522.523H522.633H522.743H522.852H522.962H523.072H523.182H523.292H523.402H523.512H523.621H523.731H523.841H523.951H524.061H524.171H524.281H524.39H524.5H524.61H524.72H524.83H524.94H525.05H525.159H525.269H525.379H525.489H525.599H525.709H525.819H525.928H526.038H526.148H526.258H526.368H526.478H526.588H526.697H526.807H526.917H527.027H527.137H527.247H527.357H527.466H527.576H527.686H527.796H527.906H528.016H528.126H528.236L528.339 764.408C528.341 764.408 528.343 764.408 528.345 764.408C533.257 764.385 536.273 763.404 538.103 761.559C539.935 759.712 540.907 756.669 540.907 751.704V751.698C540.953 740.436 540.999 729.138 540.908 717.888M546.539 707.948C546.54 707.948 546.541 707.948 546.541 707.947L547.141 709.322L546.537 707.949C546.538 707.949 546.538 707.948 546.539 707.948ZM546.539 707.948C544.441 708.864 542.98 710.275 542.075 712.056C541.188 713.803 540.883 715.813 540.908 717.888M540.908 717.888C540.908 717.889 540.908 717.889 540.908 717.89L542.407 717.872L540.907 717.884C540.907 717.886 540.908 717.887 540.908 717.888Z" stroke="url(#paint5_linear_201_409)" stroke-width="3"/>
</g>
<path d="M543.454 639.528C543.454 641.388 542.958 642.69 541.966 643.434C541.015 644.178 539.734 644.55 538.122 644.55C536.51 644.55 535.228 644.178 534.278 643.434C533.327 642.69 532.852 641.388 532.852 639.528C532.852 637.709 533.327 636.469 534.278 635.808C535.228 635.147 536.51 634.816 538.122 634.816C539.734 634.816 541.015 635.147 541.966 635.808C542.958 636.469 543.454 637.709 543.454 639.528ZM539.796 620.68C539.796 619.729 539.692 619.089 539.486 618.758C539.32 618.386 538.99 618.2 538.494 618.2C538.08 618.2 537.77 618.324 537.564 618.572C537.398 618.82 537.316 619.109 537.316 619.44C537.316 619.895 537.46 620.308 537.75 620.68C538.039 621.052 538.514 621.569 539.176 622.23C539.92 622.933 540.498 623.573 540.912 624.152C541.366 624.689 541.718 625.309 541.966 626.012C542.214 626.715 542.379 627.603 542.462 628.678C542.544 629.711 542.586 631.075 542.586 632.77H533.596C533.596 631.695 533.554 630.827 533.472 630.166C533.43 629.505 533.306 628.947 533.1 628.492C532.934 628.037 532.686 627.624 532.356 627.252C532.025 626.88 531.612 626.446 531.116 625.95C530.082 624.917 529.194 623.801 528.45 622.602C527.747 621.403 527.396 619.936 527.396 618.2C527.396 616.836 527.602 615.575 528.016 614.418C528.47 613.261 529.152 612.248 530.062 611.38C530.971 610.512 532.128 609.83 533.534 609.334C534.939 608.838 536.613 608.59 538.556 608.59C540.25 608.59 541.759 608.797 543.082 609.21C544.404 609.623 545.5 610.305 546.368 611.256C547.277 612.207 547.959 613.447 548.414 614.976C548.868 616.505 549.096 618.407 549.096 620.68H539.796ZM567.1 655.4C562.429 655.4 558.771 654.015 556.126 651.246C553.522 648.518 552.22 644.736 552.22 639.9V628.12H562.45V640.21C562.45 641.615 562.863 642.69 563.69 643.434C564.517 644.178 565.86 644.55 567.72 644.55H569.58C571.605 644.55 573.031 644.137 573.858 643.31C574.726 642.483 575.16 641.45 575.16 640.21V622.85H585.39V639.59C585.39 641.739 585.018 643.765 584.274 645.666C583.571 647.609 582.559 649.303 581.236 650.75C579.913 652.197 578.281 653.333 576.338 654.16C574.437 654.987 572.287 655.4 569.89 655.4H567.1ZM572.06 624.71H561.83V616.96H572.06V624.71ZM612.048 641.76C612.048 644.24 611.696 646.431 610.994 648.332C610.291 650.233 609.299 651.804 608.018 653.044C606.778 654.325 605.29 655.297 603.554 655.958C601.818 656.619 599.896 656.95 597.788 656.95H589.418L588.798 646.1H598.408C599.648 646.1 600.516 645.852 601.012 645.356C601.549 644.86 601.818 644.075 601.818 643H600.888C598.573 643 596.672 642.752 595.184 642.256C593.696 641.719 592.518 640.975 591.65 640.024C590.823 639.032 590.244 637.854 589.914 636.49C589.583 635.085 589.418 633.535 589.418 631.84C589.418 630.228 589.666 628.699 590.162 627.252C590.658 625.764 591.381 624.462 592.332 623.346C593.282 622.23 594.44 621.362 595.804 620.742C597.209 620.081 598.8 619.75 600.578 619.75C602.148 619.75 603.616 619.977 604.98 620.432C606.385 620.887 607.604 621.61 608.638 622.602C609.671 623.594 610.498 624.875 611.118 626.446C611.738 628.017 612.048 629.918 612.048 632.15V641.76ZM611.428 632.15H615.148V643H611.428V632.15ZM599.028 631.158C599.028 631.737 599.131 632.212 599.338 632.584C599.586 632.915 600.102 633.08 600.888 633.08H602.438V631.53C602.438 630.083 601.859 629.36 600.702 629.36C599.586 629.36 599.028 629.959 599.028 631.158ZM614.532 637.73C614.532 636.407 614.553 635.374 614.594 634.63C614.636 633.886 614.698 633.328 614.78 632.956C614.822 632.584 614.884 632.357 614.966 632.274C615.008 632.191 615.07 632.15 615.152 632.15C615.4 632.15 615.586 632.729 615.71 633.886C615.834 635.002 615.896 636.242 615.896 637.606C615.896 638.929 615.834 640.169 615.71 641.326C615.586 642.442 615.4 643 615.152 643C615.07 643 615.008 642.959 614.966 642.876C614.884 642.793 614.822 642.587 614.78 642.256C614.698 641.884 614.636 641.347 614.594 640.644C614.553 639.941 614.532 638.97 614.532 637.73ZM615.152 632.15H618.562C618.81 632.15 619.017 632.067 619.182 631.902C619.389 631.695 619.492 631.468 619.492 631.22V622.85H629.722V632.15C629.722 633.927 629.454 635.498 628.916 636.862C628.42 638.226 627.718 639.363 626.808 640.272C625.899 641.181 624.824 641.863 623.584 642.318C622.344 642.773 620.98 643 619.492 643H615.152V632.15ZM629.722 619.75H619.492V612H629.722V619.75ZM646.448 632.15V643H643.658C641.715 643 640.062 642.711 638.698 642.132C637.375 641.553 636.3 640.768 635.474 639.776C634.647 638.784 634.048 637.647 633.676 636.366C633.304 635.043 633.118 633.638 633.118 632.15V608.59H643.348V631.22C643.348 631.468 643.43 631.695 643.596 631.902C643.802 632.067 644.03 632.15 644.278 632.15H646.448ZM645.835 637.73C645.835 636.407 645.856 635.374 645.897 634.63C645.938 633.886 646 633.328 646.083 632.956C646.124 632.584 646.186 632.357 646.269 632.274C646.31 632.191 646.372 632.15 646.455 632.15C646.703 632.15 646.889 632.729 647.013 633.886C647.137 635.002 647.199 636.242 647.199 637.606C647.199 638.929 647.137 640.169 647.013 641.326C646.889 642.442 646.703 643 646.455 643C646.372 643 646.31 642.959 646.269 642.876C646.186 642.793 646.124 642.587 646.083 642.256C646 641.884 645.938 641.347 645.897 640.644C645.856 639.941 645.835 638.97 645.835 637.73ZM646.455 643V632.15H657.615C658.235 632.15 658.545 631.902 658.545 631.406C658.545 631.075 658.338 630.703 657.925 630.29L647.695 620.06V612.62L669.705 604.56L672.185 614.79L661.335 618.82L665.675 623.16C666.667 624.152 667.473 625.082 668.093 625.95C668.754 626.777 669.271 627.583 669.643 628.368C670.015 629.112 670.263 629.877 670.387 630.662C670.552 631.406 670.635 632.212 670.635 633.08C670.635 634.857 670.366 636.387 669.829 637.668C669.292 638.908 668.548 639.921 667.597 640.706C666.646 641.491 665.53 642.07 664.249 642.442C662.968 642.814 661.583 643 660.095 643H646.455ZM681.434 608.59H691.664V643H681.434V608.59ZM706.21 640.52C706.21 642.628 705.859 644.612 705.156 646.472C704.453 648.332 703.461 649.965 702.18 651.37C700.899 652.817 699.369 653.953 697.592 654.78C695.815 655.607 693.831 656.02 691.64 656.02H685.44L684.51 645.17H690.4C692.425 645.17 693.851 644.757 694.678 643.93C695.546 643.103 695.98 642.07 695.98 640.83V622.85H706.21V640.52ZM706.21 631.22C706.21 631.468 706.293 631.695 706.458 631.902C706.665 632.067 706.892 632.15 707.14 632.15H709.31V643C707.781 643 706.313 642.897 704.908 642.69C703.544 642.442 702.325 641.925 701.25 641.14L706.21 631.22ZM708.683 637.73C708.683 636.407 708.703 635.374 708.745 634.63C708.786 633.886 708.848 633.328 708.931 632.956C708.972 632.584 709.034 632.357 709.117 632.274C709.158 632.191 709.22 632.15 709.303 632.15C709.551 632.15 709.737 632.729 709.861 633.886C709.985 635.002 710.047 636.242 710.047 637.606C710.047 638.929 709.985 640.169 709.861 641.326C709.737 642.442 709.551 643 709.303 643C709.22 643 709.158 642.959 709.117 642.876C709.034 642.793 708.972 642.587 708.931 642.256C708.848 641.884 708.786 641.347 708.745 640.644C708.703 639.941 708.683 638.97 708.683 637.73ZM712.403 628.43L713.333 618.2H727.283C728.357 618.2 729.411 618.345 730.445 618.634C731.519 618.923 732.532 619.585 733.483 620.618C734.433 621.61 735.343 623.077 736.211 625.02C737.12 626.921 737.967 629.505 738.753 632.77L727.283 639.28C726.043 639.983 724.885 640.582 723.811 641.078C722.777 641.533 721.723 641.905 720.649 642.194C719.574 642.483 718.458 642.69 717.301 642.814C716.143 642.938 714.821 643 713.333 643H709.303V632.15H713.643C714.593 632.15 715.523 632.15 716.433 632.15C717.342 632.109 718.293 632.005 719.285 631.84C720.318 631.675 721.393 631.427 722.509 631.096C723.666 630.765 724.947 630.29 726.353 629.67C726.063 628.843 725.443 628.43 724.493 628.43H712.403ZM726.663 663.15H718.603V655.4H726.663V663.15ZM730.693 653.85H714.573V646.1H730.693V653.85Z" fill="white"/>
<defs>
<filter id="filter0_b_201_409" x="417" y="422" width="389" height="386" filterUnits="userSpaceOnUse" color-interpolation-filters="sRGB">
<feFlood flood-opacity="0" result="BackgroundImageFix"/>
<feGaussianBlur in="BackgroundImageFix" stdDeviation="21"/>
<feComposite in2="SourceAlpha" operator="in" result="effect1_backgroundBlur_201_409"/>
<feBlend mode="normal" in="SourceGraphic" in2="effect1_backgroundBlur_201_409" result="shape"/>
</filter>
<radialGradient id="paint0_angular_201_409" cx="0" cy="0" r="1" gradientUnits="userSpaceOnUse" gradientTransform="translate(622.117 576.901) rotate(113.08) scale(183.694 703.214)">
<stop stop-color="#4606A0"/>
<stop offset="0.0876184" stop-color="#5614B3"/>
<stop offset="0.377633" stop-color="#8239E5"/>
<stop offset="0.39255" stop-color="#843BE8"/>
<stop offset="0.545521" stop-color="#994DFF"/>
<stop offset="0.929927" stop-color="#E3A4FF"/>
</radialGradient>
<linearGradient id="paint1_linear_201_409" x1="519.455" y1="-100.933" x2="1277.31" y2="500.436" gradientUnits="userSpaceOnUse">
<stop stop-color="#4606A0"/>
<stop offset="0.0745155" stop-color="#5614B3"/>
<stop offset="0.353335" stop-color="#8239E5"/>
<stop offset="0.515864" stop-color="#994DFF"/>
<stop offset="0.990113" stop-color="#E3A4FF"/>
</linearGradient>
<linearGradient id="paint2_linear_201_409" x1="7" y1="-571.917" x2="1659.65" y2="35.7306" gradientUnits="userSpaceOnUse">
<stop stop-color="#4606A0"/>
<stop offset="0.0745155" stop-color="#5614B3"/>
<stop offset="0.353335" stop-color="#8239E5"/>
<stop offset="0.515864" stop-color="#994DFF"/>
<stop offset="0.990113" stop-color="#E3A4FF"/>
</linearGradient>
<linearGradient id="paint3_linear_201_409" x1="1312.17" y1="-138.831" x2="1345.75" y2="1174.38" gradientUnits="userSpaceOnUse">
<stop stop-color="#4606A0"/>
<stop offset="0.0745155" stop-color="#5614B3"/>
<stop offset="0.353335" stop-color="#8239E5"/>
<stop offset="0.515864" stop-color="#994DFF"/>
<stop offset="0.990113" stop-color="#E3A4FF"/>
</linearGradient>
<radialGradient id="paint4_radial_201_409" cx="0" cy="0" r="1" gradientUnits="userSpaceOnUse" gradientTransform="translate(461.743 472.985) rotate(43.7912) scale(412.232 659.063)">
<stop stop-color="white" stop-opacity="0.4"/>
<stop offset="1" stop-color="white" stop-opacity="0"/>
</radialGradient>
<linearGradient id="paint5_linear_201_409" x1="464.648" y1="472.236" x2="816.387" y2="634.535" gradientUnits="userSpaceOnUse">
<stop stop-color="white" stop-opacity="0.9"/>
<stop offset="1" stop-color="white" stop-opacity="0"/>
</linearGradient>
</defs>
</svg>
