<svg width="453" height="456" viewBox="0 0 453 456" fill="none" xmlns="http://www.w3.org/2000/svg">
<mask id="mask0_259_21" style="mask-type:alpha" maskUnits="userSpaceOnUse" x="-3" y="0" width="456" height="456">
<path d="M188.365 346.572C253.279 367.971 323.25 332.695 344.649 267.781C366.048 202.866 330.772 132.896 265.858 111.496C200.944 90.0973 130.973 125.373 109.574 190.288" stroke="#F5F5F5" stroke-width="4.67017"/>
<path d="M450.491 228.246C450.491 352.645 349.645 453.491 225.246 453.491C100.846 453.491 0 352.645 0 228.246C0 103.846 100.846 3 225.246 3" stroke="#F5F5F5" stroke-width="4.67017"/>
<path d="M385.39 165.505C351.126 78.4585 252.785 35.6695 165.738 69.9331C78.6918 104.197 35.9028 202.538 70.1664 289.585C100.41 366.418 180.578 408.77 258.835 394.087" stroke="#F5F5F5" stroke-width="4.67017"/>
</mask>
<g mask="url(#mask0_259_21)">
<rect x="136" y="-9" width="341" height="515" fill="url(#paint0_linear_259_21)"/>
</g>
<circle cx="232.401" cy="226.449" r="70.4117" fill="url(#paint1_angular_259_21)"/>
<g filter="url(#filter0_b_259_21)">
<path d="M248.882 275.633C240.842 275.633 232.786 275.6 224.746 275.666C222.947 275.666 221.577 275.121 220.305 273.833C214.527 267.97 208.683 262.191 202.888 256.345C201.766 255.222 200.544 254.644 199.042 255.305C197.754 255.866 197.325 256.989 197.342 258.376C197.375 262.422 197.358 266.484 197.342 270.53C197.342 274.196 195.922 275.616 192.29 275.633C185.554 275.633 178.819 275.633 172.083 275.633C168.798 275.633 167.378 274.229 167.378 270.976C167.378 264.123 167.378 257.27 167.378 250.417C167.378 247.197 168.847 245.743 172.066 245.727C176.111 245.71 180.172 245.71 184.217 245.727C185.752 245.727 187.09 245.43 187.733 243.861C188.377 242.292 187.651 241.136 186.561 240.063C181.361 234.894 176.194 229.692 171.01 224.507C168.302 221.799 168.286 219.85 170.944 217.191C187.09 201.041 203.219 184.908 219.364 168.757C221.477 166.644 222.831 166.644 224.961 168.774C241.701 185.502 258.408 202.247 275.164 218.975C276.386 220.197 276.947 221.518 276.947 223.252C276.914 239.353 276.947 255.437 276.947 271.537C276.947 274.824 276.105 275.633 272.82 275.649C264.83 275.649 256.839 275.649 248.866 275.649L248.882 275.633Z" fill="url(#paint2_radial_259_21)"/>
<path d="M250.166 275.11L250.183 275.094H248.882C246.874 275.094 244.865 275.092 242.854 275.09C236.819 275.084 230.777 275.077 224.745 275.127C223.084 275.127 221.854 274.635 220.689 273.454C217.44 270.158 214.164 266.882 210.891 263.608C208.346 261.063 205.802 258.519 203.271 255.966L203.27 255.964C202.677 255.371 202.019 254.881 201.272 254.643C200.507 254.398 199.691 254.431 198.826 254.811M250.166 275.11L197.342 258.376L196.803 258.383C196.803 258.382 196.803 258.382 196.803 258.381C196.794 257.636 196.904 256.914 197.222 256.287C197.547 255.647 198.072 255.14 198.826 254.811M250.166 275.11H250.174H250.221H250.267H250.314H250.361H250.408H250.454H250.501H250.548H250.595H250.641H250.688H250.735H250.782H250.828H250.875H250.922H250.968H251.015H251.062H251.109H251.155H251.202H251.249H251.296H251.342H251.389H251.436H251.483H251.529H251.576H251.623H251.67H251.716H251.763H251.81H251.857H251.903H251.95H251.997H252.044H252.09H252.137H252.184H252.231H252.277H252.324H252.371H252.417H252.464H252.511H252.558H252.604H252.651H252.698H252.745H252.791H252.838H252.885H252.932H252.978H253.025H253.072H253.119H253.166H253.212H253.259H253.306H253.353H253.399H253.446H253.493H253.54H253.586H253.633H253.68H253.727H253.773H253.82H253.867H253.914H253.96H254.007H254.054H254.101H254.147H254.194H254.241H254.288H254.334H254.381H254.428H254.475H254.521H254.568H254.615H254.662H254.709H254.755H254.802H254.849H254.896H254.942H254.989H255.036H255.083H255.129H255.176H255.223H255.27H255.316H255.363H255.41H255.457H255.504H255.55H255.597H255.644H255.691H255.737H255.784H255.831H255.878H255.924H255.971H256.018H256.065H256.112H256.158H256.205H256.252H256.299H256.345H256.392H256.439H256.486H256.532H256.579H256.626H256.673H256.72H256.766H256.813H256.86H256.907H256.953H257H257.047H257.094H257.141H257.187H257.234H257.281H257.328H257.374H257.421H257.468H257.515H257.562H257.608H257.655H257.702H257.749H257.795H257.842H257.889H257.936H257.983H258.029H258.076H258.123H258.17H258.216H258.263H258.31H258.357H258.404H258.45H258.497H258.544H258.591H258.638H258.684H258.731H258.778H258.825H258.871H258.918H258.965H259.012H259.059H259.105H259.152H259.199H259.246H259.293H259.339H259.386H259.433H259.48H259.526H259.573H259.62H259.667H259.714H259.76H259.807H259.854H259.901H259.948H259.994H260.041H260.088H260.135H260.182H260.228H260.275H260.322H260.369H260.415H260.462H260.509H260.556H260.603H260.649H260.696H260.743H260.79H260.837H260.883H260.93H260.977H261.024H261.071H261.117H261.164H261.211H261.258H261.305H261.351H261.398H261.445H261.492H261.539H261.585H261.632H261.679H261.726H261.773H261.819H261.866H261.913H261.96H262.007H262.053H262.1H262.147H262.194H262.241H262.287H262.334H262.381H262.428H262.475H262.521H262.568H262.615H262.662H262.709H262.755H262.802H262.849H262.896H262.943H262.989H263.036H263.083H263.13H263.177H263.223H263.27H263.317H263.364H263.411H263.457H263.504H263.551H263.598H263.645H263.691H263.738H263.785H263.832H263.879H263.925H263.972H264.019H264.066H264.113H264.159H264.206H264.253H264.3H264.347H264.393H264.44H264.487H264.534H264.581H264.627H264.674H264.721H264.768H264.815H264.862H264.908H264.955H265.002H265.049H265.096H265.142H265.189H265.236H265.283H265.33H265.376H265.423H265.47H265.517H265.564H265.61H265.657H265.704H265.751H265.798H265.845H265.891H265.938H265.985H266.032H266.079H266.125H266.172H266.219H266.266H266.313H266.359H266.406H266.453H266.5H266.547H266.593H266.64H266.687H266.734H266.781H266.828H266.874H266.921H266.968H267.015H267.062H267.108H267.155H267.202H267.249H267.296H267.342H267.389H267.436H267.483H267.53H267.577H267.623H267.67H267.717H267.764H267.811H267.857H267.904H267.951H267.998H268.045H268.091H268.138H268.185H268.232H268.279H268.326H268.372H268.419H268.466H268.513H268.56H268.606H268.653H268.7H268.747H268.794H268.841H268.887H268.934H268.981H269.028H269.075H269.121H269.168H269.215H269.262H269.309H269.356H269.402H269.449H269.496H269.543H269.59H269.636H269.683H269.73H269.777H269.824H269.87H269.917H269.964H270.011H270.058H270.105H270.151H270.198H270.245H270.292H270.339H270.385H270.432H270.479H270.526H270.573H270.62H270.666H270.713H270.76H270.807H270.854H270.9H270.947H270.994H271.041H271.088H271.135H271.181H271.228H271.275H271.322H271.369H271.415H271.462H271.509H271.556H271.603H271.65H271.696H271.743H271.79H271.837H271.884H271.93H271.977H272.024H272.071H272.118H272.165H272.211H272.258H272.305H272.352H272.399H272.445H272.492H272.539H272.586H272.633H272.68H272.726H272.773L272.817 275.11C272.818 275.11 272.818 275.11 272.819 275.11C274.465 275.102 275.285 274.883 275.736 274.437C276.185 273.992 276.408 273.182 276.408 271.537C276.408 266.171 276.405 260.805 276.401 255.44C276.394 244.712 276.386 233.985 276.408 223.251C276.408 221.663 275.906 220.479 274.783 219.356C265.208 209.797 255.648 200.231 246.089 190.667C238.921 183.495 231.753 176.323 224.58 169.155L224.58 169.155C223.532 168.107 222.796 167.715 222.155 167.713C221.516 167.712 220.784 168.099 219.745 169.138L195.535 193.355L171.325 217.572C170.026 218.872 169.495 219.89 169.504 220.826C169.512 221.766 170.065 222.799 171.391 224.126C173.12 225.855 174.846 227.586 176.573 229.317C180.024 232.776 183.474 236.235 186.94 239.68C187.503 240.235 188.022 240.857 188.301 241.583C188.588 242.333 188.605 243.157 188.232 244.065C187.858 244.976 187.264 245.547 186.529 245.874C185.818 246.191 185.008 246.266 184.217 246.266H184.215C180.172 246.249 176.112 246.249 172.069 246.266L172.066 245.727L250.166 275.11ZM198.826 254.811C198.826 254.811 198.826 254.811 198.827 254.811L199.042 255.305L198.825 254.811C198.825 254.811 198.826 254.811 198.826 254.811ZM192.287 275.094L192.29 275.632V275.094H192.287ZM210.513 263.992C207.968 261.447 205.424 258.902 202.888 256.345L224.746 275.666C222.947 275.666 221.577 275.121 220.305 273.833C217.055 270.535 213.784 267.264 210.513 263.992Z" stroke="url(#paint3_linear_259_21)" stroke-width="1.07773"/>
</g>
<path d="M197.717 230.755C197.717 231.423 197.539 231.891 197.183 232.158C196.841 232.425 196.381 232.559 195.802 232.559C195.223 232.559 194.762 232.425 194.421 232.158C194.079 231.891 193.909 231.423 193.909 230.755C193.909 230.101 194.079 229.656 194.421 229.418C194.762 229.181 195.223 229.062 195.802 229.062C196.381 229.062 196.841 229.181 197.183 229.418C197.539 229.656 197.717 230.101 197.717 230.755ZM196.403 223.984C196.403 223.642 196.366 223.412 196.292 223.293C196.232 223.16 196.114 223.093 195.935 223.093C195.787 223.093 195.676 223.137 195.601 223.226C195.542 223.316 195.512 223.42 195.512 223.538C195.512 223.702 195.564 223.85 195.668 223.984C195.772 224.117 195.943 224.303 196.18 224.541C196.448 224.793 196.656 225.023 196.804 225.231C196.967 225.424 197.094 225.647 197.183 225.899C197.272 226.152 197.331 226.471 197.361 226.857C197.391 227.228 197.405 227.718 197.405 228.327H194.176C194.176 227.941 194.161 227.629 194.131 227.392C194.116 227.154 194.072 226.954 193.998 226.79C193.938 226.627 193.849 226.478 193.73 226.345C193.612 226.211 193.463 226.055 193.285 225.877C192.914 225.506 192.594 225.105 192.327 224.674C192.075 224.244 191.949 223.716 191.949 223.093C191.949 222.603 192.023 222.15 192.171 221.734C192.335 221.318 192.58 220.955 192.906 220.643C193.233 220.331 193.649 220.086 194.154 219.908C194.658 219.73 195.26 219.641 195.958 219.641C196.567 219.641 197.108 219.715 197.584 219.863C198.059 220.012 198.452 220.257 198.764 220.598C199.091 220.94 199.336 221.385 199.499 221.935C199.662 222.484 199.744 223.167 199.744 223.984H196.403ZM206.212 236.457C204.534 236.457 203.22 235.959 202.27 234.964C201.334 233.984 200.866 232.626 200.866 230.888V226.657H204.542V231C204.542 231.505 204.69 231.891 204.987 232.158C205.284 232.425 205.767 232.559 206.435 232.559H207.103C207.831 232.559 208.343 232.41 208.64 232.113C208.952 231.816 209.108 231.445 209.108 231V224.763H212.783V230.777C212.783 231.549 212.649 232.277 212.382 232.96C212.129 233.658 211.765 234.267 211.29 234.786C210.815 235.306 210.229 235.714 209.531 236.011C208.848 236.308 208.076 236.457 207.214 236.457H206.212ZM207.994 225.432H204.319V222.647H207.994V225.432ZM222.359 231.557C222.359 232.448 222.233 233.235 221.981 233.918C221.728 234.601 221.372 235.165 220.911 235.61C220.466 236.071 219.931 236.42 219.308 236.657C218.684 236.895 217.994 237.014 217.236 237.014H214.229L214.007 233.116H217.459C217.905 233.116 218.216 233.027 218.395 232.848C218.588 232.67 218.684 232.388 218.684 232.002H218.35C217.518 232.002 216.835 231.913 216.301 231.735C215.766 231.542 215.343 231.274 215.031 230.933C214.734 230.577 214.526 230.153 214.408 229.663C214.289 229.159 214.229 228.602 214.229 227.993C214.229 227.414 214.319 226.864 214.497 226.345C214.675 225.81 214.935 225.342 215.276 224.942C215.618 224.541 216.034 224.229 216.524 224.006C217.028 223.768 217.6 223.65 218.239 223.65C218.803 223.65 219.33 223.731 219.82 223.895C220.325 224.058 220.763 224.318 221.134 224.674C221.505 225.031 221.802 225.491 222.025 226.055C222.248 226.619 222.359 227.302 222.359 228.104V231.557ZM222.136 228.104H223.473V232.002H222.136V228.104ZM217.682 227.748C217.682 227.956 217.719 228.127 217.793 228.26C217.882 228.379 218.068 228.438 218.35 228.438H218.907V227.882C218.907 227.362 218.699 227.102 218.283 227.102C217.882 227.102 217.682 227.317 217.682 227.748ZM223.252 230.109C223.252 229.634 223.259 229.262 223.274 228.995C223.289 228.728 223.311 228.527 223.341 228.394C223.356 228.26 223.378 228.179 223.408 228.149C223.423 228.119 223.445 228.104 223.475 228.104C223.564 228.104 223.63 228.312 223.675 228.728C223.72 229.129 223.742 229.574 223.742 230.064C223.742 230.539 223.72 230.985 223.675 231.401C223.63 231.802 223.564 232.002 223.475 232.002C223.445 232.002 223.423 231.987 223.408 231.958C223.378 231.928 223.356 231.854 223.341 231.735C223.311 231.601 223.289 231.408 223.274 231.156C223.259 230.903 223.252 230.554 223.252 230.109ZM223.475 228.104H224.7C224.789 228.104 224.863 228.075 224.922 228.015C224.997 227.941 225.034 227.859 225.034 227.77V224.763H228.709V228.104C228.709 228.743 228.612 229.307 228.419 229.797C228.241 230.287 227.989 230.695 227.662 231.022C227.335 231.349 226.949 231.594 226.504 231.757C226.058 231.92 225.568 232.002 225.034 232.002H223.475V228.104ZM228.709 223.65H225.034V220.866H228.709V223.65ZM234.717 228.104V232.002H233.715C233.017 232.002 232.423 231.898 231.933 231.69C231.458 231.482 231.072 231.2 230.775 230.844C230.478 230.488 230.263 230.079 230.129 229.619C229.995 229.144 229.929 228.639 229.929 228.104V219.641H233.604V227.77C233.604 227.859 233.633 227.941 233.693 228.015C233.767 228.075 233.849 228.104 233.938 228.104H234.717ZM234.497 230.109C234.497 229.634 234.505 229.262 234.519 228.995C234.534 228.728 234.557 228.527 234.586 228.394C234.601 228.26 234.623 228.179 234.653 228.149C234.668 228.119 234.69 228.104 234.72 228.104C234.809 228.104 234.876 228.312 234.92 228.728C234.965 229.129 234.987 229.574 234.987 230.064C234.987 230.539 234.965 230.985 234.92 231.401C234.876 231.802 234.809 232.002 234.72 232.002C234.69 232.002 234.668 231.987 234.653 231.958C234.623 231.928 234.601 231.854 234.586 231.735C234.557 231.601 234.534 231.408 234.519 231.156C234.505 230.903 234.497 230.554 234.497 230.109ZM234.72 232.002V228.104H238.729C238.952 228.104 239.063 228.015 239.063 227.837C239.063 227.718 238.989 227.585 238.84 227.436L235.165 223.761V221.088L243.072 218.193L243.963 221.868L240.065 223.316L241.625 224.875C241.981 225.231 242.27 225.565 242.493 225.877C242.731 226.174 242.916 226.463 243.05 226.746C243.184 227.013 243.273 227.288 243.317 227.57C243.377 227.837 243.406 228.127 243.406 228.438C243.406 229.077 243.31 229.626 243.117 230.087C242.924 230.532 242.657 230.896 242.315 231.178C241.973 231.46 241.573 231.668 241.112 231.802C240.652 231.935 240.154 232.002 239.62 232.002H234.72ZM247.286 219.641H250.961V232.002H247.286V219.641ZM256.186 231.111C256.186 231.868 256.06 232.581 255.808 233.249C255.555 233.918 255.199 234.504 254.739 235.009C254.278 235.529 253.729 235.937 253.09 236.234C252.452 236.531 251.739 236.679 250.952 236.679H248.725L248.391 232.782H250.507C251.234 232.782 251.747 232.633 252.044 232.336C252.355 232.039 252.511 231.668 252.511 231.223V224.763H256.186V231.111ZM256.186 227.77C256.186 227.859 256.216 227.941 256.276 228.015C256.35 228.075 256.431 228.104 256.521 228.104H257.3V232.002C256.751 232.002 256.224 231.965 255.719 231.891C255.229 231.802 254.791 231.616 254.405 231.334L256.186 227.77ZM257.075 230.109C257.075 229.634 257.082 229.262 257.097 228.995C257.112 228.728 257.134 228.527 257.164 228.394C257.179 228.26 257.201 228.179 257.231 228.149C257.246 228.119 257.268 228.104 257.297 228.104C257.387 228.104 257.453 228.312 257.498 228.728C257.542 229.129 257.565 229.574 257.565 230.064C257.565 230.539 257.542 230.985 257.498 231.401C257.453 231.802 257.387 232.002 257.297 232.002C257.268 232.002 257.246 231.987 257.231 231.958C257.201 231.928 257.179 231.854 257.164 231.735C257.134 231.601 257.112 231.408 257.097 231.156C257.082 230.903 257.075 230.554 257.075 230.109ZM258.411 226.768L258.745 223.093H263.757C264.143 223.093 264.521 223.145 264.893 223.249C265.279 223.353 265.642 223.59 265.984 223.961C266.326 224.318 266.652 224.845 266.964 225.543C267.291 226.226 267.595 227.154 267.877 228.327L263.757 230.666C263.311 230.918 262.895 231.133 262.509 231.312C262.138 231.475 261.76 231.609 261.373 231.713C260.987 231.816 260.586 231.891 260.171 231.935C259.755 231.98 259.28 232.002 258.745 232.002H257.297V228.104H258.857C259.198 228.104 259.532 228.104 259.859 228.104C260.186 228.089 260.527 228.052 260.883 227.993C261.255 227.934 261.641 227.844 262.042 227.726C262.457 227.607 262.918 227.436 263.423 227.213C263.319 226.916 263.096 226.768 262.754 226.768H258.411ZM263.534 239.241H260.638V236.457H263.534V239.241ZM264.982 235.9H259.191V233.116H264.982V235.9Z" fill="white"/>
<defs>
<filter id="filter0_b_259_21" x="152.29" y="152.086" width="139.746" height="138.668" filterUnits="userSpaceOnUse" color-interpolation-filters="sRGB">
<feFlood flood-opacity="0" result="BackgroundImageFix"/>
<feGaussianBlur in="BackgroundImageFix" stdDeviation="7.54411"/>
<feComposite in2="SourceAlpha" operator="in" result="effect1_backgroundBlur_259_21"/>
<feBlend mode="normal" in="SourceGraphic" in2="effect1_backgroundBlur_259_21" result="shape"/>
</filter>
<linearGradient id="paint0_linear_259_21" x1="136" y1="-246.753" x2="617.613" y2="-129.502" gradientUnits="userSpaceOnUse">
<stop stop-color="#4606A0"/>
<stop offset="0.0745155" stop-color="#5614B3"/>
<stop offset="0.353335" stop-color="#8239E5"/>
<stop offset="0.515864" stop-color="#994DFF"/>
<stop offset="0.990113" stop-color="#E3A4FF"/>
</linearGradient>
<radialGradient id="paint1_angular_259_21" cx="0" cy="0" r="1" gradientUnits="userSpaceOnUse" gradientTransform="translate(225.977 207.733) rotate(113.08) scale(65.9908 252.625)">
<stop stop-color="#4606A0"/>
<stop offset="0.0876184" stop-color="#5614B3"/>
<stop offset="0.377633" stop-color="#8239E5"/>
<stop offset="0.39255" stop-color="#843BE8"/>
<stop offset="0.545521" stop-color="#994DFF"/>
<stop offset="0.929927" stop-color="#E3A4FF"/>
</radialGradient>
<radialGradient id="paint2_radial_259_21" cx="0" cy="0" r="1" gradientUnits="userSpaceOnUse" gradientTransform="translate(168.363 170.402) rotate(43.7912) scale(148.092 236.764)">
<stop stop-color="white" stop-opacity="0.4"/>
<stop offset="1" stop-color="white" stop-opacity="0"/>
</radialGradient>
<linearGradient id="paint3_linear_259_21" x1="169.407" y1="170.133" x2="295.767" y2="228.438" gradientUnits="userSpaceOnUse">
<stop stop-color="white" stop-opacity="0.9"/>
<stop offset="1" stop-color="white" stop-opacity="0"/>
</linearGradient>
</defs>
</svg>
