<svg width="749" height="749" viewBox="0 0 749 749" fill="none" xmlns="http://www.w3.org/2000/svg">
<g opacity="0.3">
<path d="M676.139 346.882C671.64 346.866 668.002 343.202 668.018 338.703C668.033 334.204 671.697 330.566 676.196 330.582C680.695 330.597 684.333 334.261 684.317 338.76C684.302 343.259 680.638 346.897 676.139 346.882Z" fill="#8239E5"/>
<path d="M676.044 371.322C671.545 371.306 667.907 367.642 667.922 363.143C667.938 358.644 671.602 355.006 676.101 355.022C680.6 355.037 684.238 358.701 684.222 363.2C684.207 367.699 680.543 371.337 676.044 371.322Z" fill="#8239E5"/>
<path d="M675.968 395.781C671.469 395.766 667.831 392.102 667.847 387.603C667.863 383.104 671.516 379.475 676.025 379.481C680.525 379.497 684.163 383.16 684.147 387.66C684.131 392.159 680.468 395.797 675.968 395.781Z" fill="#8239E5"/>
<path d="M675.873 420.221C671.374 420.205 667.736 416.542 667.752 412.043C667.768 407.544 671.431 403.906 675.93 403.921C680.429 403.937 684.067 407.6 684.052 412.1C684.036 416.599 680.373 420.237 675.873 420.221Z" fill="#8239E5"/>
<path d="M651.985 346.797C647.486 346.782 643.848 343.118 643.864 338.619C643.879 334.12 647.543 330.482 652.042 330.497C656.541 330.513 660.179 334.177 660.164 338.676C660.148 343.175 656.485 346.813 651.985 346.797Z" fill="#8239E5"/>
<path d="M651.9 371.247C647.401 371.231 643.763 367.568 643.779 363.069C643.794 358.569 647.458 354.931 651.957 354.947C656.456 354.963 660.094 358.626 660.078 363.126C660.063 367.625 656.399 371.263 651.9 371.247Z" fill="#8239E5"/>
<path d="M651.825 395.687C647.325 395.672 643.687 392.008 643.703 387.509C643.719 383.01 647.382 379.372 651.881 379.387C656.381 379.403 660.019 383.066 660.003 387.566C659.987 392.065 656.324 395.703 651.825 395.687Z" fill="#8239E5"/>
<path d="M651.739 420.137C647.24 420.121 643.602 416.458 643.618 411.959C643.634 407.459 647.297 403.821 651.796 403.837C656.295 403.853 659.933 407.516 659.918 412.015C659.902 416.515 656.239 420.153 651.739 420.137Z" fill="#8239E5"/>
<path d="M700.609 346.967C696.109 346.951 692.471 343.288 692.487 338.789C692.503 334.289 696.166 330.651 700.665 330.667C705.165 330.683 708.803 334.346 708.787 338.846C708.771 343.345 705.108 346.983 700.609 346.967Z" fill="#8239E5"/>
<path d="M700.523 371.417C696.024 371.401 692.386 367.738 692.402 363.238C692.417 358.739 696.081 355.101 700.58 355.117C705.079 355.133 708.717 358.796 708.702 363.295C708.686 367.794 705.023 371.432 700.523 371.417Z" fill="#8239E5"/>
<path d="M700.438 395.866C695.939 395.851 692.301 392.187 692.316 387.688C692.332 383.189 695.996 379.551 700.495 379.567C704.994 379.582 708.622 383.236 708.616 387.745C708.601 392.244 704.937 395.882 700.438 395.866Z" fill="#8239E5"/>
<path d="M700.353 420.297C695.853 420.281 692.216 416.617 692.231 412.118C692.247 407.619 695.91 403.981 700.41 403.997C704.909 404.012 708.547 407.676 708.531 412.175C708.515 416.674 704.852 420.312 700.353 420.297Z" fill="#8239E5"/>
<path d="M724.677 371.501C720.178 371.485 716.54 367.822 716.556 363.323C716.571 358.823 720.235 355.185 724.734 355.201C729.233 355.217 732.871 358.88 732.855 363.379C732.84 367.879 729.176 371.517 724.677 371.501Z" fill="#8239E5"/>
<path d="M724.582 395.941C720.083 395.925 716.445 392.262 716.46 387.763C716.476 383.263 720.14 379.625 724.639 379.641C729.138 379.657 732.776 383.32 732.76 387.819C732.745 392.319 729.081 395.957 724.582 395.941Z" fill="#8239E5"/>
<path d="M627.841 346.723C623.342 346.707 619.704 343.044 619.72 338.545C619.735 334.046 623.399 330.408 627.898 330.423C632.397 330.439 636.035 334.102 636.02 338.602C636.004 343.101 632.341 346.739 627.841 346.723Z" fill="#8239E5"/>
<path d="M627.756 371.153C623.257 371.138 619.619 367.474 619.635 362.975C619.65 358.476 623.314 354.838 627.813 354.853C632.312 354.869 635.94 358.523 635.934 363.032C635.919 367.531 632.255 371.169 627.756 371.153Z" fill="#8239E5"/>
<path d="M627.671 395.603C623.172 395.587 619.543 391.934 619.549 387.425C619.565 382.925 623.228 379.287 627.728 379.303C632.227 379.319 635.865 382.982 635.849 387.481C635.833 391.981 632.17 395.619 627.671 395.603Z" fill="#8239E5"/>
<path d="M627.585 420.053C623.086 420.037 619.448 416.374 619.464 411.874C619.48 407.375 623.143 403.737 627.642 403.753C632.142 403.769 635.78 407.432 635.764 411.931C635.748 416.43 632.085 420.068 627.585 420.053Z" fill="#8239E5"/>
<path d="M603.697 346.629C599.198 346.613 595.56 342.95 595.576 338.451C595.592 333.951 599.255 330.313 603.754 330.329C608.254 330.345 611.891 334.008 611.876 338.507C611.86 343.007 608.197 346.645 603.697 346.629Z" fill="#8239E5"/>
<path d="M603.612 371.079C599.113 371.063 595.475 367.399 595.491 362.9C595.506 358.401 599.17 354.763 603.669 354.779C608.168 354.794 611.806 358.458 611.79 362.957C611.775 367.456 608.111 371.094 603.612 371.079Z" fill="#8239E5"/>
<path d="M603.517 395.519C599.018 395.503 595.38 391.839 595.396 387.34C595.411 382.841 599.075 379.203 603.574 379.219C608.073 379.234 611.711 382.898 611.695 387.397C611.68 391.896 608.016 395.534 603.517 395.519Z" fill="#8239E5"/>
<path d="M603.432 419.968C598.932 419.953 595.295 416.289 595.31 411.79C595.326 407.291 598.989 403.653 603.489 403.668C607.988 403.684 611.626 407.347 611.61 411.847C611.594 416.346 607.931 419.984 603.432 419.968Z" fill="#8239E5"/>
<path d="M579.544 346.545C575.044 346.529 571.406 342.866 571.422 338.366C571.438 333.867 575.101 330.229 579.601 330.245C584.1 330.26 587.738 333.924 587.722 338.423C587.706 342.922 584.043 346.56 579.544 346.545Z" fill="#8239E5"/>
<path d="M579.458 370.994C574.959 370.979 571.321 367.315 571.337 362.816C571.353 358.317 575.016 354.679 579.515 354.694C584.014 354.71 587.652 358.374 587.637 362.873C587.621 367.372 583.958 371.01 579.458 370.994Z" fill="#8239E5"/>
<path d="M579.373 395.444C574.874 395.428 571.236 391.765 571.252 387.266C571.267 382.766 574.931 379.129 579.43 379.144C583.929 379.16 587.567 382.823 587.551 387.323C587.536 391.822 583.872 395.46 579.373 395.444Z" fill="#8239E5"/>
<path d="M579.288 419.894C574.789 419.878 571.151 416.215 571.166 411.716C571.182 407.216 574.845 403.578 579.345 403.594C583.844 403.61 587.482 407.273 587.466 411.773C587.45 416.272 583.787 419.91 579.288 419.894Z" fill="#8239E5"/>
<path d="M555.39 346.46C550.891 346.445 547.253 342.781 547.268 338.282C547.284 333.783 550.947 330.145 555.447 330.161C559.946 330.176 563.584 333.84 563.568 338.339C563.553 342.838 559.889 346.476 555.39 346.46Z" fill="#8239E5"/>
<path d="M555.314 370.9C550.815 370.885 547.177 367.221 547.193 362.722C547.209 358.223 550.872 354.585 555.371 354.6C559.871 354.616 563.508 358.28 563.493 362.779C563.477 367.278 559.814 370.916 555.314 370.9Z" fill="#8239E5"/>
<path d="M555.229 395.35C550.73 395.334 547.092 391.671 547.108 387.172C547.123 382.672 550.787 379.035 555.286 379.05C559.785 379.066 563.423 382.729 563.408 387.229C563.392 391.728 559.728 395.366 555.229 395.35Z" fill="#8239E5"/>
<path d="M555.144 419.8C550.645 419.784 547.007 416.121 547.022 411.622C547.038 407.122 550.702 403.484 555.201 403.5C559.7 403.516 563.338 407.179 563.322 411.678C563.307 416.178 559.643 419.816 555.144 419.8Z" fill="#8239E5"/>
<path d="M531.256 346.376C526.757 346.361 523.119 342.697 523.134 338.198C523.15 333.699 526.813 330.061 531.313 330.076C535.812 330.092 539.45 333.755 539.434 338.255C539.418 342.754 535.755 346.392 531.256 346.376Z" fill="#8239E5"/>
<path d="M531.161 370.816C526.661 370.8 523.023 367.137 523.039 362.638C523.055 358.139 526.718 354.501 531.218 354.516C535.717 354.532 539.355 358.195 539.339 362.695C539.323 367.194 535.66 370.832 531.161 370.816Z" fill="#8239E5"/>
<path d="M531.075 395.266C526.576 395.25 522.938 391.587 522.954 387.087C522.97 382.588 526.633 378.95 531.132 378.966C535.632 378.982 539.269 382.645 539.254 387.144C539.238 391.644 535.575 395.282 531.075 395.266Z" fill="#8239E5"/>
<path d="M530.99 419.716C526.491 419.7 522.853 416.037 522.869 411.537C522.884 407.038 526.548 403.4 531.047 403.416C535.546 403.432 539.184 407.095 539.168 411.594C539.153 416.094 535.489 419.731 530.99 419.716Z" fill="#8239E5"/>
<path d="M507.102 346.292C502.603 346.276 498.965 342.613 498.981 338.114C498.996 333.614 502.65 329.986 507.159 329.992C511.658 330.008 515.296 333.671 515.28 338.17C515.265 342.67 511.601 346.308 507.102 346.292Z" fill="#8239E5"/>
<path d="M507.017 370.742C502.518 370.726 498.88 367.063 498.895 362.564C498.911 358.064 502.574 354.426 507.074 354.442C511.573 354.458 515.211 358.121 515.195 362.62C515.179 367.12 511.516 370.758 507.017 370.742Z" fill="#8239E5"/>
<path d="M506.931 395.192C502.432 395.176 498.794 391.512 498.81 387.013C498.826 382.514 502.489 378.876 506.988 378.892C511.488 378.907 515.126 382.571 515.11 387.07C515.094 391.569 511.431 395.207 506.931 395.192Z" fill="#8239E5"/>
<path d="M506.836 419.632C502.337 419.616 498.699 415.952 498.715 411.453C498.731 406.954 502.394 403.316 506.893 403.332C511.392 403.347 515.03 407.011 515.015 411.51C514.999 416.009 511.336 419.647 506.836 419.632Z" fill="#8239E5"/>
<path d="M482.948 346.208C478.449 346.192 474.811 342.529 474.827 338.029C474.842 333.53 478.506 329.892 483.005 329.908C487.504 329.924 491.142 333.587 491.127 338.086C491.111 342.585 487.448 346.223 482.948 346.208Z" fill="#8239E5"/>
<path d="M482.863 370.657C478.364 370.642 474.726 366.978 474.741 362.479C474.757 357.98 478.411 354.352 482.92 354.358C487.419 354.373 491.057 358.037 491.041 362.536C491.026 367.035 487.362 370.673 482.863 370.657Z" fill="#8239E5"/>
<path d="M482.788 395.097C478.288 395.082 474.65 391.418 474.666 386.919C474.682 382.42 478.345 378.782 482.844 378.798C487.344 378.813 490.982 382.477 490.966 386.976C490.95 391.475 487.287 395.113 482.788 395.097Z" fill="#8239E5"/>
<path d="M482.702 419.547C478.203 419.532 474.565 415.868 474.581 411.369C474.597 406.87 478.25 403.242 482.759 403.247C487.258 403.263 490.896 406.927 490.881 411.426C490.865 415.925 487.202 419.563 482.702 419.547Z" fill="#8239E5"/>
<path d="M458.804 346.114C454.305 346.098 450.667 342.435 450.683 337.935C450.699 333.436 454.362 329.798 458.861 329.814C463.36 329.83 466.998 333.493 466.983 337.992C466.967 342.491 463.304 346.129 458.804 346.114Z" fill="#8239E5"/>
<path d="M458.719 370.563C454.22 370.548 450.582 366.884 450.598 362.385C450.613 357.886 454.277 354.248 458.776 354.264C463.275 354.279 466.913 357.943 466.897 362.442C466.882 366.941 463.218 370.579 458.719 370.563Z" fill="#8239E5"/>
<path d="M458.634 395.013C454.135 394.998 450.497 391.334 450.512 386.835C450.528 382.336 454.181 378.708 458.691 378.714C463.19 378.729 466.828 382.393 466.812 386.892C466.796 391.391 463.133 395.029 458.634 395.013Z" fill="#8239E5"/>
<path d="M458.549 419.463C454.049 419.447 450.411 415.784 450.427 411.285C450.443 406.786 454.106 403.148 458.605 403.163C463.105 403.179 466.743 406.842 466.727 411.342C466.711 415.841 463.048 419.479 458.549 419.463Z" fill="#8239E5"/>
<path d="M434.66 346.039C430.161 346.024 426.523 342.36 426.539 337.861C426.555 333.362 430.218 329.724 434.717 329.739C439.216 329.755 442.854 333.419 442.839 337.918C442.823 342.417 439.16 346.055 434.66 346.039Z" fill="#8239E5"/>
<path d="M434.575 370.489C430.076 370.473 426.438 366.81 426.454 362.311C426.469 357.811 430.133 354.173 434.632 354.189C439.131 354.205 442.769 357.868 442.753 362.367C442.738 366.867 439.074 370.505 434.575 370.489Z" fill="#8239E5"/>
<path d="M434.48 394.929C429.981 394.913 426.353 391.26 426.359 386.751C426.374 382.251 430.028 378.623 434.537 378.629C439.036 378.645 442.674 382.308 442.658 386.807C442.643 391.307 438.979 394.945 434.48 394.929Z" fill="#8239E5"/>
<path d="M434.395 419.379C429.895 419.363 426.257 415.7 426.273 411.2C426.289 406.701 429.952 403.063 434.452 403.079C438.951 403.094 442.589 406.758 442.573 411.257C442.557 415.756 438.894 419.394 434.395 419.379Z" fill="#8239E5"/>
<path d="M410.507 345.955C406.007 345.939 402.369 342.276 402.385 337.777C402.401 333.277 406.064 329.639 410.563 329.655C415.063 329.671 418.701 333.334 418.685 337.834C418.669 342.333 415.006 345.971 410.507 345.955Z" fill="#8239E5"/>
<path d="M410.431 370.395C405.932 370.379 402.294 366.716 402.31 362.217C402.325 357.717 405.979 354.089 410.488 354.095C414.987 354.111 418.625 357.774 418.61 362.273C418.594 366.773 414.931 370.411 410.431 370.395Z" fill="#8239E5"/>
<path d="M410.346 394.845C405.847 394.829 402.219 391.175 402.224 386.666C402.24 382.167 405.904 378.529 410.403 378.545C414.902 378.561 418.54 382.224 418.524 386.723C418.509 391.222 414.845 394.86 410.346 394.845Z" fill="#8239E5"/>
<path d="M410.261 419.295C405.761 419.279 402.123 415.616 402.139 411.116C402.155 406.617 405.818 402.979 410.318 402.995C414.817 403.01 418.455 406.674 418.439 411.173C418.423 415.672 414.76 419.31 410.261 419.295Z" fill="#8239E5"/>
<path d="M386.373 345.871C381.873 345.855 378.235 342.192 378.251 337.692C378.267 333.193 381.93 329.555 386.429 329.571C390.929 329.587 394.567 333.25 394.551 337.749C394.535 342.249 390.872 345.887 386.373 345.871Z" fill="#8239E5"/>
<path d="M386.277 370.311C381.778 370.295 378.14 366.632 378.156 362.132C378.172 357.633 381.835 353.995 386.334 354.011C390.834 354.027 394.472 357.69 394.456 362.189C394.44 366.688 390.777 370.326 386.277 370.311Z" fill="#8239E5"/>
<path d="M386.192 394.76C381.693 394.745 378.055 391.081 378.071 386.582C378.086 382.083 381.75 378.445 386.249 378.461C390.748 378.476 394.386 382.14 394.371 386.639C394.355 391.138 390.691 394.776 386.192 394.76Z" fill="#8239E5"/>
<path d="M386.107 419.21C381.608 419.194 377.97 415.531 377.985 411.032C378.001 406.533 381.665 402.895 386.164 402.91C390.663 402.926 394.301 406.589 394.285 411.089C394.27 415.588 390.606 419.226 386.107 419.21Z" fill="#8239E5"/>
<path d="M362.219 345.787C357.72 345.771 354.082 342.107 354.097 337.608C354.113 333.109 357.776 329.471 362.276 329.487C366.775 329.502 370.413 333.166 370.397 337.665C370.381 342.164 366.718 345.802 362.219 345.787Z" fill="#8239E5"/>
<path d="M362.134 370.236C357.634 370.221 353.996 366.557 354.012 362.058C354.028 357.559 357.691 353.921 362.19 353.936C366.69 353.952 370.328 357.616 370.312 362.115C370.296 366.614 366.633 370.252 362.134 370.236Z" fill="#8239E5"/>
<path d="M362.048 394.686C357.549 394.671 353.911 391.007 353.927 386.508C353.942 382.009 357.606 378.371 362.105 378.386C366.604 378.402 370.242 382.066 370.227 386.565C370.211 391.064 366.547 394.702 362.048 394.686Z" fill="#8239E5"/>
<path d="M361.953 419.126C357.454 419.11 353.816 415.447 353.832 410.948C353.847 406.448 357.511 402.81 362.01 402.826C366.509 402.842 370.147 406.505 370.132 411.004C370.116 415.504 366.452 419.142 361.953 419.126Z" fill="#8239E5"/>
<path d="M338.065 345.702C333.566 345.687 329.928 342.023 329.944 337.524C329.959 333.025 333.623 329.387 338.122 329.403C342.621 329.418 346.259 333.082 346.243 337.581C346.228 342.08 342.564 345.718 338.065 345.702Z" fill="#8239E5"/>
<path d="M337.99 370.142C333.49 370.127 329.852 366.463 329.868 361.964C329.884 357.465 333.537 353.837 338.046 353.842C342.546 353.858 346.184 357.522 346.168 362.021C346.152 366.52 342.489 370.158 337.99 370.142Z" fill="#8239E5"/>
<path d="M337.904 394.592C333.405 394.576 329.767 390.913 329.783 386.414C329.799 381.914 333.462 378.276 337.961 378.292C342.46 378.308 346.098 381.971 346.083 386.471C346.067 390.97 342.404 394.608 337.904 394.592Z" fill="#8239E5"/>
<path d="M337.819 419.042C333.32 419.026 329.682 415.363 329.698 410.864C329.713 406.364 333.377 402.726 337.876 402.742C342.375 402.758 346.013 406.421 345.997 410.92C345.982 415.42 342.318 419.058 337.819 419.042Z" fill="#8239E5"/>
<path d="M313.921 345.628C309.422 345.612 305.784 341.949 305.8 337.45C305.815 332.95 309.479 329.312 313.978 329.328C318.477 329.344 322.115 333.007 322.099 337.506C322.084 342.006 318.42 345.644 313.921 345.628Z" fill="#8239E5"/>
<path d="M313.836 370.058C309.337 370.042 305.699 366.379 305.714 361.88C305.73 357.38 309.393 353.743 313.893 353.758C318.392 353.774 322.03 357.437 322.014 361.937C321.999 366.436 318.335 370.074 313.836 370.058Z" fill="#8239E5"/>
<path d="M313.751 394.508C309.251 394.492 305.613 390.829 305.629 386.329C305.645 381.83 309.308 378.192 313.807 378.208C318.307 378.224 321.945 381.887 321.929 386.386C321.913 390.886 318.25 394.523 313.751 394.508Z" fill="#8239E5"/>
<path d="M313.665 418.957C309.166 418.942 305.528 415.278 305.544 410.779C305.559 406.28 309.223 402.642 313.722 402.658C318.221 402.673 321.859 406.337 321.844 410.836C321.828 415.335 318.164 418.973 313.665 418.957Z" fill="#8239E5"/>
<path d="M289.777 345.534C285.278 345.518 281.64 341.855 281.656 337.356C281.671 332.856 285.335 329.218 289.834 329.234C294.333 329.25 297.971 332.913 297.956 337.412C297.94 341.912 294.276 345.55 289.777 345.534Z" fill="#8239E5"/>
<path d="M289.692 369.984C285.193 369.968 281.555 366.304 281.57 361.805C281.586 357.306 285.25 353.668 289.749 353.684C294.248 353.699 297.886 357.363 297.87 361.862C297.855 366.361 294.191 369.999 289.692 369.984Z" fill="#8239E5"/>
<path d="M289.597 394.424C285.098 394.408 281.46 390.744 281.475 386.245C281.491 381.746 285.154 378.108 289.654 378.124C294.153 378.139 297.791 381.803 297.775 386.302C297.759 390.801 294.096 394.439 289.597 394.424Z" fill="#8239E5"/>
<path d="M289.511 418.873C285.012 418.858 281.374 415.194 281.39 410.695C281.406 406.196 285.069 402.558 289.568 402.573C294.068 402.589 297.706 406.253 297.69 410.752C297.674 415.251 294.011 418.889 289.511 418.873Z" fill="#8239E5"/>
<path d="M265.623 345.45C261.124 345.434 257.486 341.771 257.502 337.271C257.518 332.772 261.181 329.134 265.68 329.15C270.18 329.166 273.817 332.829 273.802 337.328C273.786 341.827 270.123 345.465 265.623 345.45Z" fill="#8239E5"/>
<path d="M265.538 369.899C261.039 369.884 257.401 366.22 257.417 361.721C257.432 357.222 261.096 353.584 265.595 353.6C270.094 353.615 273.732 357.279 273.716 361.778C273.701 366.277 270.037 369.915 265.538 369.899Z" fill="#8239E5"/>
<path d="M265.463 394.339C260.964 394.324 257.326 390.66 257.341 386.161C257.357 381.662 261.02 378.024 265.52 378.039C270.019 378.055 273.657 381.719 273.641 386.218C273.625 390.717 269.962 394.355 265.463 394.339Z" fill="#8239E5"/>
<path d="M265.377 418.789C260.878 418.774 257.24 415.11 257.256 410.611C257.272 406.112 260.935 402.474 265.434 402.489C269.934 402.505 273.572 406.169 273.556 410.668C273.54 415.167 269.877 418.805 265.377 418.789Z" fill="#8239E5"/>
<path d="M241.47 345.365C236.97 345.35 233.332 341.686 233.348 337.187C233.364 332.688 237.027 329.05 241.527 329.066C246.026 329.081 249.664 332.745 249.648 337.244C249.632 341.743 245.969 345.381 241.47 345.365Z" fill="#8239E5"/>
<path d="M241.394 369.805C236.895 369.79 233.257 366.126 233.273 361.627C233.288 357.128 236.952 353.49 241.451 353.506C245.95 353.521 249.588 357.185 249.573 361.684C249.557 366.183 245.894 369.821 241.394 369.805Z" fill="#8239E5"/>
<path d="M241.309 394.255C236.81 394.239 233.172 390.576 233.187 386.077C233.203 381.578 236.867 377.94 241.366 377.955C245.865 377.971 249.503 381.634 249.487 386.134C249.472 390.633 245.808 394.271 241.309 394.255Z" fill="#8239E5"/>
<path d="M241.224 418.705C236.724 418.689 233.086 415.026 233.102 410.527C233.118 406.027 236.781 402.389 241.281 402.405C245.78 402.421 249.418 406.084 249.402 410.584C249.386 415.083 245.723 418.721 241.224 418.705Z" fill="#8239E5"/>
<path d="M217.336 345.281C212.836 345.266 209.198 341.602 209.214 337.103C209.23 332.604 212.893 328.966 217.392 328.981C221.892 328.997 225.53 332.66 225.514 337.16C225.498 341.659 221.835 345.297 217.336 345.281Z" fill="#8239E5"/>
<path d="M217.24 369.721C212.741 369.705 209.103 366.042 209.119 361.543C209.135 357.044 212.798 353.406 217.297 353.421C221.797 353.437 225.435 357.1 225.419 361.6C225.403 366.099 221.74 369.737 217.24 369.721Z" fill="#8239E5"/>
<path d="M217.155 394.171C212.656 394.155 209.018 390.492 209.034 385.992C209.049 381.493 212.703 377.865 217.212 377.871C221.711 377.887 225.339 381.54 225.334 386.049C225.318 390.549 221.654 394.187 217.155 394.171Z" fill="#8239E5"/>
<path d="M217.07 418.621C212.571 418.605 208.933 414.941 208.948 410.442C208.964 405.943 212.628 402.305 217.127 402.321C221.626 402.336 225.264 406 225.248 410.499C225.233 414.998 221.569 418.636 217.07 418.621Z" fill="#8239E5"/>
<path d="M193.182 345.197C188.683 345.181 185.045 341.518 185.06 337.019C185.076 332.519 188.739 328.881 193.239 328.897C197.738 328.913 201.376 332.576 201.36 337.075C201.344 341.575 197.681 345.213 193.182 345.197Z" fill="#8239E5"/>
<path d="M193.106 369.637C188.607 369.621 184.969 365.958 184.985 361.459C185.001 356.959 188.654 353.331 193.163 353.337C197.662 353.353 201.3 357.016 201.285 361.515C201.269 366.015 197.606 369.653 193.106 369.637Z" fill="#8239E5"/>
<path d="M193.011 394.097C188.512 394.081 184.874 390.418 184.89 385.918C184.905 381.419 188.569 377.781 193.068 377.797C197.567 377.812 201.205 381.476 201.19 385.975C201.174 390.474 197.51 394.112 193.011 394.097Z" fill="#8239E5"/>
<path d="M192.936 418.537C188.437 418.521 184.799 414.857 184.814 410.358C184.83 405.859 188.493 402.221 192.993 402.237C197.492 402.252 201.13 405.916 201.114 410.415C201.098 414.914 197.435 418.552 192.936 418.537Z" fill="#8239E5"/>
<path d="M169.028 345.113C164.529 345.097 160.891 341.434 160.907 336.934C160.922 332.435 164.586 328.797 169.085 328.813C173.584 328.829 177.222 332.492 177.206 336.991C177.191 341.49 173.527 345.128 169.028 345.113Z" fill="#8239E5"/>
<path d="M168.953 369.553C164.453 369.537 160.815 365.874 160.831 361.374C160.847 356.875 164.51 353.237 169.01 353.253C173.509 353.269 177.147 356.932 177.131 361.431C177.115 365.93 173.452 369.568 168.953 369.553Z" fill="#8239E5"/>
<path d="M168.867 394.002C164.368 393.987 160.73 390.323 160.746 385.824C160.762 381.325 164.425 377.687 168.924 377.703C173.423 377.718 177.061 381.382 177.046 385.881C177.03 390.38 173.367 394.018 168.867 394.002Z" fill="#8239E5"/>
<path d="M168.782 418.452C164.283 418.437 160.645 414.773 160.661 410.274C160.676 405.775 164.34 402.137 168.839 402.153C173.338 402.168 176.976 405.832 176.96 410.331C176.945 414.83 173.281 418.468 168.782 418.452Z" fill="#8239E5"/>
<path d="M144.894 345.029C140.395 345.013 136.757 341.349 136.773 336.85C136.788 332.351 140.452 328.713 144.951 328.729C149.45 328.744 153.088 332.408 153.072 336.907C153.057 341.406 149.393 345.044 144.894 345.029Z" fill="#8239E5"/>
<path d="M144.809 369.478C140.309 369.463 136.672 365.799 136.687 361.3C136.703 356.801 140.366 353.163 144.866 353.178C149.365 353.194 152.993 356.848 152.987 361.357C152.971 365.856 149.308 369.494 144.809 369.478Z" fill="#8239E5"/>
<path d="M144.714 393.918C140.214 393.902 136.576 390.239 136.592 385.74C136.608 381.241 140.271 377.603 144.77 377.618C149.27 377.634 152.908 381.297 152.892 385.797C152.876 390.296 149.213 393.934 144.714 393.918Z" fill="#8239E5"/>
<path d="M144.628 418.368C140.129 418.352 136.491 414.689 136.507 410.19C136.522 405.69 140.186 402.052 144.685 402.068C149.184 402.084 152.822 405.747 152.807 410.246C152.791 414.746 149.128 418.384 144.628 418.368Z" fill="#8239E5"/>
<path d="M120.74 344.944C116.241 344.929 112.603 341.265 112.619 336.766C112.634 332.267 116.298 328.629 120.797 328.644C125.296 328.66 128.934 332.324 128.919 336.823C128.903 341.322 125.239 344.96 120.74 344.944Z" fill="#8239E5"/>
<path d="M120.655 369.394C116.156 369.378 112.518 365.715 112.533 361.216C112.549 356.716 116.213 353.078 120.712 353.094C125.211 353.11 128.839 356.763 128.833 361.273C128.818 365.772 125.154 369.41 120.655 369.394Z" fill="#8239E5"/>
<path d="M120.57 393.844C116.07 393.828 112.432 390.165 112.448 385.666C112.464 381.166 116.127 377.528 120.626 377.544C125.126 377.56 128.754 381.213 128.748 385.722C128.732 390.222 125.069 393.86 120.57 393.844Z" fill="#8239E5"/>
<path d="M120.484 418.274C115.985 418.258 112.347 414.595 112.363 410.096C112.379 405.596 116.042 401.958 120.541 401.974C125.04 401.99 128.678 405.653 128.663 410.152C128.647 414.652 124.984 418.29 120.484 418.274Z" fill="#8239E5"/>
<path d="M96.5864 344.86C92.0872 344.844 88.4492 341.181 88.4649 336.682C88.4806 332.182 92.1441 328.545 96.6433 328.56C101.143 328.576 104.78 332.239 104.765 336.739C104.749 341.238 101.086 344.876 96.5864 344.86Z" fill="#8239E5"/>
<path d="M96.511 369.3C92.0118 369.284 88.3738 365.621 88.3895 361.122C88.4052 356.622 92.0686 352.984 96.5679 353C101.067 353.016 104.705 356.679 104.689 361.179C104.674 365.678 101.01 369.316 96.511 369.3Z" fill="#8239E5"/>
<path d="M96.4258 393.75C91.9265 393.734 88.2886 390.071 88.3043 385.571C88.32 381.072 91.9834 377.434 96.4826 377.45C100.982 377.466 104.62 381.129 104.604 385.628C104.588 390.127 100.925 393.765 96.4258 393.75Z" fill="#8239E5"/>
<path d="M96.3405 418.2C91.8412 418.184 88.2033 414.521 88.219 410.021C88.2347 405.522 91.8981 401.884 96.3973 401.9C100.897 401.916 104.535 405.579 104.519 410.078C104.503 414.577 100.84 418.215 96.3405 418.2Z" fill="#8239E5"/>
<path d="M72.4524 344.776C67.9531 344.76 64.3152 341.097 64.3309 336.597C64.3466 332.098 68.01 328.46 72.5092 328.476C77.0085 328.492 80.6464 332.155 80.6307 336.654C80.615 341.154 76.9516 344.792 72.4524 344.776Z" fill="#8239E5"/>
<path d="M72.3572 369.216C67.858 369.2 64.22 365.537 64.2357 361.037C64.2514 356.538 67.9148 352.9 72.414 352.916C76.9133 352.932 80.5512 356.595 80.5355 361.094C80.5198 365.594 76.8564 369.231 72.3572 369.216Z" fill="#8239E5"/>
<path d="M72.2719 393.665C67.7727 393.65 64.1347 389.986 64.1504 385.487C64.1661 380.988 67.8196 377.36 72.3288 377.366C76.828 377.381 80.466 381.045 80.4503 385.544C80.4346 390.043 76.7711 393.681 72.2719 393.665Z" fill="#8239E5"/>
<path d="M72.1866 418.115C67.6874 418.1 64.0494 414.436 64.0651 409.937C64.0808 405.438 67.7442 401.8 72.2435 401.816C76.7427 401.831 80.3807 405.495 80.365 409.994C80.3493 414.493 76.6859 418.131 72.1866 418.115Z" fill="#8239E5"/>
<path d="M48.2986 344.692C43.7993 344.676 40.1614 341.012 40.1771 336.513C40.1928 332.014 43.8562 328.376 48.3554 328.392C52.8547 328.407 56.4926 332.071 56.4769 336.57C56.4613 341.069 52.7978 344.707 48.2986 344.692Z" fill="#8239E5"/>
<path d="M48.2133 369.141C43.714 369.126 40.0761 365.462 40.0918 360.963C40.1075 356.464 43.7709 352.826 48.2702 352.841C52.7694 352.857 56.4073 356.521 56.3916 361.02C56.376 365.519 52.7125 369.157 48.2133 369.141Z" fill="#8239E5"/>
<path d="M48.128 393.591C43.6288 393.576 39.9908 389.912 40.0065 385.413C40.0222 380.914 43.6857 377.276 48.1849 377.291C52.6841 377.307 56.3221 380.971 56.3064 385.47C56.2907 389.969 52.6273 393.607 48.128 393.591Z" fill="#8239E5"/>
<path d="M48.0427 418.041C43.5435 418.025 39.9055 414.362 39.9212 409.863C39.9369 405.363 43.6004 401.725 48.0996 401.741C52.5988 401.757 56.2368 405.42 56.2211 409.919C56.2054 414.419 52.542 418.057 48.0427 418.041Z" fill="#8239E5"/>
<path d="M24.0694 369.047C19.5702 369.032 15.9322 365.368 15.9479 360.869C15.9636 356.37 19.627 352.732 24.1263 352.747C28.6255 352.763 32.2635 356.427 32.2478 360.926C32.2321 365.425 28.5687 369.063 24.0694 369.047Z" fill="#8239E5"/>
<path d="M23.9841 393.497C19.4849 393.481 15.8469 389.818 15.8626 385.319C15.8783 380.819 19.5418 377.181 24.041 377.197C28.5402 377.213 32.1782 380.876 32.1625 385.376C32.1468 389.875 28.4834 393.513 23.9841 393.497Z" fill="#8239E5"/>
</g>
</svg>
