<svg width="584" height="578" viewBox="0 0 584 578" fill="none" xmlns="http://www.w3.org/2000/svg">
<g filter="url(#filter0_b_43_1271)">
<path d="M434.414 577.824C391.562 577.824 348.623 577.648 305.771 578C296.18 578 288.876 575.097 282.101 568.234C251.304 537.003 220.155 506.211 189.27 475.067C183.286 469.084 176.775 466.005 168.768 469.524C161.905 472.515 159.617 478.498 159.705 485.888C159.881 507.442 159.793 529.085 159.705 550.639C159.705 570.17 152.137 577.736 132.779 577.824C96.8788 577.824 60.9782 577.824 25.0776 577.824C7.56733 577.824 0 570.346 0 553.014C0 516.504 0 479.993 0 443.483C0 426.327 7.83135 418.585 24.9897 418.497C46.5476 418.409 68.1936 418.409 89.7515 418.497C97.9347 418.497 105.062 416.914 108.494 408.556C111.925 400.198 108.054 394.039 102.246 388.321C74.5289 360.784 46.9876 333.071 19.3582 305.446C4.92763 291.018 4.83957 280.637 19.0062 266.472C105.062 180.43 191.03 94.4767 277.085 8.43488C288.348 -2.82621 295.564 -2.82626 306.915 8.52281C396.138 97.6438 485.185 186.853 574.497 275.974C581.008 282.484 584 289.522 584 298.76C583.824 384.538 584 470.228 584 556.006C584 573.513 579.512 577.824 562.002 577.912C519.414 577.912 476.826 577.912 434.326 577.912L434.414 577.824Z" fill="url(#paint0_radial_43_1271)"/>
<path d="M305.766 576.5C337.915 576.236 370.116 576.269 402.284 576.302C412.999 576.313 423.71 576.324 434.414 576.324H438.037L437.949 576.412H438.062H438.311H438.56H438.809H439.058H439.307H439.556H439.805H440.054H440.303H440.552H440.802H441.051H441.3H441.549H441.798H442.047H442.296H442.545H442.794H443.043H443.292H443.542H443.791H444.04H444.289H444.538H444.787H445.036H445.285H445.534H445.783H446.033H446.282H446.531H446.78H447.029H447.278H447.527H447.776H448.026H448.275H448.524H448.773H449.022H449.271H449.52H449.769H450.019H450.268H450.517H450.766H451.015H451.264H451.513H451.763H452.012H452.261H452.51H452.759H453.008H453.258H453.507H453.756H454.005H454.254H454.503H454.753H455.002H455.251H455.5H455.749H455.999H456.248H456.497H456.746H456.995H457.244H457.494H457.743H457.992H458.241H458.49H458.74H458.989H459.238H459.487H459.736H459.986H460.235H460.484H460.733H460.983H461.232H461.481H461.73H461.979H462.229H462.478H462.727H462.976H463.225H463.475H463.724H463.973H464.222H464.472H464.721H464.97H465.219H465.469H465.718H465.967H466.216H466.466H466.715H466.964H467.213H467.463H467.712H467.961H468.21H468.46H468.709H468.958H469.207H469.457H469.706H469.955H470.205H470.454H470.703H470.952H471.202H471.451H471.7H471.949H472.199H472.448H472.697H472.947H473.196H473.445H473.695H473.944H474.193H474.442H474.692H474.941H475.19H475.44H475.689H475.938H476.188H476.437H476.686H476.935H477.185H477.434H477.683H477.933H478.182H478.431H478.681H478.93H479.179H479.429H479.678H479.927H480.177H480.426H480.675H480.925H481.174H481.423H481.673H481.922H482.171H482.421H482.67H482.919H483.169H483.418H483.667H483.917H484.166H484.415H484.665H484.914H485.163H485.413H485.662H485.911H486.161H486.41H486.66H486.909H487.158H487.408H487.657H487.906H488.156H488.405H488.654H488.904H489.153H489.403H489.652H489.901H490.151H490.4H490.649H490.899H491.148H491.398H491.647H491.896H492.146H492.395H492.644H492.894H493.143H493.393H493.642H493.891H494.141H494.39H494.64H494.889H495.138H495.388H495.637H495.887H496.136H496.385H496.635H496.884H497.134H497.383H497.632H497.882H498.131H498.381H498.63H498.879H499.129H499.378H499.628H499.877H500.127H500.376H500.625H500.875H501.124H501.374H501.623H501.872H502.122H502.371H502.621H502.87H503.12H503.369H503.618H503.868H504.117H504.367H504.616H504.866H505.115H505.365H505.614H505.863H506.113H506.362H506.612H506.861H507.111H507.36H507.609H507.859H508.108H508.358H508.607H508.857H509.106H509.356H509.605H509.855H510.104H510.353H510.603H510.852H511.102H511.351H511.601H511.85H512.1H512.349H512.599H512.848H513.097H513.347H513.596H513.846H514.095H514.345H514.594H514.844H515.093H515.343H515.592H515.842H516.091H516.341H516.59H516.84H517.089H517.339H517.588H517.837H518.087H518.336H518.586H518.835H519.085H519.334H519.584H519.833H520.083H520.332H520.582H520.831H521.081H521.33H521.58H521.829H522.079H522.328H522.578H522.827H523.077H523.326H523.576H523.825H524.075H524.324H524.574H524.823H525.073H525.322H525.572H525.821H526.071H526.32H526.57H526.819H527.069H527.318H527.568H527.817H528.067H528.316H528.566H528.815H529.065H529.314H529.564H529.813H530.063H530.312H530.562H530.811H531.061H531.31H531.56H531.809H532.059H532.308H532.558H532.807H533.057H533.306H533.556H533.805H534.055H534.304H534.554H534.803H535.053H535.302H535.552H535.801H536.051H536.3H536.55H536.799H537.049H537.298H537.548H537.797H538.047H538.297H538.546H538.796H539.045H539.295H539.544H539.794H540.043H540.293H540.542H540.792H541.041H541.291H541.54H541.79H542.039H542.289H542.538H542.788H543.037H543.287H543.537H543.786H544.036H544.285H544.535H544.784H545.034H545.283H545.533H545.782H546.032H546.281H546.531H546.78H547.03H547.279H547.529H547.779H548.028H548.278H548.527H548.777H549.026H549.276H549.525H549.775H550.024H550.274H550.523H550.773H551.023H551.272H551.522H551.771H552.021H552.27H552.52H552.769H553.019H553.268H553.518H553.767H554.017H554.266H554.516H554.766H555.015H555.265H555.514H555.764H556.013H556.263H556.512H556.762H557.011H557.261H557.51H557.76H558.01H558.259H558.509H558.758H559.008H559.257H559.507H559.756H560.006H560.255H560.505H560.754H561.004H561.254H561.503H561.753H561.995C570.762 576.368 575.675 575.234 578.512 572.425C581.342 569.624 582.5 564.764 582.5 556.006C582.5 527.412 582.48 498.827 582.461 470.244C582.422 413.087 582.383 355.941 582.5 298.757C582.499 289.928 579.672 283.27 573.437 277.036C522.398 226.105 471.443 175.144 420.493 124.188C382.289 85.9789 344.087 47.7727 305.855 9.58408L305.854 9.58356C300.226 3.95646 295.959 1.50951 291.963 1.50003C287.971 1.49056 283.729 3.91402 278.146 9.49563L20.0668 267.533C13.0671 274.532 9.90869 280.295 9.9582 285.847C10.0078 291.409 13.2798 297.248 20.4188 304.386C29.6314 313.597 38.833 322.816 48.0339 332.035C66.4312 350.469 84.8257 368.899 103.3 387.254C106.256 390.164 108.856 393.314 110.235 396.912C111.64 400.576 111.739 404.601 109.881 409.125C108.021 413.656 105.106 416.431 101.515 418.031C97.9906 419.601 93.9092 419.997 89.7515 419.997H89.7454C68.1915 419.909 46.5497 419.909 24.9958 419.997M305.766 576.5L24.9897 418.497M305.766 576.5C296.562 576.499 289.65 573.745 283.169 567.181C265.848 549.615 248.402 532.176 230.96 514.739C217.397 501.181 203.835 487.624 190.335 474.01L190.33 474.006C187.252 470.928 183.928 468.482 180.234 467.303C176.492 466.109 172.487 466.252 168.169 468.149L305.766 576.5ZM24.9958 419.997L24.9897 418.497M24.9958 419.997C24.9963 419.997 24.9969 419.997 24.9974 419.997L24.9897 418.497M24.9958 419.997C16.6091 420.04 10.8261 421.956 7.11962 425.652C3.41533 429.345 1.5 435.102 1.5 443.483V443.697V443.911V444.125V444.338V444.552V444.766V444.98V445.194V445.408V445.622V445.836V446.05V446.264V446.478V446.692V446.906V447.12V447.333V447.547V447.761V447.975V448.189V448.403V448.617V448.831V449.045V449.259V449.473V449.687V449.901V450.115V450.328V450.542V450.756V450.97V451.184V451.398V451.612V451.826V452.04V452.254V452.468V452.682V452.896V453.11V453.323V453.537V453.751V453.965V454.179V454.393V454.607V454.821V455.035V455.249V455.463V455.677V455.891V456.105V456.318V456.532V456.746V456.96V457.174V457.388V457.602V457.816V458.03V458.244V458.458V458.672V458.886V459.1V459.313V459.527V459.741V459.955V460.169V460.383V460.597V460.811V461.025V461.239V461.453V461.667V461.881V462.095V462.309V462.522V462.736V462.95V463.164V463.378V463.592V463.806V464.02V464.234V464.448V464.662V464.876V465.09V465.303V465.517V465.731V465.945V466.159V466.373V466.587V466.801V467.015V467.229V467.443V467.657V467.871V468.085V468.299V468.512V468.726V468.94V469.154V469.368V469.582V469.796V470.01V470.224V470.438V470.652V470.866V471.08V471.294V471.507V471.721V471.935V472.149V472.363V472.577V472.791V473.005V473.219V473.433V473.647V473.861V474.075V474.289V474.502V474.716V474.93V475.144V475.358V475.572V475.786V476V476.214V476.428V476.642V476.856V477.07V477.284V477.497V477.711V477.925V478.139V478.353V478.567V478.781V478.995V479.209V479.423V479.637V479.851V480.065V480.279V480.492V480.706V480.92V481.134V481.348V481.562V481.776V481.99V482.204V482.418V482.632V482.846V483.06V483.274V483.487V483.701V483.915V484.129V484.343V484.557V484.771V484.985V485.199V485.413V485.627V485.841V486.055V486.269V486.482V486.696V486.91V487.124V487.338V487.552V487.766V487.98V488.194V488.408V488.622V488.836V489.05V489.264V489.477V489.691V489.905V490.119V490.333V490.547V490.761V490.975V491.189V491.403V491.617V491.831V492.045V492.259V492.473V492.686V492.9V493.114V493.328V493.542V493.756V493.97V494.184V494.398V494.612V494.826V495.04V495.254V495.467V495.681V495.895V496.109V496.323V496.537V496.751V496.965V497.179V497.393V497.607V497.821V498.035V498.249V498.463V498.676V498.89V499.104V499.318V499.532V499.746V499.96V500.174V500.388V500.602V500.816V501.03V501.244V501.458V501.671V501.885V502.099V502.313V502.527V502.741V502.955V503.169V503.383V503.597V503.811V504.025V504.239V504.453V504.666V504.88V505.094V505.308V505.522V505.736V505.95V506.164V506.378V506.592V506.806V507.02V507.234V507.448V507.661V507.875V508.089V508.303V508.517V508.731V508.945V509.159V509.373V509.587V509.801V510.015V510.229V510.443V510.656V510.87V511.084V511.298V511.512V511.726V511.94V512.154V512.368V512.582V512.796V513.01V513.224V513.438V513.651V513.865V514.079V514.293V514.507V514.721V514.935V515.149V515.363V515.577V515.791V516.005V516.219V516.433V516.646V516.86V517.074V517.288V517.502V517.716V517.93V518.144V518.358V518.572V518.786V519V519.214V519.428V519.641V519.855V520.069V520.283V520.497V520.711V520.925V521.139V521.353V521.567V521.781V521.995V522.209V522.423V522.637V522.85V523.064V523.278V523.492V523.706V523.92V524.134V524.348V524.562V524.776V524.99V525.204V525.418V525.632V525.845V526.059V526.273V526.487V526.701V526.915V527.129V527.343V527.557V527.771V527.985V528.199V528.413V528.627V528.84V529.054V529.268V529.482V529.696V529.91V530.124V530.338V530.552V530.766V530.98V531.194V531.408V531.622V531.835V532.049V532.263V532.477V532.691V532.905V533.119V533.333V533.547V533.761V533.975V534.189V534.403V534.617V534.83V535.044V535.258V535.472V535.686V535.9V536.114V536.328V536.542V536.756V536.97V537.184V537.398V537.612V537.826V538.039V538.253V538.467V538.681V538.895V539.109V539.323V539.537V539.751V539.965V540.179V540.393V540.607V540.82V541.034V541.248V541.462V541.676V541.89V542.104V542.318V542.532V542.746V542.96V543.174V543.388V543.602V543.815V544.029V544.243V544.457V544.671V544.885V545.099V545.313V545.527V545.741V545.955V546.169V546.383V546.597V546.81V547.024V547.238V547.452V547.666V547.88V548.094V548.308V548.522V548.736V548.95V549.164V549.378V549.592V549.806V550.019V550.233V550.447V550.661V550.875V551.089V551.303V551.517V551.731V551.945V552.159V552.373V552.587V552.801V553.014C1.5 561.5 3.35735 567.222 7.02726 570.852C10.7009 574.485 16.4949 576.324 25.0776 576.324H25.288H25.4984H25.7087H25.9191H26.1294H26.3398H26.5501H26.7605H26.9708H27.1812H27.3916H27.6019H27.8123H28.0226H28.233H28.4433H28.6537H28.864H29.0744H29.2847H29.4951H29.7055H29.9158H30.1262H30.3365H30.5469H30.7572H30.9676H31.1779H31.3883H31.5986H31.809H32.0194H32.2297H32.4401H32.6504H32.8608H33.0711H33.2815H33.4918H33.7022H33.9125H34.1229H34.3333H34.5436H34.754H34.9643H35.1747H35.385H35.5954H35.8057H36.0161H36.2265H36.4368H36.6472H36.8575H37.0679H37.2782H37.4886H37.6989H37.9093H38.1196H38.33H38.5404H38.7507H38.9611H39.1714H39.3818H39.5921H39.8025H40.0128H40.2232H40.4335H40.6439H40.8543H41.0646H41.275H41.4853H41.6957H41.906H42.1164H42.3267H42.5371H42.7475H42.9578H43.1682H43.3785H43.5889H43.7992H44.0096H44.2199H44.4303H44.6406H44.851H45.0614H45.2717H45.4821H45.6924H45.9028H46.1131H46.3235H46.5338H46.7442H46.9546H47.1649H47.3753H47.5856H47.796H48.0063H48.2167H48.427H48.6374H48.8477H49.0581H49.2685H49.4788H49.6892H49.8995H50.1099H50.3202H50.5306H50.7409H50.9513H51.1616H51.372H51.5824H51.7927H52.0031H52.2134H52.4238H52.6341H52.8445H53.0548H53.2652H53.4756H53.6859H53.8963H54.1066H54.317H54.5273H54.7377H54.948H55.1584H55.3687H55.5791H55.7895H55.9998H56.2102H56.4205H56.6309H56.8412H57.0516H57.2619H57.4723H57.6827H57.893H58.1034H58.3137H58.5241H58.7344H58.9448H59.1551H59.3655H59.5758H59.7862H59.9966H60.2069H60.4173H60.6276H60.838H61.0483H61.2587H61.469H61.6794H61.8898H62.1001H62.3105H62.5208H62.7312H62.9415H63.1519H63.3622H63.5726H63.7829H63.9933H64.2037H64.414H64.6244H64.8347H65.0451H65.2554H65.4658H65.6761H65.8865H66.0968H66.3072H66.5176H66.7279H66.9383H67.1486H67.359H67.5693H67.7797H67.99H68.2004H68.4108H68.6211H68.8315H69.0418H69.2522H69.4625H69.6729H69.8832H70.0936H70.3039H70.5143H70.7247H70.935H71.1454H71.3557H71.5661H71.7764H71.9868H72.1971H72.4075H72.6179H72.8282H73.0386H73.2489H73.4593H73.6696H73.88H74.0903H74.3007H74.511H74.7214H74.9318H75.1421H75.3525H75.5628H75.7732H75.9835H76.1939H76.4042H76.6146H76.825H77.0353H77.2457H77.456H77.6664H77.8767H78.0871H78.2974H78.5078H78.7181H78.9285H79.1389H79.3492H79.5596H79.7699H79.9803H80.1906H80.401H80.6113H80.8217H81.0321H81.2424H81.4528H81.6631H81.8735H82.0838H82.2942H82.5045H82.7149H82.9252H83.1356H83.346H83.5563H83.7667H83.977H84.1874H84.3977H84.6081H84.8184H85.0288H85.2392H85.4495H85.6599H85.8702H86.0806H86.2909H86.5013H86.7116H86.922H87.1323H87.3427H87.5531H87.7634H87.9738H88.1841H88.3945H88.6048H88.8152H89.0255H89.2359H89.4463H89.6566H89.867H90.0773H90.2877H90.498H90.7084H90.9187H91.1291H91.3394H91.5498H91.7602H91.9705H92.1809H92.3912H92.6016H92.8119H93.0223H93.2326H93.443H93.6533H93.8637H94.0741H94.2844H94.4948H94.7051H94.9155H95.1258H95.3362H95.5465H95.7569H95.9672H96.1776H96.388H96.5983H96.8087H97.019H97.2294H97.4397H97.6501H97.8604H98.0708H98.2812H98.4915H98.7019H98.9122H99.1226H99.3329H99.5433H99.7536H99.964H100.174H100.385H100.595H100.805H101.016H101.226H101.436H101.647H101.857H102.068H102.278H102.488H102.699H102.909H103.119H103.33H103.54H103.75H103.961H104.171H104.381H104.592H104.802H105.013H105.223H105.433H105.644H105.854H106.064H106.275H106.485H106.695H106.906H107.116H107.326H107.537H107.747H107.957H108.168H108.378H108.589H108.799H109.009H109.22H109.43H109.64H109.851H110.061H110.271H110.482H110.692H110.902H111.113H111.323H111.534H111.744H111.954H112.165H112.375H112.585H112.796H113.006H113.216H113.427H113.637H113.847H114.058H114.268H114.478H114.689H114.899H115.11H115.32H115.53H115.741H115.951H116.161H116.372H116.582H116.792H117.003H117.213H117.423H117.634H117.844H118.055H118.265H118.475H118.686H118.896H119.106H119.317H119.527H119.737H119.948H120.158H120.368H120.579H120.789H120.999H121.21H121.42H121.631H121.841H122.051H122.262H122.472H122.682H122.893H123.103H123.313H123.524H123.734H123.944H124.155H124.365H124.576H124.786H124.996H125.207H125.417H125.627H125.838H126.048H126.258H126.469H126.679H126.889H127.1H127.31H127.52H127.731H127.941H128.152H128.362H128.572H128.783H128.993H129.203H129.414H129.624H129.834H130.045H130.255H130.465H130.676H130.886H131.097H131.307H131.517H131.728H131.938H132.148H132.359H132.569H132.773M24.9897 418.497C7.83135 418.585 0 426.327 0 443.483V553.014C0 570.346 7.56733 577.824 25.0776 577.824H132.779M132.773 576.324L132.779 577.824M132.773 576.324C142.313 576.281 148.546 574.386 152.437 570.466C156.329 566.545 158.205 560.267 158.205 550.639V550.633C158.293 529.077 158.381 507.445 158.205 485.901M132.773 576.324H132.779V577.824M132.779 577.824L158.205 485.901M158.205 485.901C158.205 485.901 158.205 485.9 158.205 485.9L159.705 485.888L158.205 485.906C158.205 485.904 158.205 485.903 158.205 485.901Z" stroke="url(#paint1_linear_43_1271)" stroke-width="3"/>
</g>
<defs>
<filter id="filter0_b_43_1271" x="-42" y="-42" width="668" height="662" filterUnits="userSpaceOnUse" color-interpolation-filters="sRGB">
<feFlood flood-opacity="0" result="BackgroundImageFix"/>
<feGaussianBlur in="BackgroundImageFix" stdDeviation="21"/>
<feComposite in2="SourceAlpha" operator="in" result="effect1_backgroundBlur_43_1271"/>
<feBlend mode="normal" in="SourceGraphic" in2="effect1_backgroundBlur_43_1271" result="shape"/>
</filter>
<radialGradient id="paint0_radial_43_1271" cx="0" cy="0" r="1" gradientUnits="userSpaceOnUse" gradientTransform="translate(5.25293 17.1967) rotate(43.7785) scale(789.156 1261.65)">
<stop stop-color="white" stop-opacity="0.4"/>
<stop offset="1" stop-color="white" stop-opacity="0"/>
</radialGradient>
<linearGradient id="paint1_linear_43_1271" x1="10.8148" y1="15.7636" x2="684.203" y2="326.615" gradientUnits="userSpaceOnUse">
<stop stop-color="white" stop-opacity="0.9"/>
<stop offset="1" stop-color="white" stop-opacity="0"/>
</linearGradient>
</defs>
</svg>
