<svg width="497" height="492" viewBox="0 0 497 492" fill="none" xmlns="http://www.w3.org/2000/svg">
<g opacity="0.34" filter="url(#filter0_b_43_496)">
<path d="M259.925 484.437C287.276 484.213 314.68 484.241 342.025 484.269C351.131 484.278 360.23 484.287 369.318 484.287H386.222L386.148 484.362H386.185H386.397H386.609H386.821H387.032H387.244H387.456H387.668H387.88H388.092H388.303H388.515H388.727H388.939H389.151H389.363H389.575H389.786H389.998H390.21H390.422H390.634H390.846H391.058H391.269H391.481H391.693H391.905H392.117H392.329H392.541H392.753H392.964H393.176H393.388H393.6H393.812H394.024H394.236H394.448H394.659H394.871H395.083H395.295H395.507H395.719H395.931H396.143H396.355H396.567H396.778H396.99H397.202H397.414H397.626H397.838H398.05H398.262H398.474H398.686H398.898H399.109H399.321H399.533H399.745H399.957H400.169H400.381H400.593H400.805H401.017H401.229H401.441H401.652H401.864H402.076H402.288H402.5H402.712H402.924H403.136H403.348H403.56H403.772H403.984H404.196H404.408H404.62H404.832H405.044H405.255H405.467H405.679H405.891H406.103H406.315H406.527H406.739H406.951H407.163H407.375H407.587H407.799H408.011H408.223H408.435H408.647H408.859H409.071H409.283H409.495H409.707H409.919H410.131H410.343H410.555H410.767H410.979H411.191H411.403H411.615H411.826H412.038H412.25H412.462H412.674H412.886H413.098H413.31H413.522H413.734H413.946H414.158H414.37H414.582H414.794H415.006H415.218H415.43H415.642H415.854H416.066H416.278H416.49H416.702H416.914H417.126H417.338H417.55H417.762H417.974H418.186H418.398H418.61H418.823H419.035H419.247H419.459H419.671H419.883H420.095H420.307H420.519H420.731H420.943H421.155H421.367H421.579H421.791H422.003H422.215H422.427H422.639H422.851H423.063H423.275H423.487H423.699H423.911H424.123H424.335H424.547H424.759H424.971H425.183H425.395H425.607H425.82H426.032H426.244H426.456H426.668H426.88H427.092H427.304H427.516H427.728H427.94H428.152H428.364H428.576H428.788H429H429.212H429.424H429.636H429.849H430.061H430.273H430.485H430.697H430.909H431.121H431.333H431.545H431.757H431.969H432.181H432.393H432.605H432.817H433.03H433.242H433.454H433.666H433.878H434.09H434.302H434.514H434.726H434.938H435.15H435.362H435.574H435.787H435.999H436.211H436.423H436.635H436.847H437.059H437.271H437.483H437.695H437.907H438.119H438.332H438.544H438.756H438.968H439.18H439.392H439.604H439.816H440.028H440.24H440.452H440.665H440.877H441.089H441.301H441.513H441.725H441.937H442.149H442.361H442.573H442.786H442.998H443.21H443.422H443.634H443.846H444.058H444.27H444.482H444.694H444.907H445.119H445.331H445.543H445.755H445.967H446.179H446.391H446.603H446.816H447.028H447.24H447.452H447.664H447.876H448.088H448.3H448.512H448.725H448.937H449.149H449.361H449.573H449.785H449.997H450.209H450.421H450.634H450.846H451.058H451.27H451.482H451.694H451.906H452.118H452.331H452.543H452.755H452.967H453.179H453.391H453.603H453.815H454.028H454.24H454.452H454.664H454.876H455.088H455.3H455.512H455.725H455.937H456.149H456.361H456.573H456.785H456.997H457.209H457.422H457.634H457.846H458.058H458.27H458.482H458.694H458.906H459.119H459.331H459.543H459.755H459.967H460.179H460.391H460.604H460.816H461.028H461.24H461.452H461.664H461.876H462.089H462.301H462.513H462.725H462.937H463.149H463.361H463.573H463.786H463.998H464.21H464.422H464.634H464.846H465.058H465.271H465.483H465.695H465.907H466.119H466.331H466.543H466.756H466.968H467.18H467.392H467.604H467.816H468.028H468.241H468.453H468.665H468.877H469.089H469.301H469.513H469.726H469.938H470.15H470.362H470.574H470.786H470.998H471.211H471.423H471.635H471.847H472.059H472.271H472.483H472.696H472.908H473.12H473.332H473.544H473.756H473.968H474.181H474.393H474.605H474.817H475.029H475.241H475.453H475.666H475.878H476.09H476.302H476.514H476.726H476.938H477.151H477.363H477.575H477.77C485.256 484.323 487.191 483.227 487.795 482.629C488.367 482.063 489.489 480.2 489.489 472.737C489.489 448.433 489.472 424.132 489.455 399.832C489.422 351.231 489.389 302.63 489.489 254.004C489.486 248.053 487.708 243.841 483.46 239.593C440.074 196.296 396.754 152.966 353.441 109.643C320.957 77.1524 288.478 44.6654 255.977 12.1988L255.974 12.1963C251.371 7.5929 249.172 7.00231 248.2 7.00001C247.243 6.99774 245.074 7.56258 240.514 12.1215L21.1078 231.515C15.4763 237.146 14.1695 240.624 14.1905 242.987C14.212 245.397 15.6292 248.974 21.407 254.752C29.2474 262.592 37.0737 270.434 44.897 278.274C60.5303 293.939 76.1513 309.593 91.8476 325.188C94.5571 327.858 97.4532 331.223 99.0621 335.42C100.79 339.928 100.833 344.861 98.7115 350.028C96.5792 355.222 93.0501 358.686 88.6329 360.654C84.5281 362.483 80.0896 362.822 76.3024 362.822H76.2881L76.2738 362.822C57.9678 362.747 39.587 362.747 21.2809 362.822L259.925 484.437ZM259.925 484.437C253.58 484.432 249.195 482.658 244.81 478.216C230.091 463.288 215.218 448.419 200.365 433.569C188.831 422.037 177.308 410.517 165.879 398.99L165.868 398.98L165.858 398.969C162.909 396.021 159.32 393.255 154.967 391.865C150.392 390.405 145.554 390.652 140.677 392.792C136.328 394.688 133.138 397.713 131.169 401.591C129.282 405.306 128.73 409.373 128.774 413.186C128.923 431.459 128.848 449.815 128.773 468.145L128.773 468.16V468.174C128.773 475.836 127.239 479.278 125.531 480.999C123.83 482.713 120.435 484.251 112.864 484.287H112.704H112.525H112.346H112.167H111.988H111.81H111.631H111.452H111.273H111.094H110.915H110.737H110.558H110.379H110.2H110.021H109.842H109.664H109.485H109.306H109.127H108.948H108.769H108.591H108.412H108.233H108.054H107.875H107.696H107.518H107.339H107.16H106.981H106.802H106.623H106.445H106.266H106.087H105.908H105.729H105.55H105.372H105.193H105.014H104.835H104.656H104.477H104.299H104.12H103.941H103.762H103.583H103.404H103.226H103.047H102.868H102.689H102.51H102.331H102.153H101.974H101.795H101.616H101.437H101.258H101.08H100.901H100.722H100.543H100.364H100.185H100.007H99.8277H99.6489H99.4701H99.2912H99.1124H98.9336H98.7547H98.5759H98.3971H98.2182H98.0394H97.8606H97.6817H97.5029H97.3241H97.1452H96.9664H96.7876H96.6087H96.4299H96.2511H96.0722H95.8934H95.7146H95.5357H95.3569H95.1781H94.9992H94.8204H94.6416H94.4627H94.2839H94.1051H93.9262H93.7474H93.5686H93.3897H93.2109H93.0321H92.8532H92.6744H92.4956H92.3167H92.1379H91.9591H91.7802H91.6014H91.4226H91.2437H91.0649H90.8861H90.7072H90.5284H90.3496H90.1707H89.9919H89.8131H89.6342H89.4554H89.2766H89.0977H88.9189H88.7401H88.5612H88.3824H88.2036H88.0247H87.8459H87.6671H87.4882H87.3094H87.1306H86.9517H86.7729H86.5941H86.4152H86.2364H86.0576H85.8787H85.6999H85.5211H85.3422H85.1634H84.9846H84.8057H84.6269H84.4481H84.2692H84.0904H83.9116H83.7327H83.5539H83.3751H83.1962H83.0174H82.8386H82.6597H82.4809H82.3021H82.1232H81.9444H81.7656H81.5867H81.4079H81.229H81.0502H80.8714H80.6926H80.5137H80.3349H80.1561H79.9772H79.7984H79.6196H79.4407H79.2619H79.0831H78.9042H78.7254H78.5465H78.3677H78.1889H78.01H77.8312H77.6524H77.4735H77.2947H77.1159H76.937H76.7582H76.5794H76.4005H76.2217H76.0429H75.864H75.6852H75.5064H75.3275H75.1487H74.9699H74.791H74.6122H74.4334H74.2545H74.0757H73.8969H73.718H73.5392H73.3604H73.1815H73.0027H72.8239H72.645H72.4662H72.2874H72.1085H71.9297H71.7509H71.572H71.3932H71.2144H71.0355H70.8567H70.6779H70.499H70.3202H70.1414H69.9625H69.7837H69.6049H69.426H69.2472H69.0684H68.8895H68.7107H68.5319H68.353H68.1742H67.9954H67.8165H67.6377H67.4589H67.28H67.1012H66.9224H66.7435H66.5647H66.3859H66.207H66.0282H65.8494H65.6705H65.4917H65.3129H65.134H64.9552H64.7764H64.5975H64.4187H64.2399H64.061H63.8822H63.7034H63.5245H63.3457H63.1669H62.988H62.8092H62.6304H62.4515H62.2727H62.0939H61.915H61.7362H61.5574H61.3785H61.1997H61.0209H60.842H60.6632H60.4844H60.3055H60.1267H59.9479H59.769H59.5902H59.4114H59.2325H59.0537H58.8749H58.696H58.5172H58.3384H58.1595H57.9807H57.8018H57.623H57.4442H57.2654H57.0865H56.9077H56.7288H56.55H56.3712H56.1923H56.0135H55.8347H55.6558H55.477H55.2982H55.1193H54.9405H54.7617H54.5828H54.404H54.2252H54.0463H53.8675H53.6887H53.5098H53.331H53.1522H52.9733H52.7945H52.6157H52.4368H52.258H52.0792H51.9003H51.7215H51.5427H51.3638H51.185H51.0062H50.8273H50.6485H50.4697H50.2908H50.112H49.9332H49.7543H49.5755H49.3967H49.2178H49.039H48.8602H48.6813H48.5025H48.3237H48.1448H47.966H47.7872H47.6083H47.4295H47.2507H47.0718H46.893H46.7142H46.5353H46.3565H46.1777H45.9988H45.82H45.6412H45.4623H45.2835H45.1047H44.9258H44.747H44.5682H44.3893H44.2105H44.0317H43.8528H43.674H43.4952H43.3163H43.1375H42.9587H42.7798H42.601H42.4222H42.2433H42.0645H41.8857H41.7068H41.528H41.3492H41.1703H40.9915H40.8127H40.6338H40.455H40.2762H40.0973H39.9185H39.7397H39.5608H39.382H39.2032H39.0243H38.8455H38.6667H38.4878H38.309H38.1302H37.9513H37.7725H37.5937H37.4148H37.236H37.0572H36.8783H36.6995H36.5207H36.3418H36.163H35.9842H35.8053H35.6265H35.4477H35.2688H35.09H34.9112H34.7323H34.5535H34.3746H34.1958H34.017H33.8382H33.6593H33.4805H33.3016H33.1228H32.944H32.7651H32.5863H32.4075H32.2286H32.0498H31.871H31.6921H31.5133H31.3345H31.1556H30.9768H30.798H30.6191H30.4403H30.2615H30.0826H29.9038H29.725H29.5461H29.3673H29.1885H29.0096H28.8308H28.652H28.4731H28.2943H28.1155H27.9366H27.7578H27.579H27.4001H27.2213H27.0425H26.8636H26.6848H26.506H26.3271H26.1483H25.9695H25.7906H25.6118H25.433H25.2541H25.0753H24.8965H24.7176H24.5388H24.36H24.1811H24.0023H23.8235H23.6446H23.4658H23.287H23.1081H22.9293H22.7505H22.5716H22.3928H22.214H22.0351H21.8563H21.6775H21.4986H21.3198C14.6814 484.287 11.5701 482.843 10.0002 481.29C8.4475 479.754 7 476.722 7 470.193V470.012V469.83V469.648V469.466V469.284V469.102V468.92V468.738V468.556V468.375V468.193V468.011V467.829V467.647V467.465V467.283V467.101V466.919V466.738V466.556V466.374V466.192V466.01V465.828V465.646V465.464V465.282V465.101V464.919V464.737V464.555V464.373V464.191V464.009V463.827V463.645V463.464V463.282V463.1V462.918V462.736V462.554V462.372V462.19V462.008V461.827V461.645V461.463V461.281V461.099V460.917V460.735V460.553V460.371V460.19V460.008V459.826V459.644V459.462V459.28V459.098V458.916V458.734V458.552V458.371V458.189V458.007V457.825V457.643V457.461V457.279V457.097V456.915V456.734V456.552V456.37V456.188V456.006L7 455.824V455.642V455.46V455.278V455.097V454.915V454.733V454.551V454.369V454.187V454.005V453.823V453.641V453.46V453.278V453.096V452.914V452.732V452.55V452.368V452.186V452.004V451.823V451.641V451.459V451.277V451.095V450.913V450.731V450.549V450.367V450.186V450.004V449.822V449.64V449.458V449.276V449.094V448.912V448.73V448.548V448.367V448.185V448.003V447.821V447.639V447.457V447.275V447.093V446.911V446.73V446.548V446.366V446.184V446.002V445.82V445.638V445.456V445.274V445.093V444.911V444.729V444.547V444.365V444.183V444.001V443.819V443.637V443.456V443.274V443.092V442.91V442.728V442.546V442.364V442.182V442V441.819V441.637V441.455V441.273V441.091V440.909V440.727V440.545V440.363V440.182L7 440V439.818V439.636V439.454V439.272V439.09V438.908V438.726V438.545V438.363V438.181V437.999V437.817V437.635V437.453V437.271V437.089V436.908V436.726V436.544V436.362V436.18V435.998V435.816V435.634V435.452V435.271V435.089V434.907V434.725V434.543V434.361V434.179V433.997V433.815V433.633V433.452V433.27V433.088V432.906V432.724V432.542V432.36V432.178V431.996V431.815V431.633V431.451V431.269V431.087V430.905V430.723V430.541V430.359V430.178V429.996V429.814V429.632V429.45V429.268V429.086V428.904V428.722V428.541V428.359V428.177V427.995V427.813V427.631V427.449V427.267V427.085V426.904V426.722V426.54V426.358V426.176V425.994V425.812V425.63V425.448V425.267V425.085V424.903V424.721V424.539V424.357V424.175L7 423.993V423.811V423.63V423.448V423.266V423.084V422.902V422.72V422.538V422.356V422.174V421.992V421.811V421.629V421.447V421.265V421.083V420.901V420.719V420.537V420.355V420.174V419.992V419.81V419.628V419.446V419.264V419.082V418.9V418.718V418.537V418.355V418.173V417.991V417.809V417.627V417.445V417.263V417.081V416.9V416.718V416.536V416.354V416.172V415.99V415.808V415.626V415.444V415.263V415.081V414.899V414.717V414.535V414.353V414.171V413.989V413.807V413.626V413.444V413.262V413.08V412.898V412.716V412.534V412.352V412.17V411.988V411.807V411.625V411.443V411.261V411.079V410.897V410.715V410.533V410.352V410.17V409.988V409.806V409.624V409.442V409.26V409.078V408.896V408.714V408.533V408.351V408.169L7 407.987V407.805V407.623V407.441V407.259V407.077V406.896V406.714V406.532V406.35V406.168V405.986V405.804V405.622V405.44V405.259V405.077V404.895V404.713V404.531V404.349V404.167V403.985V403.803V403.622V403.44V403.258V403.076V402.894V402.712V402.53V402.348V402.166V401.985V401.803V401.621V401.439V401.257V401.075V400.893V400.711V400.529V400.348V400.166V399.984V399.802V399.62V399.438V399.256V399.074V398.892V398.711V398.529V398.347V398.165V397.983V397.801V397.619V397.437V397.255V397.073V396.892V396.71V396.528V396.346V396.164V395.982V395.8V395.618V395.436V395.255V395.073V394.891V394.709V394.527V394.345V394.163V393.981V393.799V393.618V393.436V393.254V393.072V392.89V392.708V392.526V392.344V392.162L7 391.981V391.799V391.617V391.435V391.253V391.071V390.889V390.707V390.525V390.344V390.162V389.98V389.798V389.616V389.434V389.252V389.07V388.888V388.707V388.525V388.343V388.161V387.979V387.797V387.615V387.433V387.251V387.069V386.888V386.706V386.524V386.342V386.16V385.978V385.796V385.614V385.432V385.251V385.069V384.887V384.705V384.523V384.341V384.159V383.977V383.795V383.614V383.432V383.25V383.068V382.886V382.704V382.522V382.34V382.158V381.977V381.795V381.613V381.431V381.249V381.067V380.885V380.703V380.521V380.34V380.158V379.976V379.794V379.612V379.43V379.248V379.066V378.884V378.703V378.521V378.339V378.157V377.975V377.793V377.611V377.429V377.247V377.066C7 370.694 8.46619 367.583 10.0953 365.958C11.7356 364.323 14.8816 362.855 21.2803 362.822L259.925 484.437Z" stroke="url(#paint0_angular_43_496)" stroke-width="14"/>
</g>
<defs>
<filter id="filter0_b_43_496" x="-42" y="-42" width="580.489" height="575.437" filterUnits="userSpaceOnUse" color-interpolation-filters="sRGB">
<feFlood flood-opacity="0" result="BackgroundImageFix"/>
<feGaussianBlur in="BackgroundImageFix" stdDeviation="21"/>
<feComposite in2="SourceAlpha" operator="in" result="effect1_backgroundBlur_43_496"/>
<feBlend mode="normal" in="SourceGraphic" in2="effect1_backgroundBlur_43_496" result="shape"/>
</filter>
<radialGradient id="paint0_angular_43_496" cx="0" cy="0" r="1" gradientUnits="userSpaceOnUse" gradientTransform="translate(225.594 180.403) rotate(113.292) scale(230.656 889.247)">
<stop stop-color="#4606A0"/>
<stop offset="0.0876184" stop-color="#5614B3"/>
<stop offset="0.377633" stop-color="#8239E5"/>
<stop offset="0.39255" stop-color="#843BE8"/>
<stop offset="0.545521" stop-color="#994DFF"/>
<stop offset="0.929927" stop-color="#E3A4FF"/>
</radialGradient>
</defs>
</svg>
