<svg width="523" height="521" viewBox="0 0 523 521" fill="none" xmlns="http://www.w3.org/2000/svg">
<g opacity="0.34" filter="url(#filter0_b_43_492)">
<path d="M355.344 338.824C374.525 319.325 393.922 299.968 413.278 280.652C419.723 274.22 426.164 267.792 432.59 261.366L444.543 249.413L444.543 249.519L444.57 249.492L444.72 249.342L444.869 249.193L445.019 249.043L445.169 248.893L445.319 248.743L445.469 248.593L445.618 248.444L445.768 248.294L445.918 248.144L446.068 247.994L446.218 247.844L446.367 247.695L446.517 247.545L446.667 247.395L446.817 247.245L446.967 247.095L447.116 246.946L447.266 246.796L447.416 246.646L447.566 246.496L447.716 246.346L447.866 246.197L448.015 246.047L448.165 245.897L448.315 245.747L448.465 245.597L448.615 245.447L448.764 245.298L448.914 245.148L449.064 244.998L449.214 244.848L449.364 244.698L449.514 244.549L449.663 244.399L449.813 244.249L449.963 244.099L450.113 243.949L450.263 243.799L450.412 243.65L450.562 243.5L450.712 243.35L450.862 243.2L451.012 243.05L451.162 242.9L451.311 242.751L451.461 242.601L451.611 242.451L451.761 242.301L451.911 242.151L452.061 242.001L452.21 241.852L452.36 241.702L452.51 241.552L452.66 241.402L452.81 241.252L452.96 241.102L453.109 240.953L453.259 240.803L453.409 240.653L453.559 240.503L453.709 240.353L453.859 240.203L454.009 240.054L454.158 239.904L454.308 239.754L454.458 239.604L454.608 239.454L454.758 239.304L454.908 239.154L455.058 239.005L455.207 238.855L455.357 238.705L455.507 238.555L455.657 238.405L455.807 238.255L455.957 238.105L456.107 237.956L456.256 237.806L456.406 237.656L456.556 237.506L456.706 237.356L456.856 237.206L457.006 237.056L457.156 236.907L457.305 236.757L457.455 236.607L457.605 236.457L457.755 236.307L457.905 236.157L458.055 236.007L458.205 235.857L458.355 235.708L458.504 235.558L458.654 235.408L458.804 235.258L458.954 235.108L459.104 234.958L459.254 234.808L459.404 234.658L459.554 234.509L459.703 234.359L459.853 234.209L460.003 234.059L460.153 233.909L460.303 233.759L460.453 233.609L460.603 233.459L460.753 233.309L460.902 233.16L461.052 233.01L461.202 232.86L461.352 232.71L461.502 232.56L461.652 232.41L461.802 232.26L461.952 232.11L462.102 231.96L462.251 231.811L462.401 231.661L462.551 231.511L462.701 231.361L462.851 231.211L463.001 231.061L463.151 230.911L463.301 230.761L463.451 230.611L463.601 230.462L463.75 230.312L463.9 230.162L464.05 230.012L464.2 229.862L464.35 229.712L464.5 229.562L464.65 229.412L464.8 229.262L464.95 229.112L465.1 228.962L465.25 228.813L465.399 228.663L465.549 228.513L465.699 228.363L465.849 228.213L465.999 228.063L466.149 227.913L466.299 227.763L466.449 227.613L466.599 227.463L466.749 227.313L466.899 227.164L467.048 227.014L467.198 226.864L467.348 226.714L467.498 226.564L467.648 226.414L467.798 226.264L467.948 226.114L468.098 225.964L468.248 225.814L468.398 225.664L468.548 225.514L468.698 225.365L468.847 225.215L468.997 225.065L469.147 224.915L469.297 224.765L469.447 224.615L469.597 224.465L469.747 224.315L469.897 224.165L470.047 224.015L470.197 223.865L470.347 223.715L470.497 223.565L470.647 223.415L470.797 223.266L470.946 223.116L471.096 222.966L471.246 222.816L471.396 222.666L471.546 222.516L471.696 222.366L471.846 222.216L471.996 222.066L472.146 221.916L472.296 221.766L472.446 221.616L472.596 221.466L472.746 221.316L472.896 221.166L473.046 221.016L473.196 220.867L473.345 220.717L473.495 220.567L473.645 220.417L473.795 220.267L473.945 220.117L474.095 219.967L474.245 219.817L474.395 219.667L474.545 219.517L474.695 219.367L474.845 219.217L474.995 219.067L475.145 218.917L475.295 218.767L475.445 218.617L475.595 218.467L475.745 218.317L475.895 218.168L476.045 218.018L476.194 217.868L476.344 217.718L476.494 217.568L476.644 217.418L476.794 217.268L476.944 217.118L477.094 216.968L477.244 216.818L477.394 216.668L477.544 216.518L477.694 216.368L477.844 216.218L477.994 216.068L478.144 215.918L478.294 215.768L478.444 215.618L478.594 215.468L478.744 215.318L478.894 215.168L479.044 215.018L479.194 214.868L479.344 214.719L479.494 214.569L479.643 214.419L479.793 214.269L479.943 214.119L480.093 213.969L480.243 213.819L480.393 213.669L480.543 213.519L480.693 213.369L480.843 213.219L480.993 213.069L481.143 212.919L481.293 212.769L481.443 212.619L481.593 212.469L481.743 212.319L481.893 212.169L482.043 212.019L482.193 211.869L482.343 211.719L482.493 211.569L482.643 211.419L482.793 211.269L482.943 211.119L483.093 210.969L483.243 210.819L483.393 210.669L483.543 210.519L483.693 210.369L483.843 210.219L483.993 210.069L484.143 209.92L484.293 209.77L484.443 209.62L484.593 209.47L484.743 209.32L484.892 209.17L485.042 209.02L485.192 208.87L485.342 208.72L485.492 208.57L485.642 208.42L485.792 208.27L485.942 208.12L486.092 207.97L486.242 207.82L486.392 207.67L486.542 207.52L486.692 207.37L486.842 207.22L486.992 207.07L487.142 206.92L487.292 206.77L487.442 206.62L487.592 206.47L487.742 206.32L487.892 206.17L488.042 206.02L488.192 205.87L488.342 205.72L488.492 205.57L488.642 205.42L488.792 205.27L488.942 205.12L489.092 204.97L489.242 204.82L489.392 204.67L489.542 204.52L489.692 204.37L489.842 204.22L489.992 204.07L490.142 203.92L490.292 203.77L490.442 203.62L490.592 203.47L490.742 203.32L490.892 203.17L491.042 203.02L491.192 202.87L491.342 202.72L491.492 202.57L491.642 202.42L491.792 202.27L491.942 202.12L492.092 201.97L492.242 201.82L492.392 201.67L492.542 201.52L492.692 201.37L492.842 201.22L492.992 201.07L493.142 200.92L493.292 200.77L493.442 200.62L493.592 200.47L493.742 200.32L493.892 200.17L494.042 200.02L494.192 199.87L494.342 199.72L494.492 199.57L494.642 199.42L494.792 199.27L494.942 199.12L495.092 198.97L495.242 198.82L495.392 198.67L495.542 198.52L495.692 198.37L495.842 198.22L495.992 198.07L496.142 197.92L496.292 197.77L496.442 197.62L496.592 197.47L496.742 197.32L496.892 197.17L497.042 197.02L497.192 196.87L497.342 196.72L497.492 196.57L497.642 196.42L497.792 196.27L497.942 196.12L498.092 195.97L498.242 195.82L498.392 195.67L498.542 195.52L498.692 195.37L498.842 195.22L498.992 195.07L499.142 194.92L499.292 194.77L499.442 194.62L499.592 194.47L499.742 194.32L499.892 194.17L500.042 194.02L500.192 193.87L500.342 193.72L500.492 193.57L500.642 193.42L500.792 193.27L500.942 193.12L501.092 192.97L501.242 192.82L501.392 192.67L501.542 192.52L501.692 192.37L501.842 192.22L501.992 192.07L502.142 191.92L502.292 191.77L502.442 191.62L502.592 191.47L502.742 191.32L502.892 191.17L503.042 191.02L503.192 190.87L503.342 190.72L503.492 190.57L503.642 190.42L503.792 190.27L503.942 190.12L504.092 189.97L504.242 189.82L504.392 189.67L504.542 189.52L504.692 189.37L504.842 189.22L504.992 189.07L505.142 188.92L505.292 188.77L505.442 188.62L505.592 188.47L505.742 188.32L505.892 188.17L506.042 188.02L506.192 187.87L506.342 187.72L506.492 187.57L506.642 187.42L506.792 187.27L506.942 187.12L507.092 186.97L507.242 186.82L507.392 186.67L507.542 186.52L507.692 186.37L507.842 186.22L507.992 186.07L508.142 185.92L508.292 185.77L508.442 185.62L508.592 185.47L508.742 185.32L508.892 185.17L509.042 185.02L509.192 184.87L509.33 184.732C514.596 179.41 515.189 177.268 515.194 176.417C515.198 175.613 514.673 173.502 509.396 168.225C492.211 151.04 475.016 133.868 457.821 116.697C423.431 82.3544 389.042 48.0119 354.729 13.5575C350.519 9.35152 346.284 7.63027 340.276 7.63046C278.982 7.69279 217.711 7.68603 156.45 7.67927C110.506 7.67419 64.5677 7.66912 18.6287 7.69321L18.6253 7.69321C12.1149 7.69342 10.1423 8.83082 9.45339 9.51643C8.77502 10.1916 7.64068 12.1247 7.64048 18.5723L7.63095 328.85C7.6307 336.814 9.16644 340.198 10.8517 341.854C12.5711 343.543 16.103 345.07 24.2739 345.07C35.3614 345.07 46.441 345.081 57.5161 345.093C79.6479 345.115 101.762 345.138 123.889 345.067C127.693 345.039 132.12 345.371 136.225 347.201C140.635 349.166 144.153 352.624 146.307 357.778C148.471 362.958 148.426 367.903 146.694 372.419C145.085 376.614 142.186 379.992 139.508 382.67L139.498 382.68L139.487 382.69C126.49 395.582 113.493 408.579 100.602 421.576L355.344 338.824ZM355.344 338.824C350.853 343.308 346.498 345.153 340.257 345.113C319.293 344.965 298.262 344.968 277.259 344.97C260.949 344.972 244.655 344.974 228.423 344.905L228.408 344.905H228.393C224.223 344.905 219.73 345.487 215.669 347.582C211.401 349.785 208.155 353.381 206.219 358.342C204.485 362.758 204.369 367.153 205.718 371.288C207.011 375.249 209.496 378.515 212.223 381.18C225.25 393.996 238.176 407.028 251.085 420.042L251.095 420.053L251.105 420.063C256.523 425.481 257.872 428.999 257.881 431.424C257.89 433.839 256.578 437.327 251.25 442.706L251.137 442.82L251.01 442.946L250.884 443.073L250.757 443.199L250.631 443.325L250.504 443.452L250.378 443.578L250.251 443.705L250.125 443.831L249.998 443.958L249.872 444.084L249.746 444.211L249.619 444.337L249.493 444.464L249.366 444.59L249.24 444.716L249.113 444.843L248.987 444.969L248.86 445.096L248.734 445.222L248.607 445.349L248.481 445.475L248.355 445.602L248.228 445.728L248.102 445.855L247.975 445.981L247.849 446.107L247.722 446.234L247.596 446.36L247.469 446.487L247.343 446.613L247.216 446.74L247.09 446.866L246.964 446.993L246.837 447.119L246.711 447.246L246.584 447.372L246.458 447.498L246.331 447.625L246.205 447.751L246.078 447.878L245.952 448.004L245.825 448.131L245.699 448.257L245.573 448.384L245.446 448.51L245.32 448.637L245.193 448.763L245.067 448.889L244.94 449.016L244.814 449.142L244.687 449.269L244.561 449.395L244.434 449.522L244.308 449.648L244.182 449.775L244.055 449.901L243.929 450.028L243.802 450.154L243.676 450.28L243.549 450.407L243.423 450.533L243.296 450.66L243.17 450.786L243.043 450.913L242.917 451.039L242.791 451.166L242.664 451.292L242.538 451.419L242.411 451.545L242.285 451.671L242.158 451.798L242.032 451.924L241.905 452.051L241.779 452.177L241.652 452.304L241.526 452.43L241.4 452.557L241.273 452.683L241.147 452.81L241.02 452.936L240.894 453.062L240.767 453.189L240.641 453.315L240.514 453.442L240.388 453.568L240.261 453.695L240.135 453.821L240.009 453.948L239.882 454.074L239.756 454.201L239.629 454.327L239.503 454.453L239.376 454.58L239.25 454.706L239.123 454.833L238.997 454.959L238.87 455.086L238.744 455.212L238.618 455.339L238.491 455.465L238.365 455.592L238.238 455.718L238.112 455.844L237.985 455.971L237.859 456.097L237.732 456.224L237.606 456.35L237.479 456.477L237.353 456.603L237.227 456.73L237.1 456.856L236.974 456.983L236.847 457.109L236.721 457.235L236.594 457.362L236.468 457.488L236.341 457.615L236.215 457.741L236.088 457.868L235.962 457.994L235.836 458.121L235.709 458.247L235.583 458.374L235.456 458.5L235.33 458.626L235.203 458.753L235.077 458.879L234.95 459.006L234.824 459.132L234.697 459.259L234.571 459.385L234.445 459.512L234.318 459.638L234.192 459.765L234.065 459.891L233.939 460.017L233.812 460.144L233.686 460.27L233.559 460.397L233.433 460.523L233.306 460.65L233.18 460.776L233.054 460.903L232.927 461.029L232.801 461.156L232.674 461.282L232.548 461.408L232.421 461.535L232.295 461.661L232.168 461.788L232.042 461.914L231.915 462.041L231.789 462.167L231.663 462.294L231.536 462.42L231.41 462.547L231.283 462.673L231.157 462.799L231.03 462.926L230.904 463.052L230.777 463.179L230.651 463.305L230.524 463.432L230.398 463.558L230.272 463.685L230.145 463.811L230.019 463.938L229.892 464.064L229.766 464.19L229.639 464.317L229.513 464.443L229.386 464.57L229.26 464.696L229.133 464.823L229.007 464.949L228.881 465.076L228.754 465.202L228.628 465.329L228.501 465.455L228.375 465.581L228.248 465.708L228.122 465.834L227.995 465.961L227.869 466.087L227.742 466.214L227.616 466.34L227.49 466.467L227.363 466.593L227.237 466.72L227.11 466.846L226.984 466.972L226.857 467.099L226.731 467.225L226.604 467.352L226.478 467.478L226.351 467.605L226.225 467.731L226.099 467.858L225.972 467.984L225.846 468.111L225.719 468.237L225.593 468.363L225.466 468.49L225.34 468.616L225.213 468.743L225.087 468.869L224.96 468.996L224.834 469.122L224.708 469.249L224.581 469.375L224.455 469.502L224.328 469.628L224.202 469.754L224.075 469.881L223.949 470.007L223.822 470.134L223.696 470.26L223.569 470.387L223.443 470.513L223.317 470.64L223.19 470.766L223.064 470.893L222.937 471.019L222.811 471.145L222.684 471.272L222.558 471.398L222.431 471.525L222.305 471.651L222.178 471.778L222.052 471.904L221.926 472.031L221.799 472.157L221.673 472.284L221.546 472.41L221.42 472.536L221.293 472.663L221.167 472.789L221.04 472.916L220.914 473.042L220.787 473.169L220.661 473.295L220.535 473.422L220.408 473.548L220.282 473.675L220.155 473.801L220.029 473.927L219.902 474.054L219.776 474.18L219.649 474.307L219.523 474.433L219.396 474.56L219.27 474.686L219.144 474.813L219.017 474.939L218.891 475.066L218.764 475.192L218.638 475.318L218.511 475.445L218.385 475.571L218.258 475.698L218.132 475.824L218.005 475.951L217.879 476.077L217.753 476.204L217.626 476.33L217.5 476.457L217.373 476.583L217.247 476.709L217.12 476.836L216.994 476.962L216.867 477.089L216.741 477.215L216.614 477.342L216.488 477.468L216.362 477.595L216.235 477.721L216.109 477.848L215.982 477.974L215.856 478.1L215.729 478.227L215.603 478.353L215.476 478.48L215.35 478.606L215.223 478.733L215.097 478.859L214.971 478.986L214.844 479.112L214.718 479.239L214.591 479.365L214.465 479.491L214.338 479.618L214.212 479.744L214.085 479.871L213.959 479.997L213.832 480.124L213.706 480.25L213.58 480.377L213.453 480.503L213.327 480.63L213.2 480.756L213.074 480.882L212.947 481.009L212.821 481.135L212.694 481.262L212.568 481.388L212.441 481.515L212.315 481.641L212.189 481.768L212.062 481.894L211.936 482.021L211.809 482.147L211.683 482.273L211.556 482.4L211.43 482.526L211.303 482.653L211.177 482.779L211.05 482.906L210.924 483.032L210.798 483.159L210.671 483.285L210.545 483.412L210.418 483.538L210.292 483.664L210.165 483.791L210.039 483.917L209.912 484.044L209.786 484.17L209.659 484.297L209.533 484.423L209.407 484.55L209.28 484.676L209.154 484.803L209.027 484.929L208.901 485.055L208.774 485.182L208.648 485.308L208.521 485.435L208.395 485.561L208.268 485.688L208.142 485.814L208.016 485.941L207.889 486.067L207.763 486.194L207.636 486.32L207.51 486.446L207.383 486.573L207.257 486.699L207.13 486.826L207.004 486.952L206.877 487.079L206.751 487.205L206.625 487.332L206.498 487.458L206.372 487.585L206.245 487.711L206.119 487.837L205.992 487.964L205.866 488.09L205.739 488.217L205.613 488.343L205.486 488.47L205.36 488.596L205.234 488.723L205.107 488.849L204.981 488.976L204.854 489.102L204.728 489.228L204.601 489.355L204.475 489.481L204.348 489.608L204.222 489.734L204.095 489.861L203.969 489.987L203.843 490.114L203.716 490.24L203.59 490.367L203.463 490.493L203.337 490.619L203.21 490.746L203.084 490.872L202.957 490.999L202.831 491.125L202.704 491.252L202.578 491.378L202.452 491.505L202.325 491.631L202.199 491.758L202.072 491.884L201.946 492.01L201.819 492.137L201.693 492.263L201.566 492.39L201.44 492.516L201.313 492.643L201.187 492.769L201.061 492.896L200.934 493.022L200.808 493.149L200.681 493.275L200.555 493.401L200.428 493.528L200.302 493.654L200.175 493.781L200.049 493.907L199.922 494.034L199.796 494.16L199.67 494.287L199.543 494.413L199.417 494.54L199.29 494.666L199.164 494.792L199.037 494.919L198.911 495.045L198.784 495.172L198.658 495.298L198.531 495.425L198.405 495.551L198.279 495.678L198.152 495.804L198.026 495.931L197.899 496.057L197.773 496.183L197.646 496.31L197.52 496.436L197.393 496.563L197.267 496.689L197.14 496.816L197.014 496.942L196.888 497.069L196.761 497.195L196.635 497.322L196.508 497.448L196.382 497.574L196.255 497.701L196.129 497.827L196.002 497.954L195.876 498.08L195.749 498.207L195.623 498.333L195.497 498.46L195.37 498.586L195.244 498.713L195.117 498.839L194.991 498.965L194.864 499.092L194.738 499.218L194.611 499.345L194.485 499.471L194.359 499.598L194.232 499.724L194.106 499.851L193.979 499.977L193.853 500.104L193.726 500.23L193.6 500.356L193.473 500.483L193.347 500.609L193.22 500.736L193.094 500.862L192.968 500.989L192.841 501.115L192.715 501.242L192.588 501.368L192.462 501.495L192.335 501.621L192.209 501.747L192.082 501.874L191.956 502L191.829 502.127L191.703 502.253L191.577 502.38L191.45 502.506L191.324 502.633L191.197 502.759L191.071 502.886L190.944 503.012L190.818 503.138L190.691 503.265L190.565 503.391L190.438 503.518L190.312 503.644L190.186 503.771L190.059 503.897L189.933 504.024L189.806 504.15L189.68 504.277L189.553 504.403L189.427 504.529L189.3 504.656L189.174 504.782L189.047 504.909L188.921 505.035L188.795 505.162L188.668 505.288L188.542 505.415L188.415 505.541L188.289 505.668L188.162 505.794L188.036 505.92L187.909 506.047L187.783 506.173L187.656 506.3L187.53 506.426L187.404 506.553L187.277 506.679L187.151 506.806L187.024 506.932L186.898 507.059L186.771 507.185L186.645 507.311L186.518 507.438C181.824 512.132 178.603 513.31 176.394 513.322C174.211 513.334 171.043 512.214 166.427 507.598L166.298 507.469L166.17 507.34L166.041 507.212L165.912 507.083L165.784 506.954L165.655 506.826L165.526 506.697L165.398 506.569L165.269 506.44L165.141 506.311L165.012 506.183L164.883 506.054L164.755 505.926L164.626 505.797L164.497 505.668L164.369 505.54L164.24 505.411L164.112 505.282L163.983 505.154L163.854 505.025L163.726 504.897L163.597 504.768L163.469 504.639L163.34 504.511L163.211 504.382L163.083 504.254L162.954 504.125L162.825 503.996L162.697 503.868L162.568 503.739L162.44 503.61L162.311 503.482L162.182 503.353L162.054 503.225L161.925 503.096L161.797 502.967L161.668 502.839L161.539 502.71L161.411 502.582L161.282 502.453L161.153 502.324L161.025 502.196L160.896 502.067L160.768 501.938L160.639 501.81L160.51 501.681L160.382 501.553L160.253 501.424L160.125 501.295L159.996 501.167L159.867 501.038L159.739 500.91L159.61 500.781L159.481 500.652L159.353 500.524L159.224 500.395L159.096 500.266L158.967 500.138L158.838 500.009L158.71 499.881L158.581 499.752L158.453 499.623L158.324 499.495L158.195 499.366L158.067 499.238L157.938 499.109L157.809 498.98L157.681 498.852L157.552 498.723L157.424 498.594L157.295 498.466L157.166 498.337L157.038 498.209L156.909 498.08L156.781 497.951L156.652 497.823L156.523 497.694L156.395 497.566L156.266 497.437L156.137 497.308L156.009 497.18L155.88 497.051L155.752 496.922L155.623 496.794L155.494 496.665L155.366 496.537L155.237 496.408L155.109 496.279L154.98 496.151L154.851 496.022L154.723 495.894L154.594 495.765L154.465 495.636L154.337 495.508L154.208 495.379L154.08 495.25L153.951 495.122L153.822 494.993L153.694 494.865L153.565 494.736L153.437 494.607L153.308 494.479L153.179 494.35L153.051 494.221L152.922 494.093L152.793 493.964L152.665 493.836L152.536 493.707L152.408 493.578L152.279 493.45L152.15 493.321L152.022 493.193L151.893 493.064L151.765 492.935L151.636 492.807L151.507 492.678L151.379 492.549L151.25 492.421L151.121 492.292L150.993 492.164L150.864 492.035L150.736 491.906L150.607 491.778L150.478 491.649L150.35 491.521L150.221 491.392L150.093 491.263L149.964 491.135L149.835 491.006L149.707 490.877L149.578 490.749L149.449 490.62L149.321 490.492L149.192 490.363L149.064 490.234L148.935 490.106L148.806 489.977L148.678 489.849L148.549 489.72L148.42 489.591L148.292 489.463L148.163 489.334L148.035 489.205L147.906 489.077L147.777 488.948L147.649 488.82L147.52 488.691L147.392 488.562L147.263 488.434L147.134 488.305L147.006 488.177L146.877 488.048L146.748 487.919L146.62 487.791L146.491 487.662L146.363 487.533L146.234 487.405L146.105 487.276L145.977 487.148L145.848 487.019L145.72 486.89L145.591 486.762L145.462 486.633L145.334 486.505L145.205 486.376L145.076 486.247L144.948 486.119L144.819 485.99L144.691 485.861L144.562 485.733L144.433 485.604L144.305 485.476L144.176 485.347L144.048 485.218L143.919 485.09L143.79 484.961L143.662 484.833L143.533 484.704L143.404 484.575L143.276 484.447L143.147 484.318L143.019 484.189L142.89 484.061L142.761 483.932L142.633 483.804L142.504 483.675L142.376 483.546L142.247 483.418L142.118 483.289L141.99 483.161L141.861 483.032L141.732 482.903L141.604 482.775L141.475 482.646L141.347 482.517L141.218 482.389L141.089 482.26L140.961 482.132L140.832 482.003L140.704 481.874L140.575 481.746L140.446 481.617L140.318 481.488L140.189 481.36L140.06 481.231L139.932 481.103L139.803 480.974L139.675 480.845L139.546 480.717L139.417 480.588L139.289 480.46L139.16 480.331L139.032 480.202L138.903 480.074L138.774 479.945L138.646 479.816L138.517 479.688L138.388 479.559L138.26 479.431L138.131 479.302L138.003 479.173L137.874 479.045L137.745 478.916L137.617 478.788L137.488 478.659L137.36 478.53L137.231 478.402L137.102 478.273L136.974 478.144L136.845 478.016L136.716 477.887L136.588 477.759L136.459 477.63L136.331 477.501L136.202 477.373L136.073 477.244L135.945 477.116L135.816 476.987L135.688 476.858L135.559 476.73L135.43 476.601L135.302 476.472L135.173 476.344L135.044 476.215L134.916 476.087L134.787 475.958L134.659 475.829L134.53 475.701L134.401 475.572L134.273 475.444L134.144 475.315L134.015 475.186L133.887 475.058L133.758 474.929L133.63 474.8L133.501 474.672L133.372 474.543L133.244 474.415L133.115 474.286L132.987 474.157L132.858 474.029L132.729 473.9L132.601 473.772L132.472 473.643L132.343 473.514L132.215 473.386L132.086 473.257L131.958 473.128L131.829 473L131.7 472.871L131.572 472.743L131.443 472.614L131.315 472.485L131.186 472.357L131.057 472.228L130.929 472.1L130.8 471.971L130.671 471.842L130.543 471.714L130.414 471.585L130.286 471.456L130.157 471.328L130.028 471.199L129.9 471.071L129.771 470.942L129.643 470.813L129.514 470.685L129.385 470.556L129.257 470.428L129.128 470.299L128.999 470.17L128.871 470.042L128.742 469.913L128.614 469.784L128.485 469.656L128.356 469.527L128.228 469.399L128.099 469.27L127.971 469.141L127.842 469.013L127.713 468.884L127.585 468.756L127.456 468.627L127.327 468.498L127.199 468.37L127.07 468.241L126.942 468.112L126.813 467.984L126.684 467.855L126.556 467.727L126.427 467.598L126.299 467.469L126.17 467.341L126.041 467.212L125.913 467.083L125.784 466.955L125.655 466.826L125.527 466.698L125.398 466.569L125.27 466.44L125.141 466.312L125.012 466.183L124.884 466.055L124.755 465.926L124.627 465.797L124.498 465.669L124.369 465.54L124.241 465.412L124.112 465.283L123.983 465.154L123.855 465.026L123.726 464.897L123.598 464.768L123.469 464.64L123.34 464.511L123.212 464.383L123.083 464.254L122.955 464.125L122.826 463.997L122.697 463.868L122.569 463.739L122.44 463.611L122.311 463.482L122.183 463.354L122.054 463.225L121.926 463.096L121.797 462.968L121.668 462.839L121.54 462.711L121.411 462.582L121.283 462.453L121.154 462.325L121.025 462.196L120.897 462.067L120.768 461.939L120.639 461.81L120.511 461.682L120.382 461.553L120.254 461.424L120.125 461.296L119.996 461.167L119.868 461.039L119.739 460.91L119.611 460.781L119.482 460.653L119.353 460.524L119.225 460.395L119.096 460.267L118.967 460.138L118.839 460.01L118.71 459.881L118.582 459.752L118.453 459.624L118.324 459.495L118.196 459.367L118.067 459.238L117.939 459.109L117.81 458.981L117.681 458.852L117.553 458.723L117.424 458.595L117.295 458.466L117.167 458.338L117.038 458.209L116.91 458.08L116.781 457.952L116.652 457.823L116.524 457.695L116.395 457.566L116.266 457.437L116.138 457.309L116.009 457.18L115.881 457.051L115.752 456.923L115.623 456.794L115.495 456.666L115.366 456.537L115.238 456.408L115.109 456.28L114.98 456.151L114.852 456.023L114.723 455.894L114.594 455.765L114.466 455.637L114.337 455.508L114.209 455.379L114.08 455.251L113.951 455.122L113.823 454.994L113.694 454.865L113.566 454.736L113.437 454.608L113.308 454.479L113.18 454.351L113.051 454.222L112.922 454.093L112.794 453.965L112.665 453.836L112.537 453.707L112.408 453.579L112.279 453.45L112.151 453.322L112.022 453.193L111.894 453.064L111.765 452.936L111.636 452.807L111.508 452.679L111.379 452.55L111.25 452.421L111.122 452.293L110.993 452.164L110.865 452.035L110.736 451.907L110.607 451.778L110.479 451.65L110.35 451.521L110.222 451.392L110.093 451.264L109.964 451.135L109.836 451.007L109.707 450.878L109.578 450.749L109.45 450.621L109.321 450.492L109.193 450.363L109.064 450.235L108.935 450.106L108.807 449.978L108.678 449.849L108.55 449.72L108.421 449.592L108.292 449.463L108.164 449.334L108.035 449.206L107.906 449.077L107.778 448.949L107.649 448.82L107.521 448.691L107.392 448.563L107.263 448.434L107.135 448.306L107.006 448.177L106.878 448.048L106.749 447.92L106.62 447.791L106.492 447.662L106.363 447.534L106.234 447.405L106.106 447.277L105.977 447.148L105.849 447.019L105.72 446.891L105.591 446.762L105.463 446.634L105.334 446.505L105.206 446.376L105.077 446.248L104.948 446.119L104.82 445.99L104.691 445.862L104.562 445.733L104.434 445.605L104.305 445.476L104.177 445.347L104.048 445.219L103.919 445.09L103.791 444.962L103.662 444.833L103.533 444.704L103.405 444.576L103.276 444.447L103.148 444.318L103.019 444.19L102.89 444.061L102.762 443.933L102.633 443.804L102.505 443.675L102.376 443.547L102.247 443.418L102.119 443.29L101.99 443.161L101.861 443.032L101.733 442.904L101.604 442.775L101.476 442.646L101.347 442.518L101.218 442.389L101.09 442.261L100.961 442.132L100.833 442.003L100.704 441.875L100.575 441.746C96.0697 437.24 94.9069 434.004 94.9101 431.704C94.9133 429.387 96.0999 426.124 100.601 421.577L355.344 338.824Z" stroke="url(#paint0_angular_43_492)" stroke-width="14"/>
</g>
<defs>
<filter id="filter0_b_43_492" x="-41.3691" y="-41.3696" width="605.563" height="603.692" filterUnits="userSpaceOnUse" color-interpolation-filters="sRGB">
<feFlood flood-opacity="0" result="BackgroundImageFix"/>
<feGaussianBlur in="BackgroundImageFix" stdDeviation="21"/>
<feComposite in2="SourceAlpha" operator="in" result="effect1_backgroundBlur_43_492"/>
<feBlend mode="normal" in="SourceGraphic" in2="effect1_backgroundBlur_43_492" result="shape"/>
</filter>
<radialGradient id="paint0_angular_43_492" cx="0" cy="0" r="1" gradientUnits="userSpaceOnUse" gradientTransform="translate(116.084 148.115) rotate(68.2917) scale(230.656 889.247)">
<stop stop-color="#4606A0"/>
<stop offset="0.0876184" stop-color="#5614B3"/>
<stop offset="0.377633" stop-color="#8239E5"/>
<stop offset="0.39255" stop-color="#843BE8"/>
<stop offset="0.545521" stop-color="#994DFF"/>
<stop offset="0.929927" stop-color="#E3A4FF"/>
</radialGradient>
</defs>
</svg>
