<svg width="749" height="749" viewBox="0 0 749 749" fill="none" xmlns="http://www.w3.org/2000/svg">
<g opacity="0.3">
<path d="M402.871 676.044C402.871 671.544 406.522 667.894 411.021 667.894C415.521 667.894 419.171 671.544 419.171 676.044C419.171 680.543 415.521 684.194 411.021 684.194C406.522 684.194 402.871 680.543 402.871 676.044Z" fill="#8239E5"/>
<path d="M378.431 676.034C378.431 671.535 382.082 667.884 386.581 667.884C391.08 667.884 394.731 671.535 394.731 676.034C394.731 680.533 391.08 684.184 386.581 684.184C382.082 684.184 378.431 680.533 378.431 676.034Z" fill="#8239E5"/>
<path d="M353.971 676.044C353.971 671.544 357.622 667.894 362.121 667.894C366.621 667.894 370.262 671.535 370.271 676.044C370.271 680.543 366.621 684.194 362.121 684.194C357.622 684.194 353.971 680.543 353.971 676.044Z" fill="#8239E5"/>
<path d="M329.531 676.034C329.531 671.535 333.182 667.884 337.681 667.884C342.181 667.884 345.831 671.535 345.831 676.034C345.831 680.533 342.181 684.184 337.681 684.184C333.182 684.184 329.531 680.533 329.531 676.034Z" fill="#8239E5"/>
<path d="M402.871 651.89C402.871 647.391 406.522 643.74 411.021 643.74C415.521 643.74 419.171 647.391 419.171 651.89C419.171 656.389 415.521 660.04 411.021 660.04C406.522 660.04 402.871 656.389 402.871 651.89Z" fill="#8239E5"/>
<path d="M378.421 651.89C378.421 647.391 382.072 643.74 386.571 643.74C391.071 643.74 394.721 647.391 394.721 651.89C394.721 656.389 391.071 660.04 386.571 660.04C382.072 660.04 378.421 656.389 378.421 651.89Z" fill="#8239E5"/>
<path d="M353.981 651.9C353.981 647.4 357.632 643.75 362.131 643.75C366.631 643.75 370.281 647.4 370.281 651.9C370.281 656.399 366.631 660.05 362.131 660.05C357.632 660.05 353.981 656.399 353.981 651.9Z" fill="#8239E5"/>
<path d="M329.531 651.9C329.531 647.4 333.182 643.75 337.681 643.75C342.181 643.75 345.831 647.4 345.831 651.9C345.831 656.399 342.181 660.05 337.681 660.05C333.182 660.05 329.531 656.399 329.531 651.9Z" fill="#8239E5"/>
<path d="M402.871 700.513C402.871 696.014 406.522 692.363 411.021 692.363C415.521 692.363 419.171 696.014 419.171 700.513C419.171 705.013 415.521 708.663 411.021 708.663C406.522 708.663 402.871 705.013 402.871 700.513Z" fill="#8239E5"/>
<path d="M378.421 700.513C378.421 696.014 382.072 692.363 386.571 692.363C391.071 692.363 394.721 696.014 394.721 700.513C394.721 705.013 391.071 708.663 386.571 708.663C382.072 708.663 378.421 705.013 378.421 700.513Z" fill="#8239E5"/>
<path d="M353.972 700.513C353.972 696.014 357.622 692.363 362.122 692.363C366.621 692.363 370.271 696.014 370.271 700.513C370.271 705.013 366.631 708.653 362.122 708.663C357.622 708.663 353.972 705.013 353.972 700.513Z" fill="#8239E5"/>
<path d="M329.541 700.513C329.541 696.014 333.192 692.363 337.691 692.363C342.191 692.363 345.841 696.014 345.841 700.513C345.841 705.013 342.191 708.663 337.691 708.663C333.192 708.663 329.541 705.013 329.541 700.513Z" fill="#8239E5"/>
<path d="M378.421 724.667C378.421 720.168 382.072 716.517 386.571 716.517C391.071 716.517 394.721 720.168 394.721 724.667C394.721 729.166 391.071 732.817 386.571 732.817C382.072 732.817 378.421 729.167 378.421 724.667Z" fill="#8239E5"/>
<path d="M353.981 724.657C353.981 720.158 357.632 716.507 362.131 716.507C366.631 716.507 370.281 720.158 370.281 724.657C370.281 729.157 366.631 732.807 362.131 732.807C357.632 732.807 353.981 729.157 353.981 724.657Z" fill="#8239E5"/>
<path d="M402.861 627.746C402.861 623.246 406.512 619.596 411.011 619.596C415.511 619.596 419.161 623.246 419.161 627.746C419.161 632.245 415.511 635.896 411.011 635.896C406.512 635.896 402.861 632.245 402.861 627.746Z" fill="#8239E5"/>
<path d="M378.431 627.746C378.431 623.246 382.082 619.596 386.581 619.596C391.08 619.596 394.731 623.246 394.731 627.746C394.731 632.245 391.09 635.886 386.581 635.896C382.082 635.896 378.431 632.245 378.431 627.746Z" fill="#8239E5"/>
<path d="M353.981 627.746C353.981 623.246 357.622 619.605 362.131 619.596C366.631 619.596 370.281 623.246 370.281 627.746C370.281 632.245 366.631 635.896 362.131 635.896C357.632 635.896 353.981 632.245 353.981 627.746Z" fill="#8239E5"/>
<path d="M329.531 627.746C329.531 623.246 333.182 619.596 337.681 619.596C342.181 619.596 345.831 623.246 345.831 627.746C345.831 632.245 342.181 635.896 337.681 635.896C333.182 635.896 329.531 632.245 329.531 627.746Z" fill="#8239E5"/>
<path d="M402.871 603.602C402.871 599.102 406.522 595.452 411.021 595.452C415.521 595.452 419.171 599.102 419.171 603.602C419.171 608.101 415.521 611.752 411.021 611.752C406.522 611.752 402.871 608.101 402.871 603.602Z" fill="#8239E5"/>
<path d="M378.421 603.602C378.421 599.102 382.072 595.452 386.571 595.452C391.071 595.452 394.721 599.102 394.721 603.602C394.721 608.101 391.071 611.752 386.571 611.752C382.072 611.752 378.421 608.101 378.421 603.602Z" fill="#8239E5"/>
<path d="M353.981 603.592C353.981 599.092 357.632 595.442 362.131 595.442C366.631 595.442 370.281 599.092 370.281 603.592C370.281 608.091 366.631 611.742 362.131 611.742C357.632 611.742 353.981 608.091 353.981 603.592Z" fill="#8239E5"/>
<path d="M329.531 603.592C329.531 599.092 333.182 595.442 337.681 595.442C342.181 595.442 345.831 599.092 345.831 603.592C345.831 608.091 342.181 611.742 337.681 611.742C333.182 611.742 329.531 608.091 329.531 603.592Z" fill="#8239E5"/>
<path d="M402.871 579.448C402.871 574.948 406.522 571.298 411.021 571.298C415.521 571.298 419.171 574.948 419.171 579.448C419.171 583.947 415.521 587.598 411.021 587.598C406.522 587.598 402.871 583.947 402.871 579.448Z" fill="#8239E5"/>
<path d="M378.421 579.448C378.421 574.948 382.072 571.298 386.571 571.298C391.071 571.298 394.721 574.948 394.721 579.448C394.721 583.947 391.071 587.598 386.571 587.598C382.072 587.598 378.421 583.947 378.421 579.448Z" fill="#8239E5"/>
<path d="M353.971 579.448C353.971 574.948 357.622 571.298 362.121 571.298C366.621 571.298 370.271 574.948 370.271 579.448C370.271 583.947 366.621 587.598 362.121 587.598C357.622 587.598 353.971 583.947 353.971 579.448Z" fill="#8239E5"/>
<path d="M329.522 579.448C329.522 574.948 333.172 571.298 337.672 571.298C342.171 571.298 345.821 574.948 345.821 579.448C345.821 583.947 342.171 587.598 337.671 587.598C333.172 587.598 329.522 583.947 329.522 579.448Z" fill="#8239E5"/>
<path d="M402.871 555.294C402.871 550.794 406.522 547.144 411.021 547.144C415.521 547.144 419.171 550.794 419.171 555.294C419.171 559.793 415.521 563.444 411.021 563.444C406.522 563.444 402.871 559.793 402.871 555.294Z" fill="#8239E5"/>
<path d="M378.431 555.304C378.431 550.804 382.082 547.154 386.581 547.154C391.081 547.154 394.731 550.804 394.731 555.304C394.731 559.803 391.081 563.453 386.581 563.453C382.082 563.453 378.431 559.803 378.431 555.304Z" fill="#8239E5"/>
<path d="M353.981 555.304C353.981 550.804 357.632 547.154 362.131 547.154C366.631 547.154 370.281 550.804 370.281 555.304C370.281 559.803 366.631 563.454 362.131 563.454C357.632 563.454 353.981 559.803 353.981 555.304Z" fill="#8239E5"/>
<path d="M329.531 555.304C329.531 550.804 333.182 547.154 337.681 547.154C342.181 547.154 345.831 550.804 345.831 555.304C345.831 559.803 342.181 563.454 337.681 563.454C333.182 563.454 329.531 559.803 329.531 555.304Z" fill="#8239E5"/>
<path d="M402.871 531.159C402.871 526.66 406.522 523.01 411.021 523.01C415.521 523.01 419.171 526.66 419.171 531.159C419.171 535.659 415.521 539.309 411.021 539.309C406.522 539.309 402.871 535.659 402.871 531.159Z" fill="#8239E5"/>
<path d="M378.431 531.15C378.431 526.65 382.082 523 386.581 523C391.08 523 394.731 526.65 394.731 531.15C394.731 535.649 391.08 539.3 386.581 539.3C382.082 539.3 378.431 535.649 378.431 531.15Z" fill="#8239E5"/>
<path d="M353.981 531.15C353.981 526.65 357.632 523 362.131 523C366.631 523 370.281 526.65 370.281 531.15C370.281 535.649 366.631 539.3 362.131 539.3C357.632 539.3 353.981 535.649 353.981 531.15Z" fill="#8239E5"/>
<path d="M329.531 531.15C329.531 526.65 333.182 523 337.681 523C342.181 523 345.831 526.65 345.831 531.15C345.831 535.649 342.181 539.3 337.681 539.3C333.182 539.3 329.531 535.649 329.531 531.15Z" fill="#8239E5"/>
<path d="M402.871 507.006C402.871 502.506 406.522 498.856 411.021 498.856C415.521 498.856 419.161 502.496 419.171 507.006C419.171 511.505 415.521 515.156 411.021 515.156C406.522 515.156 402.871 511.505 402.871 507.006Z" fill="#8239E5"/>
<path d="M378.421 507.006C378.421 502.506 382.072 498.856 386.571 498.856C391.071 498.856 394.721 502.506 394.721 507.006C394.721 511.505 391.071 515.156 386.571 515.156C382.072 515.156 378.421 511.505 378.421 507.006Z" fill="#8239E5"/>
<path d="M353.971 507.006C353.971 502.506 357.622 498.856 362.121 498.856C366.621 498.856 370.271 502.506 370.271 507.006C370.271 511.505 366.621 515.156 362.121 515.156C357.622 515.156 353.971 511.505 353.971 507.006Z" fill="#8239E5"/>
<path d="M329.531 506.996C329.531 502.497 333.182 498.846 337.681 498.846C342.181 498.846 345.831 502.497 345.831 506.996C345.831 511.495 342.181 515.146 337.681 515.146C333.182 515.146 329.531 511.495 329.531 506.996Z" fill="#8239E5"/>
<path d="M402.871 482.852C402.871 478.352 406.522 474.702 411.021 474.702C415.521 474.702 419.171 478.352 419.171 482.852C419.171 487.351 415.521 491.002 411.021 491.002C406.522 491.002 402.871 487.351 402.871 482.852Z" fill="#8239E5"/>
<path d="M378.421 482.852C378.421 478.352 382.072 474.702 386.571 474.702C391.071 474.702 394.711 478.343 394.721 482.852C394.721 487.351 391.071 491.002 386.571 491.002C382.072 491.002 378.421 487.351 378.421 482.852Z" fill="#8239E5"/>
<path d="M353.981 482.862C353.981 478.362 357.632 474.712 362.131 474.712C366.631 474.712 370.281 478.362 370.281 482.862C370.281 487.361 366.631 491.012 362.131 491.012C357.632 491.012 353.981 487.361 353.981 482.862Z" fill="#8239E5"/>
<path d="M329.531 482.862C329.531 478.362 333.182 474.712 337.681 474.712C342.181 474.712 345.821 478.352 345.831 482.862C345.831 487.361 342.181 491.012 337.681 491.012C333.182 491.012 329.531 487.361 329.531 482.862Z" fill="#8239E5"/>
<path d="M402.881 458.708C402.881 454.208 406.532 450.558 411.031 450.558C415.53 450.558 419.181 454.208 419.181 458.708C419.181 463.207 415.53 466.858 411.031 466.858C406.532 466.858 402.881 463.207 402.881 458.708Z" fill="#8239E5"/>
<path d="M378.431 458.708C378.431 454.208 382.082 450.558 386.581 450.558C391.081 450.558 394.731 454.208 394.731 458.708C394.731 463.207 391.081 466.858 386.581 466.858C382.082 466.858 378.431 463.207 378.431 458.708Z" fill="#8239E5"/>
<path d="M353.981 458.708C353.981 454.208 357.632 450.558 362.131 450.558C366.631 450.558 370.271 454.198 370.281 458.708C370.281 463.207 366.631 466.858 362.131 466.858C357.632 466.858 353.981 463.207 353.981 458.708Z" fill="#8239E5"/>
<path d="M329.531 458.708C329.531 454.208 333.182 450.558 337.681 450.558C342.181 450.558 345.831 454.208 345.831 458.708C345.831 463.207 342.181 466.858 337.681 466.858C333.182 466.858 329.531 463.207 329.531 458.708Z" fill="#8239E5"/>
<path d="M402.871 434.564C402.871 430.064 406.522 426.414 411.021 426.414C415.521 426.414 419.171 430.064 419.171 434.564C419.171 439.063 415.521 442.714 411.021 442.714C406.522 442.714 402.871 439.063 402.871 434.564Z" fill="#8239E5"/>
<path d="M378.421 434.564C378.421 430.064 382.072 426.414 386.571 426.414C391.071 426.414 394.721 430.064 394.721 434.564C394.721 439.063 391.071 442.714 386.571 442.714C382.072 442.714 378.421 439.063 378.421 434.564Z" fill="#8239E5"/>
<path d="M353.981 434.554C353.981 430.054 357.622 426.414 362.131 426.404C366.631 426.404 370.271 430.045 370.281 434.554C370.281 439.053 366.631 442.704 362.131 442.704C357.632 442.704 353.981 439.053 353.981 434.554Z" fill="#8239E5"/>
<path d="M329.531 434.554C329.531 430.054 333.182 426.404 337.681 426.404C342.181 426.404 345.831 430.054 345.831 434.554C345.831 439.053 342.181 442.704 337.681 442.704C333.182 442.704 329.531 439.053 329.531 434.554Z" fill="#8239E5"/>
<path d="M402.871 410.41C402.871 405.91 406.522 402.26 411.021 402.26C415.521 402.26 419.171 405.91 419.171 410.41C419.171 414.909 415.521 418.56 411.021 418.56C406.522 418.56 402.871 414.909 402.871 410.41Z" fill="#8239E5"/>
<path d="M378.431 410.42C378.431 405.92 382.082 402.27 386.581 402.27C391.081 402.27 394.721 405.91 394.731 410.419C394.731 414.919 391.081 418.569 386.581 418.569C382.082 418.569 378.431 414.919 378.431 410.42Z" fill="#8239E5"/>
<path d="M353.981 410.419C353.981 405.92 357.622 402.279 362.131 402.269C366.631 402.269 370.281 405.92 370.281 410.419C370.281 414.919 366.631 418.569 362.131 418.569C357.632 418.569 353.981 414.919 353.981 410.419Z" fill="#8239E5"/>
<path d="M329.531 410.42C329.531 405.92 333.182 402.27 337.681 402.27C342.181 402.27 345.831 405.92 345.831 410.419C345.831 414.919 342.181 418.569 337.681 418.569C333.182 418.569 329.531 414.919 329.531 410.42Z" fill="#8239E5"/>
<path d="M402.871 386.275C402.871 381.776 406.522 378.125 411.021 378.125C415.521 378.125 419.171 381.776 419.171 386.275C419.171 390.775 415.521 394.425 411.021 394.425C406.522 394.425 402.871 390.775 402.871 386.275Z" fill="#8239E5"/>
<path d="M378.431 386.266C378.431 381.766 382.082 378.116 386.581 378.116C391.08 378.116 394.731 381.766 394.731 386.266C394.731 390.765 391.08 394.416 386.581 394.416C382.082 394.416 378.431 390.765 378.431 386.266Z" fill="#8239E5"/>
<path d="M353.981 386.266C353.981 381.766 357.632 378.116 362.131 378.116C366.631 378.116 370.281 381.766 370.281 386.266C370.281 390.765 366.631 394.416 362.131 394.416C357.632 394.416 353.981 390.765 353.981 386.266Z" fill="#8239E5"/>
<path d="M329.531 386.266C329.531 381.766 333.182 378.116 337.681 378.116C342.181 378.116 345.831 381.766 345.831 386.266C345.831 390.765 342.181 394.416 337.681 394.416C333.182 394.416 329.531 390.765 329.531 386.266Z" fill="#8239E5"/>
<path d="M402.871 362.122C402.871 357.622 406.522 353.972 411.021 353.972C415.521 353.972 419.171 357.622 419.171 362.122C419.171 366.621 415.521 370.272 411.021 370.272C406.522 370.272 402.871 366.621 402.871 362.122Z" fill="#8239E5"/>
<path d="M378.421 362.122C378.421 357.622 382.072 353.972 386.571 353.972C391.071 353.972 394.721 357.622 394.721 362.122C394.721 366.621 391.071 370.272 386.571 370.272C382.072 370.272 378.421 366.621 378.421 362.122Z" fill="#8239E5"/>
<path d="M353.972 362.122C353.972 357.622 357.622 353.972 362.122 353.972C366.621 353.972 370.271 357.622 370.271 362.122C370.271 366.621 366.621 370.271 362.122 370.271C357.622 370.271 353.972 366.621 353.972 362.122Z" fill="#8239E5"/>
<path d="M329.531 362.112C329.531 357.612 333.182 353.962 337.681 353.962C342.181 353.962 345.831 357.612 345.831 362.112C345.831 366.611 342.181 370.262 337.681 370.262C333.182 370.262 329.531 366.611 329.531 362.112Z" fill="#8239E5"/>
<path d="M402.871 337.968C402.871 333.468 406.522 329.818 411.021 329.818C415.521 329.818 419.171 333.468 419.171 337.968C419.171 342.467 415.521 346.118 411.021 346.118C406.522 346.118 402.871 342.467 402.871 337.968Z" fill="#8239E5"/>
<path d="M378.431 337.977C378.431 333.478 382.082 329.827 386.581 329.827C391.081 329.827 394.721 333.468 394.731 337.977C394.731 342.477 391.081 346.127 386.581 346.127C382.082 346.127 378.431 342.477 378.431 337.977Z" fill="#8239E5"/>
<path d="M353.981 337.977C353.981 333.478 357.632 329.827 362.131 329.827C366.631 329.827 370.281 333.478 370.281 337.977C370.281 342.477 366.631 346.127 362.131 346.127C357.632 346.127 353.981 342.477 353.981 337.977Z" fill="#8239E5"/>
<path d="M329.531 337.977C329.531 333.478 333.182 329.827 337.681 329.827C342.181 329.827 345.831 333.478 345.831 337.977C345.831 342.477 342.181 346.127 337.681 346.127C333.182 346.127 329.531 342.477 329.531 337.977Z" fill="#8239E5"/>
<path d="M402.861 313.823C402.861 309.324 406.512 305.674 411.011 305.674C415.511 305.674 419.161 309.324 419.161 313.823C419.161 318.323 415.511 321.973 411.011 321.973C406.512 321.973 402.861 318.323 402.861 313.823Z" fill="#8239E5"/>
<path d="M378.431 313.823C378.431 309.324 382.082 305.674 386.581 305.674C391.08 305.674 394.731 309.324 394.731 313.823C394.731 318.323 391.08 321.973 386.581 321.973C382.082 321.973 378.431 318.323 378.431 313.823Z" fill="#8239E5"/>
<path d="M353.981 313.823C353.981 309.324 357.632 305.674 362.131 305.674C366.631 305.674 370.281 309.324 370.281 313.823C370.281 318.323 366.631 321.973 362.131 321.973C357.632 321.973 353.981 318.323 353.981 313.823Z" fill="#8239E5"/>
<path d="M329.531 313.823C329.531 309.324 333.182 305.673 337.681 305.673C342.181 305.673 345.831 309.324 345.831 313.823C345.831 318.323 342.181 321.973 337.681 321.973C333.182 321.973 329.531 318.323 329.531 313.823Z" fill="#8239E5"/>
<path d="M402.871 289.679C402.871 285.18 406.522 281.529 411.021 281.529C415.521 281.529 419.171 285.18 419.171 289.679C419.171 294.179 415.521 297.829 411.021 297.829C406.522 297.829 402.871 294.179 402.871 289.679Z" fill="#8239E5"/>
<path d="M378.421 289.679C378.421 285.18 382.072 281.529 386.571 281.529C391.071 281.529 394.721 285.18 394.721 289.679C394.721 294.179 391.071 297.829 386.571 297.829C382.072 297.829 378.421 294.179 378.421 289.679Z" fill="#8239E5"/>
<path d="M353.981 289.67C353.981 285.17 357.632 281.52 362.131 281.52C366.631 281.52 370.281 285.17 370.281 289.67C370.281 294.169 366.631 297.82 362.131 297.82C357.632 297.82 353.981 294.169 353.981 289.67Z" fill="#8239E5"/>
<path d="M329.531 289.67C329.531 285.17 333.182 281.52 337.681 281.52C342.181 281.52 345.831 285.17 345.831 289.67C345.831 294.169 342.181 297.82 337.681 297.82C333.182 297.82 329.531 294.169 329.531 289.67Z" fill="#8239E5"/>
<path d="M402.871 265.526C402.871 261.026 406.522 257.376 411.021 257.376C415.521 257.376 419.171 261.026 419.171 265.526C419.171 270.025 415.521 273.675 411.021 273.675C406.522 273.675 402.871 270.025 402.871 265.526Z" fill="#8239E5"/>
<path d="M378.421 265.526C378.421 261.026 382.072 257.376 386.571 257.376C391.071 257.376 394.721 261.026 394.721 265.526C394.721 270.025 391.071 273.675 386.571 273.675C382.072 273.675 378.421 270.025 378.421 265.526Z" fill="#8239E5"/>
<path d="M353.981 265.535C353.981 261.036 357.632 257.385 362.131 257.385C366.631 257.385 370.281 261.036 370.281 265.535C370.281 270.035 366.631 273.685 362.131 273.685C357.632 273.685 353.981 270.035 353.981 265.535Z" fill="#8239E5"/>
<path d="M329.531 265.535C329.531 261.036 333.182 257.385 337.681 257.385C342.181 257.385 345.831 261.036 345.831 265.535C345.831 270.035 342.181 273.685 337.681 273.685C333.182 273.685 329.531 270.035 329.531 265.535Z" fill="#8239E5"/>
<path d="M402.871 241.372C402.871 236.872 406.522 233.222 411.021 233.222C415.521 233.222 419.171 236.872 419.171 241.372C419.171 245.871 415.521 249.522 411.021 249.522C406.522 249.522 402.871 245.871 402.871 241.372Z" fill="#8239E5"/>
<path d="M378.431 241.381C378.431 236.882 382.082 233.231 386.581 233.231C391.08 233.231 394.731 236.882 394.731 241.381C394.731 245.881 391.08 249.531 386.581 249.531C382.082 249.531 378.431 245.881 378.431 241.381Z" fill="#8239E5"/>
<path d="M353.981 241.381C353.981 236.882 357.632 233.231 362.131 233.231C366.631 233.231 370.281 236.882 370.281 241.381C370.281 245.881 366.631 249.531 362.131 249.531C357.632 249.531 353.981 245.881 353.981 241.381Z" fill="#8239E5"/>
<path d="M329.531 241.381C329.531 236.882 333.182 233.231 337.681 233.231C342.181 233.231 345.831 236.882 345.831 241.381C345.831 245.881 342.181 249.531 337.681 249.531C333.182 249.531 329.531 245.881 329.531 241.381Z" fill="#8239E5"/>
<path d="M402.871 217.237C402.871 212.738 406.522 209.087 411.021 209.087C415.521 209.087 419.171 212.738 419.171 217.237C419.171 221.737 415.521 225.387 411.021 225.387C406.522 225.387 402.871 221.737 402.871 217.237Z" fill="#8239E5"/>
<path d="M378.431 217.228C378.431 212.728 382.082 209.078 386.581 209.078C391.08 209.078 394.731 212.728 394.731 217.228C394.731 221.727 391.08 225.378 386.581 225.378C382.082 225.378 378.431 221.727 378.431 217.228Z" fill="#8239E5"/>
<path d="M353.981 217.228C353.981 212.728 357.632 209.078 362.131 209.078C366.631 209.078 370.271 212.718 370.281 217.228C370.281 221.727 366.64 225.368 362.131 225.378C357.632 225.378 353.981 221.727 353.981 217.228Z" fill="#8239E5"/>
<path d="M329.531 217.228C329.531 212.728 333.182 209.078 337.681 209.078C342.181 209.078 345.831 212.728 345.831 217.228C345.831 221.727 342.181 225.378 337.681 225.378C333.182 225.378 329.531 221.727 329.531 217.228Z" fill="#8239E5"/>
<path d="M402.871 193.083C402.871 188.584 406.522 184.933 411.021 184.933C415.521 184.933 419.171 188.584 419.171 193.083C419.171 197.583 415.521 201.233 411.021 201.233C406.522 201.233 402.871 197.583 402.871 193.083Z" fill="#8239E5"/>
<path d="M378.431 193.093C378.431 188.594 382.082 184.943 386.581 184.943C391.081 184.943 394.721 188.584 394.731 193.093C394.731 197.593 391.08 201.243 386.581 201.243C382.082 201.243 378.431 197.593 378.431 193.093Z" fill="#8239E5"/>
<path d="M353.971 193.083C353.971 188.584 357.622 184.933 362.121 184.933C366.621 184.933 370.271 188.584 370.271 193.083C370.271 197.583 366.621 201.233 362.121 201.233C357.622 201.233 353.971 197.583 353.971 193.083Z" fill="#8239E5"/>
<path d="M329.531 193.093C329.531 188.594 333.182 184.943 337.681 184.943C342.181 184.943 345.831 188.594 345.831 193.093C345.831 197.593 342.181 201.243 337.681 201.243C333.182 201.243 329.531 197.593 329.531 193.093Z" fill="#8239E5"/>
<path d="M402.871 168.929C402.871 164.43 406.522 160.78 411.021 160.78C415.521 160.78 419.171 164.43 419.171 168.93C419.171 173.429 415.521 177.079 411.021 177.079C406.522 177.079 402.871 173.429 402.871 168.929Z" fill="#8239E5"/>
<path d="M378.431 168.939C378.431 164.44 382.082 160.789 386.581 160.789C391.08 160.789 394.731 164.44 394.731 168.939C394.731 173.439 391.08 177.089 386.581 177.089C382.082 177.089 378.431 173.439 378.431 168.939Z" fill="#8239E5"/>
<path d="M353.981 168.939C353.981 164.44 357.632 160.789 362.131 160.789C366.631 160.789 370.281 164.44 370.281 168.939C370.281 173.439 366.631 177.089 362.131 177.089C357.632 177.089 353.981 173.439 353.981 168.939Z" fill="#8239E5"/>
<path d="M329.531 168.939C329.531 164.44 333.182 160.789 337.681 160.789C342.181 160.789 345.831 164.44 345.831 168.939C345.831 173.439 342.181 177.089 337.681 177.089C333.182 177.089 329.531 173.439 329.531 168.939Z" fill="#8239E5"/>
<path d="M402.871 144.795C402.871 140.296 406.522 136.645 411.021 136.645C415.521 136.645 419.171 140.296 419.171 144.795C419.171 149.295 415.521 152.945 411.021 152.945C406.522 152.945 402.871 149.295 402.871 144.795Z" fill="#8239E5"/>
<path d="M378.421 144.795C378.421 140.296 382.072 136.645 386.571 136.645C391.071 136.645 394.721 140.296 394.721 144.795C394.721 149.295 391.08 152.935 386.571 152.945C382.072 152.945 378.421 149.295 378.421 144.795Z" fill="#8239E5"/>
<path d="M353.981 144.785C353.981 140.286 357.632 136.636 362.131 136.636C366.631 136.636 370.281 140.286 370.281 144.785C370.281 149.285 366.631 152.935 362.131 152.935C357.632 152.935 353.981 149.285 353.981 144.785Z" fill="#8239E5"/>
<path d="M329.531 144.785C329.531 140.286 333.182 136.635 337.681 136.635C342.181 136.635 345.831 140.286 345.831 144.785C345.831 149.285 342.181 152.935 337.681 152.935C333.182 152.935 329.531 149.285 329.531 144.785Z" fill="#8239E5"/>
<path d="M402.871 120.641C402.871 116.142 406.522 112.491 411.021 112.491C415.521 112.491 419.171 116.142 419.171 120.641C419.171 125.141 415.521 128.791 411.021 128.791C406.522 128.791 402.871 125.141 402.871 120.641Z" fill="#8239E5"/>
<path d="M378.421 120.641C378.421 116.142 382.072 112.491 386.571 112.491C391.071 112.491 394.721 116.142 394.721 120.641C394.721 125.141 391.08 128.782 386.571 128.791C382.072 128.791 378.421 125.141 378.421 120.641Z" fill="#8239E5"/>
<path d="M353.971 120.641C353.971 116.142 357.622 112.491 362.121 112.491C366.621 112.491 370.271 116.142 370.271 120.641C370.271 125.141 366.631 128.782 362.121 128.791C357.622 128.791 353.971 125.141 353.971 120.641Z" fill="#8239E5"/>
<path d="M329.541 120.641C329.541 116.142 333.192 112.491 337.691 112.491C342.19 112.491 345.841 116.142 345.841 120.641C345.841 125.141 342.19 128.791 337.691 128.791C333.192 128.791 329.541 125.141 329.541 120.641Z" fill="#8239E5"/>
<path d="M402.871 96.4875C402.871 91.9882 406.522 88.3375 411.021 88.3375C415.521 88.3375 419.171 91.9882 419.171 96.4875C419.171 100.987 415.521 104.637 411.021 104.637C406.522 104.637 402.871 100.987 402.871 96.4875Z" fill="#8239E5"/>
<path d="M378.431 96.4973C378.431 91.998 382.082 88.3473 386.581 88.3473C391.08 88.3473 394.731 91.9981 394.731 96.4973C394.731 100.997 391.08 104.647 386.581 104.647C382.082 104.647 378.431 100.997 378.431 96.4973Z" fill="#8239E5"/>
<path d="M353.981 96.4973C353.981 91.9981 357.632 88.3474 362.131 88.3474C366.631 88.3474 370.281 91.9981 370.281 96.4973C370.281 100.997 366.631 104.647 362.131 104.647C357.632 104.647 353.981 100.997 353.981 96.4973Z" fill="#8239E5"/>
<path d="M329.531 96.4974C329.531 91.9981 333.182 88.3474 337.681 88.3474C342.181 88.3474 345.831 91.9981 345.831 96.4974C345.831 100.997 342.181 104.647 337.681 104.647C333.182 104.647 329.531 100.997 329.531 96.4974Z" fill="#8239E5"/>
<path d="M402.871 72.3533C402.871 67.854 406.522 64.2033 411.021 64.2033C415.521 64.2033 419.171 67.854 419.171 72.3533C419.171 76.8525 415.521 80.5032 411.021 80.5032C406.522 80.5032 402.871 76.8525 402.871 72.3533Z" fill="#8239E5"/>
<path d="M378.431 72.3433C378.431 67.8441 382.082 64.1934 386.581 64.1934C391.081 64.1934 394.731 67.8441 394.731 72.3433C394.731 76.8426 391.08 80.4933 386.581 80.4933C382.082 80.4933 378.431 76.8426 378.431 72.3433Z" fill="#8239E5"/>
<path d="M353.981 72.3434C353.981 67.8441 357.632 64.1934 362.131 64.1934C366.631 64.1934 370.271 67.8343 370.281 72.3434C370.281 76.8426 366.631 80.4934 362.131 80.4934C357.632 80.4934 353.981 76.8426 353.981 72.3434Z" fill="#8239E5"/>
<path d="M329.531 72.3434C329.531 67.8441 333.182 64.1934 337.681 64.1934C342.181 64.1934 345.831 67.8441 345.831 72.3434C345.831 76.8426 342.181 80.4934 337.681 80.4934C333.182 80.4934 329.531 76.8427 329.531 72.3434Z" fill="#8239E5"/>
<path d="M402.871 48.1994C402.871 43.7001 406.522 40.0494 411.021 40.0494C415.521 40.0494 419.171 43.7001 419.171 48.1994C419.171 52.6986 415.521 56.3493 411.021 56.3493C406.522 56.3493 402.871 52.6986 402.871 48.1994Z" fill="#8239E5"/>
<path d="M378.421 48.1994C378.421 43.7001 382.072 40.0494 386.571 40.0494C391.071 40.0494 394.721 43.7001 394.721 48.1994C394.721 52.6986 391.071 56.3493 386.571 56.3493C382.072 56.3493 378.421 52.6986 378.421 48.1994Z" fill="#8239E5"/>
<path d="M353.972 48.1994C353.972 43.7001 357.622 40.0494 362.122 40.0494C366.621 40.0494 370.271 43.7001 370.271 48.1994C370.271 52.6987 366.621 56.3494 362.122 56.3494C357.622 56.3494 353.972 52.6987 353.972 48.1994Z" fill="#8239E5"/>
<path d="M329.522 48.1994C329.522 43.7001 333.172 40.0494 337.672 40.0494C342.171 40.0494 345.822 43.7001 345.822 48.1994C345.822 52.6986 342.171 56.3493 337.672 56.3493C333.172 56.3493 329.522 52.6986 329.522 48.1994Z" fill="#8239E5"/>
<path d="M378.431 24.0553C378.431 19.556 382.082 15.9053 386.581 15.9053C391.081 15.9053 394.731 19.556 394.731 24.0553C394.731 28.5545 391.08 32.2052 386.581 32.2052C382.082 32.2052 378.431 28.5545 378.431 24.0553Z" fill="#8239E5"/>
<path d="M353.981 24.0553C353.981 19.556 357.632 15.9053 362.131 15.9053C366.631 15.9053 370.281 19.556 370.281 24.0553C370.281 28.5546 366.631 32.2053 362.131 32.2053C357.632 32.2053 353.981 28.5545 353.981 24.0553Z" fill="#8239E5"/>
</g>
</svg>
