<svg width="137" height="138" viewBox="0 0 137 138" fill="none" xmlns="http://www.w3.org/2000/svg">
<path d="M109.826 69.1322C109.937 66.3804 108.908 63.7047 106.982 61.7362L57.466 11.124C53.6129 7.18564 47.3001 7.1059 43.3488 10.9457L11.196 42.1909C7.22575 46.0491 7.14566 52.3988 11.0174 56.356L60.5011 106.931C62.4182 108.891 65.0557 109.977 67.7967 109.937L98.7426 109.479C104.051 109.401 108.373 105.188 108.587 99.883L109.826 69.1322Z" stroke="url(#paint0_linear_168_4)" stroke-width="15" stroke-miterlimit="10"/>
<g filter="url(#filter0_b_168_4)">
<path d="M131.793 89.933C134.241 63.814 115.052 40.6556 88.933 38.2073C62.814 35.759 39.6556 54.9479 37.2073 81.0669C34.759 107.186 53.9479 130.344 80.067 132.793C106.186 135.241 129.344 116.052 131.793 89.933Z" fill="url(#paint1_linear_168_4)"/>
</g>
<defs>
<filter id="filter0_b_168_4" x="32.9968" y="33.9967" width="103.006" height="103.006" filterUnits="userSpaceOnUse" color-interpolation-filters="sRGB">
<feFlood flood-opacity="0" result="BackgroundImageFix"/>
<feGaussianBlur in="BackgroundImageFix" stdDeviation="2"/>
<feComposite in2="SourceAlpha" operator="in" result="effect1_backgroundBlur_168_4"/>
<feBlend mode="normal" in="SourceGraphic" in2="effect1_backgroundBlur_168_4" result="shape"/>
</filter>
<linearGradient id="paint0_linear_168_4" x1="0.633478" y1="52.8637" x2="113.729" y2="60.3614" gradientUnits="userSpaceOnUse">
<stop stop-color="#4606A0"/>
<stop offset="0.12" stop-color="#5614B3"/>
<stop offset="0.37" stop-color="#8239E5"/>
<stop offset="0.48" stop-color="#994DFF"/>
<stop offset="0.93" stop-color="#E3A4FF"/>
</linearGradient>
<linearGradient id="paint1_linear_168_4" x1="-62.3301" y1="211.681" x2="57.2197" y2="0.572905" gradientUnits="userSpaceOnUse">
<stop offset="0.614594" stop-color="#AB63FF" stop-opacity="0.4"/>
<stop offset="1" stop-color="white" stop-opacity="0"/>
</linearGradient>
</defs>
</svg>
