<svg width="33" height="32" viewBox="0 0 33 32" fill="none" xmlns="http://www.w3.org/2000/svg">
<path d="M16.4053 2.99126C20.5727 2.99126 21.0647 3.00594 22.7096 3.08305C24.2297 3.15281 25.0559 3.40616 25.6066 3.61912C26.3336 3.90184 26.855 4.23964 27.4021 4.78673C27.9492 5.33382 28.287 5.85153 28.5697 6.58221C28.7827 7.13297 29.036 7.95911 29.1058 9.4792C29.1792 11.1241 29.1976 11.6198 29.1976 15.7836C29.1976 19.9473 29.1829 20.443 29.1058 22.0879C29.036 23.608 28.7827 24.4342 28.5697 24.9849C28.287 25.7119 27.9492 26.2333 27.4021 26.7804C26.855 27.3275 26.3373 27.6653 25.6066 27.948C25.0559 28.161 24.2297 28.4143 22.7096 28.4841C21.0647 28.5575 20.5727 28.5759 16.4053 28.5759C12.2378 28.5759 11.7458 28.5612 10.1009 28.4841C8.5808 28.4143 7.75467 28.161 7.20391 27.948C6.47691 27.6653 5.95552 27.3275 5.40843 26.7804C4.86134 26.2333 4.52354 25.7156 4.24082 24.9849C4.02786 24.4342 3.77452 23.608 3.70475 22.0879C3.63132 20.443 3.61296 19.9473 3.61296 15.7836C3.61296 11.6198 3.62765 11.1241 3.70475 9.4792C3.77452 7.95911 4.02786 7.13297 4.24082 6.58221C4.52354 5.8552 4.86134 5.33382 5.40843 4.78673C5.95552 4.23964 6.47324 3.90184 7.20391 3.61912C7.75467 3.40616 8.5808 3.15281 10.1009 3.08305C11.7458 3.00961 12.2415 2.99126 16.4053 2.99126ZM16.4053 0.178711C12.1681 0.178711 11.6357 0.19707 9.9724 0.274176C8.31278 0.351282 7.17821 0.611975 6.18317 1.00118C5.15876 1.4014 4.28856 1.9338 3.41836 2.80033C2.55183 3.66685 2.01575 4.53705 1.61921 5.56514C1.23368 6.5565 0.969313 7.69107 0.892206 9.35436C0.8151 11.0177 0.796738 11.5501 0.796738 15.7872C0.796738 20.0244 0.8151 20.5568 0.892206 22.2201C0.969313 23.8797 1.23 25.0143 1.61921 26.0093C2.01943 27.0337 2.55183 27.9039 3.41836 28.7741C4.28489 29.6407 5.15509 30.1767 6.18317 30.5733C7.17454 30.9588 8.3091 31.2232 9.9724 31.3003C11.6357 31.3774 12.1681 31.3958 16.4053 31.3958C20.6424 31.3958 21.1748 31.3774 22.8381 31.3003C24.4977 31.2232 25.6323 30.9625 26.6274 30.5733C27.6518 30.1731 28.522 29.6407 29.3922 28.7741C30.2587 27.9076 30.7948 27.0374 31.1913 26.0093C31.5768 25.018 31.8412 23.8834 31.9183 22.2201C31.9954 20.5568 32.0138 20.0244 32.0138 15.7872C32.0138 11.5501 31.9954 11.0177 31.9183 9.35436C31.8412 7.69474 31.5805 6.56018 31.1913 5.56514C30.7911 4.54072 30.2587 3.67053 29.3922 2.80033C28.5256 1.9338 27.6554 1.39772 26.6274 1.00118C25.636 0.615647 24.5014 0.351282 22.8381 0.274176C21.1748 0.19707 20.6424 0.178711 16.4053 0.178711Z" fill="white"/>
<path d="M16.4052 7.77148C11.9808 7.77148 8.39349 11.3588 8.39349 15.7832C8.39349 20.2076 11.9808 23.7949 16.4052 23.7949C20.8296 23.7949 24.4169 20.2076 24.4169 15.7832C24.4169 11.3588 20.8296 7.77148 16.4052 7.77148ZM16.4052 20.986C13.5339 20.986 11.2024 18.6582 11.2024 15.7832C11.2024 12.9082 13.5302 10.5804 16.4052 10.5804C19.2802 10.5804 21.608 12.9082 21.608 15.7832C21.608 18.6582 19.2802 20.986 16.4052 20.986Z" fill="white"/>
<path d="M24.7364 9.32524C25.7706 9.32524 26.609 8.48686 26.609 7.45266C26.609 6.41846 25.7706 5.58008 24.7364 5.58008C23.7022 5.58008 22.8638 6.41846 22.8638 7.45266C22.8638 8.48686 23.7022 9.32524 24.7364 9.32524Z" fill="white"/>
</svg>
