<svg width="30" height="30" viewBox="0 0 30 30" fill="none" xmlns="http://www.w3.org/2000/svg">
<path d="M16.7008 12.4025C17.1083 11.9435 17.4425 11.4809 17.8611 11.088C19.1462 9.87633 20.6662 9.26682 22.4434 9.28151C23.42 9.28885 24.382 9.35861 25.322 9.63032C27.4736 10.2508 28.722 11.7342 29.3205 13.8345C29.7685 15.4096 29.8492 17.0289 29.8529 18.6518C29.8603 22.0738 29.8419 25.4995 29.8529 28.9216C29.8529 29.241 29.7648 29.3255 29.449 29.3255C27.6866 29.3108 25.9205 29.3108 24.1581 29.3255C23.846 29.3255 23.7799 29.2337 23.7799 28.94C23.7909 25.6831 23.7909 22.4263 23.7799 19.1658C23.7799 18.3507 23.7248 17.5319 23.4971 16.7388C23.0749 15.2774 22.0285 14.5321 20.4973 14.6129C18.4045 14.723 17.3176 15.7584 17.0533 17.8844C16.9908 18.3911 16.9578 18.9014 16.9615 19.4118C16.9615 22.5805 16.9615 25.7492 16.9688 28.9179C16.9688 29.2337 16.8917 29.3255 16.5686 29.3255C14.7915 29.3108 13.0144 29.3108 11.2372 29.3255C10.9509 29.3255 10.8701 29.252 10.8701 28.962C10.8774 22.6907 10.8774 16.4157 10.8701 10.1444C10.8701 9.83227 10.9729 9.7625 11.2666 9.7625C12.9519 9.77352 14.6409 9.77719 16.3263 9.7625C16.6384 9.7625 16.7155 9.86164 16.7118 10.1554C16.6934 10.9044 16.7044 11.6534 16.7044 12.4062L16.7008 12.4025Z" fill="#FEFEFE"/>
<path d="M7.03684 19.5696C7.03684 22.6723 7.03317 25.7749 7.04418 28.8775C7.04418 29.2226 6.95973 29.3254 6.60357 29.3218C4.84114 29.3034 3.07872 29.3071 1.31262 29.3218C1.02989 29.3218 0.945444 29.252 0.945444 28.9619C0.952787 22.6796 0.952787 16.3973 0.945444 10.1113C0.945444 9.85058 1.00786 9.75879 1.28324 9.75879C3.07137 9.7698 4.85951 9.77348 6.64764 9.75879C6.99278 9.75879 7.03684 9.8873 7.03684 10.1847C7.0295 13.313 7.03317 16.4413 7.03317 19.5696H7.03684Z" fill="#FEFEFE"/>
<path d="M7.52517 3.53482C7.52517 5.48451 5.94632 7.07069 4.00031 7.07069C2.07999 7.07069 0.486464 5.48451 0.479121 3.5642C0.471777 1.62552 2.06531 0.0283203 4.00766 0.0283203C5.93532 0.0283203 7.5215 1.61083 7.52517 3.53115V3.53482Z" fill="#FEFEFE"/>
</svg>
