<svg width="28" height="23" viewBox="0 0 28 23" fill="none" xmlns="http://www.w3.org/2000/svg">
<path d="M27.2811 0.71612C27.1857 0.44074 27.0718 0.363651 26.8956 0.297559C26.5101 0.15069 25.8565 0.370976 25.8565 0.370976C25.8565 0.370976 2.69157 8.69846 1.36975 9.62006C1.08335 9.81834 0.987888 9.93217 0.943827 10.068C0.71618 10.7253 1.4285 11.0153 1.4285 11.0153L7.39873 12.9614C7.39873 12.9614 7.6227 12.9944 7.69981 12.943C9.05835 12.0838 21.366 4.31442 22.0746 4.05373C22.1885 4.02069 22.2692 4.05739 22.2472 4.1345C21.9645 5.13321 11.2761 14.632 11.2761 14.632C11.2761 14.632 11.2357 14.6834 11.21 14.7421L11.1953 14.7348L10.6372 20.6573C10.6372 20.6573 10.4022 22.4711 12.2197 20.6573C13.5011 19.3758 14.7385 18.3074 15.359 17.786C17.4115 19.2033 19.6219 20.7711 20.5729 21.5899C21.0502 22.0011 21.4541 22.0672 21.7809 22.0562C22.6841 22.0232 22.9375 21.0281 22.9375 21.0281C22.9375 21.0281 27.16 4.03905 27.2995 1.76258C27.3142 1.5386 27.3325 1.39906 27.3325 1.24485C27.3325 1.03189 27.3142 0.818928 27.2811 0.71612Z" fill="white"/>
</svg>
