<svg width="33" height="28" viewBox="0 0 33 28" fill="none" xmlns="http://www.w3.org/2000/svg">
<path d="M10.9546 27.0595C23.0603 27.0595 29.6805 17.032 29.6805 8.33369C29.6805 8.0473 29.6731 7.76458 29.6621 7.48185C30.9472 6.5529 32.0634 5.39264 32.9446 4.07449C31.766 4.59954 30.4956 4.95203 29.1664 5.10991C30.525 4.29479 31.5678 3.00601 32.0598 1.47123C30.7893 2.22393 29.3794 2.77469 27.8813 3.06843C26.6807 1.79067 24.9696 0.990234 23.0787 0.990234C19.4437 0.990234 16.4953 3.93863 16.4953 7.56997C16.4953 8.08769 16.554 8.58704 16.6679 9.07171C11.197 8.79633 6.34663 6.17839 3.10449 2.19456C2.53904 3.16757 2.21226 4.29846 2.21226 5.50279C2.21226 7.7866 3.37254 9.80238 5.14232 10.981C4.06283 10.948 3.04941 10.6506 2.16085 10.1585C2.16085 10.1842 2.16085 10.2136 2.16085 10.243C2.16085 13.4301 4.42998 16.0921 7.4408 16.6942C6.88637 16.8448 6.30625 16.9255 5.70775 16.9255C5.28551 16.9255 4.8706 16.8851 4.47038 16.808C5.30754 19.4223 7.73822 21.3243 10.6169 21.3793C8.36241 23.1455 5.52783 24.1956 2.44358 24.1956C1.91118 24.1956 1.38981 24.1662 0.872093 24.1038C3.78377 25.969 7.24253 27.0595 10.9583 27.0595" fill="white"/>
</svg>
